<?xml version="1.0" encoding="us-ascii" standalone="no"?><svg xmlns="http://www.w3.org/2000/svg" xmlns:xlink="http://www.w3.org/1999/xlink" contentStyleType="text/css" height="1034px" preserveAspectRatio="none" style="width:786px;height:1034px;background:#FFFFFF;" version="1.1" viewBox="0 0 786 1034" width="786px" zoomAndPan="magnify"><defs/><g><!--class ConnectFour--><g id="elem_ConnectFour"><rect codeLine="1" fill="#F1F1F1" height="48" id="ConnectFour" rx="2.5" ry="2.5" style="stroke:#181818;stroke-width:0.5;" width="124" x="302.6719" y="7"/><ellipse cx="317.6719" cy="23" fill="#ADD1B2" rx="11" ry="11" style="stroke:#181818;stroke-width:1.0;"/><path d="M320.0157,18.6719 C319.0782,18.2344 318.4844,18.0938 317.6094,18.0938 C314.9844,18.0938 312.9844,20.1719 312.9844,22.8906 L312.9844,24.0156 C312.9844,26.5938 315.0938,28.4844 317.9844,28.4844 C319.2032,28.4844 320.3594,28.1875 321.1094,27.6406 C321.6875,27.2344 322.0157,26.7813 322.0157,26.3906 C322.0157,25.9375 321.625,25.5469 321.1563,25.5469 C320.9375,25.5469 320.7344,25.625 320.5469,25.8125 C320.0938,26.2969 320.0938,26.2969 319.9063,26.3906 C319.4844,26.6563 318.7969,26.7813 318.0313,26.7813 C315.9844,26.7813 314.6875,25.6875 314.6875,23.9844 L314.6875,22.8906 C314.6875,21.1094 315.9375,19.7969 317.6719,19.7969 C318.25,19.7969 318.8594,19.9531 319.3282,20.2031 C319.8125,20.4844 319.9844,20.7031 320.0782,21.1094 C320.1407,21.5156 320.1719,21.6406 320.3125,21.7656 C320.4532,21.9063 320.6875,22.0156 320.9063,22.0156 C321.1719,22.0156 321.4375,21.875 321.6094,21.6563 C321.7188,21.5 321.75,21.3125 321.75,20.8906 L321.75,19.4688 C321.75,19.0313 321.7344,18.9063 321.6407,18.75 C321.4844,18.4844 321.2032,18.3438 320.9063,18.3438 C320.6094,18.3438 320.4063,18.4375 320.1875,18.75 L320.0157,18.6719 Z " fill="#000000"/><text fill="#000000" font-family="sans-serif" font-size="14" lengthAdjust="spacing" textLength="92" x="331.6719" y="27.8467">ConnectFour</text><line style="stroke:#181818;stroke-width:0.5;" x1="303.6719" x2="425.6719" y1="39" y2="39"/><line style="stroke:#181818;stroke-width:0.5;" x1="303.6719" x2="425.6719" y1="47" y2="47"/></g><!--class Player--><g id="elem_Player"><rect codeLine="2" fill="#F1F1F1" height="48" id="Player" rx="2.5" ry="2.5" style="stroke:#181818;stroke-width:0.5;" width="76" x="394.6719" y="223"/><ellipse cx="409.6719" cy="239" fill="#ADD1B2" rx="11" ry="11" style="stroke:#181818;stroke-width:1.0;"/><path d="M412.0157,234.6719 C411.0782,234.2344 410.4844,234.0938 409.6094,234.0938 C406.9844,234.0938 404.9844,236.1719 404.9844,238.8906 L404.9844,240.0156 C404.9844,242.5938 407.0938,244.4844 409.9844,244.4844 C411.2032,244.4844 412.3594,244.1875 413.1094,243.6406 C413.6875,243.2344 414.0157,242.7813 414.0157,242.3906 C414.0157,241.9375 413.625,241.5469 413.1563,241.5469 C412.9375,241.5469 412.7344,241.625 412.5469,241.8125 C412.0938,242.2969 412.0938,242.2969 411.9063,242.3906 C411.4844,242.6563 410.7969,242.7813 410.0313,242.7813 C407.9844,242.7813 406.6875,241.6875 406.6875,239.9844 L406.6875,238.8906 C406.6875,237.1094 407.9375,235.7969 409.6719,235.7969 C410.25,235.7969 410.8594,235.9531 411.3282,236.2031 C411.8125,236.4844 411.9844,236.7031 412.0782,237.1094 C412.1407,237.5156 412.1719,237.6406 412.3125,237.7656 C412.4532,237.9063 412.6875,238.0156 412.9063,238.0156 C413.1719,238.0156 413.4375,237.875 413.6094,237.6563 C413.7188,237.5 413.75,237.3125 413.75,236.8906 L413.75,235.4688 C413.75,235.0313 413.7344,234.9063 413.6407,234.75 C413.4844,234.4844 413.2032,234.3438 412.9063,234.3438 C412.6094,234.3438 412.4063,234.4375 412.1875,234.75 L412.0157,234.6719 Z " fill="#000000"/><text fill="#000000" font-family="sans-serif" font-size="14" lengthAdjust="spacing" textLength="44" x="423.6719" y="243.8467">Player</text><line style="stroke:#181818;stroke-width:0.5;" x1="395.6719" x2="469.6719" y1="255" y2="255"/><line style="stroke:#181818;stroke-width:0.5;" x1="395.6719" x2="469.6719" y1="263" y2="263"/></g><!--class Board--><g id="elem_Board"><rect codeLine="3" fill="#F1F1F1" height="48" id="Board" rx="2.5" ry="2.5" style="stroke:#181818;stroke-width:0.5;" width="74" x="242.6719" y="331"/><ellipse cx="257.6719" cy="347" fill="#ADD1B2" rx="11" ry="11" style="stroke:#181818;stroke-width:1.0;"/><path d="M260.0157,342.6719 C259.0782,342.2344 258.4844,342.0938 257.6094,342.0938 C254.9844,342.0938 252.9844,344.1719 252.9844,346.8906 L252.9844,348.0156 C252.9844,350.5938 255.0938,352.4844 257.9844,352.4844 C259.2032,352.4844 260.3594,352.1875 261.1094,351.6406 C261.6875,351.2344 262.0157,350.7813 262.0157,350.3906 C262.0157,349.9375 261.625,349.5469 261.1563,349.5469 C260.9375,349.5469 260.7344,349.625 260.5469,349.8125 C260.0938,350.2969 260.0938,350.2969 259.9063,350.3906 C259.4844,350.6563 258.7969,350.7813 258.0313,350.7813 C255.9844,350.7813 254.6875,349.6875 254.6875,347.9844 L254.6875,346.8906 C254.6875,345.1094 255.9375,343.7969 257.6719,343.7969 C258.25,343.7969 258.8594,343.9531 259.3282,344.2031 C259.8125,344.4844 259.9844,344.7031 260.0782,345.1094 C260.1407,345.5156 260.1719,345.6406 260.3125,345.7656 C260.4532,345.9063 260.6875,346.0156 260.9063,346.0156 C261.1719,346.0156 261.4375,345.875 261.6094,345.6563 C261.7188,345.5 261.75,345.3125 261.75,344.8906 L261.75,343.4688 C261.75,343.0313 261.7344,342.9063 261.6407,342.75 C261.4844,342.4844 261.2032,342.3438 260.9063,342.3438 C260.6094,342.3438 260.4063,342.4375 260.1875,342.75 L260.0157,342.6719 Z " fill="#000000"/><text fill="#000000" font-family="sans-serif" font-size="14" lengthAdjust="spacing" textLength="42" x="271.6719" y="351.8467">Board</text><line style="stroke:#181818;stroke-width:0.5;" x1="243.6719" x2="315.6719" y1="363" y2="363"/><line style="stroke:#181818;stroke-width:0.5;" x1="243.6719" x2="315.6719" y1="371" y2="371"/></g><!--class Goal--><g id="elem_Goal"><rect codeLine="4" fill="#F1F1F1" height="48" id="Goal" rx="2.5" ry="2.5" style="stroke:#181818;stroke-width:0.5;" width="64" x="367.6719" y="331"/><ellipse cx="382.6719" cy="347" fill="#ADD1B2" rx="11" ry="11" style="stroke:#181818;stroke-width:1.0;"/><path d="M385.0157,342.6719 C384.0782,342.2344 383.4844,342.0938 382.6094,342.0938 C379.9844,342.0938 377.9844,344.1719 377.9844,346.8906 L377.9844,348.0156 C377.9844,350.5938 380.0938,352.4844 382.9844,352.4844 C384.2032,352.4844 385.3594,352.1875 386.1094,351.6406 C386.6875,351.2344 387.0157,350.7813 387.0157,350.3906 C387.0157,349.9375 386.625,349.5469 386.1563,349.5469 C385.9375,349.5469 385.7344,349.625 385.5469,349.8125 C385.0938,350.2969 385.0938,350.2969 384.9063,350.3906 C384.4844,350.6563 383.7969,350.7813 383.0313,350.7813 C380.9844,350.7813 379.6875,349.6875 379.6875,347.9844 L379.6875,346.8906 C379.6875,345.1094 380.9375,343.7969 382.6719,343.7969 C383.25,343.7969 383.8594,343.9531 384.3282,344.2031 C384.8125,344.4844 384.9844,344.7031 385.0782,345.1094 C385.1407,345.5156 385.1719,345.6406 385.3125,345.7656 C385.4532,345.9063 385.6875,346.0156 385.9063,346.0156 C386.1719,346.0156 386.4375,345.875 386.6094,345.6563 C386.7188,345.5 386.75,345.3125 386.75,344.8906 L386.75,343.4688 C386.75,343.0313 386.7344,342.9063 386.6407,342.75 C386.4844,342.4844 386.2032,342.3438 385.9063,342.3438 C385.6094,342.3438 385.4063,342.4375 385.1875,342.75 L385.0157,342.6719 Z " fill="#000000"/><text fill="#000000" font-family="sans-serif" font-size="14" lengthAdjust="spacing" textLength="32" x="396.6719" y="351.8467">Goal</text><line style="stroke:#181818;stroke-width:0.5;" x1="368.6719" x2="430.6719" y1="363" y2="363"/><line style="stroke:#181818;stroke-width:0.5;" x1="368.6719" x2="430.6719" y1="371" y2="371"/></g><!--class Token--><g id="elem_Token"><rect codeLine="5" fill="#F1F1F1" height="48" id="Token" rx="2.5" ry="2.5" style="stroke:#181818;stroke-width:0.5;" width="77" x="570.1719" y="763"/><ellipse cx="585.1719" cy="779" fill="#ADD1B2" rx="11" ry="11" style="stroke:#181818;stroke-width:1.0;"/><path d="M587.5157,774.6719 C586.5782,774.2344 585.9844,774.0938 585.1094,774.0938 C582.4844,774.0938 580.4844,776.1719 580.4844,778.8906 L580.4844,780.0156 C580.4844,782.5938 582.5938,784.4844 585.4844,784.4844 C586.7032,784.4844 587.8594,784.1875 588.6094,783.6406 C589.1875,783.2344 589.5157,782.7813 589.5157,782.3906 C589.5157,781.9375 589.125,781.5469 588.6563,781.5469 C588.4375,781.5469 588.2344,781.625 588.0469,781.8125 C587.5938,782.2969 587.5938,782.2969 587.4063,782.3906 C586.9844,782.6563 586.2969,782.7813 585.5313,782.7813 C583.4844,782.7813 582.1875,781.6875 582.1875,779.9844 L582.1875,778.8906 C582.1875,777.1094 583.4375,775.7969 585.1719,775.7969 C585.75,775.7969 586.3594,775.9531 586.8282,776.2031 C587.3125,776.4844 587.4844,776.7031 587.5782,777.1094 C587.6407,777.5156 587.6719,777.6406 587.8125,777.7656 C587.9532,777.9063 588.1875,778.0156 588.4063,778.0156 C588.6719,778.0156 588.9375,777.875 589.1094,777.6563 C589.2188,777.5 589.25,777.3125 589.25,776.8906 L589.25,775.4688 C589.25,775.0313 589.2344,774.9063 589.1407,774.75 C588.9844,774.4844 588.7032,774.3438 588.4063,774.3438 C588.1094,774.3438 587.9063,774.4375 587.6875,774.75 L587.5157,774.6719 Z " fill="#000000"/><text fill="#000000" font-family="sans-serif" font-size="14" lengthAdjust="spacing" textLength="45" x="599.1719" y="783.8467">Token</text><line style="stroke:#181818;stroke-width:0.5;" x1="571.1719" x2="646.1719" y1="795" y2="795"/><line style="stroke:#181818;stroke-width:0.5;" x1="571.1719" x2="646.1719" y1="803" y2="803"/></g><!--class Turn--><g id="elem_Turn"><rect codeLine="6" fill="#F1F1F1" height="48" id="Turn" rx="2.5" ry="2.5" style="stroke:#181818;stroke-width:0.5;" width="64" x="332.6719" y="115"/><ellipse cx="347.6719" cy="131" fill="#ADD1B2" rx="11" ry="11" style="stroke:#181818;stroke-width:1.0;"/><path d="M350.0157,126.6719 C349.0782,126.2344 348.4844,126.0938 347.6094,126.0938 C344.9844,126.0938 342.9844,128.1719 342.9844,130.8906 L342.9844,132.0156 C342.9844,134.5938 345.0938,136.4844 347.9844,136.4844 C349.2032,136.4844 350.3594,136.1875 351.1094,135.6406 C351.6875,135.2344 352.0157,134.7813 352.0157,134.3906 C352.0157,133.9375 351.625,133.5469 351.1563,133.5469 C350.9375,133.5469 350.7344,133.625 350.5469,133.8125 C350.0938,134.2969 350.0938,134.2969 349.9063,134.3906 C349.4844,134.6563 348.7969,134.7813 348.0313,134.7813 C345.9844,134.7813 344.6875,133.6875 344.6875,131.9844 L344.6875,130.8906 C344.6875,129.1094 345.9375,127.7969 347.6719,127.7969 C348.25,127.7969 348.8594,127.9531 349.3282,128.2031 C349.8125,128.4844 349.9844,128.7031 350.0782,129.1094 C350.1407,129.5156 350.1719,129.6406 350.3125,129.7656 C350.4532,129.9063 350.6875,130.0156 350.9063,130.0156 C351.1719,130.0156 351.4375,129.875 351.6094,129.6563 C351.7188,129.5 351.75,129.3125 351.75,128.8906 L351.75,127.4688 C351.75,127.0313 351.7344,126.9063 351.6407,126.75 C351.4844,126.4844 351.2032,126.3438 350.9063,126.3438 C350.6094,126.3438 350.4063,126.4375 350.1875,126.75 L350.0157,126.6719 Z " fill="#000000"/><text fill="#000000" font-family="sans-serif" font-size="14" lengthAdjust="spacing" textLength="32" x="361.6719" y="135.8467">Turn</text><line style="stroke:#181818;stroke-width:0.5;" x1="333.6719" x2="395.6719" y1="147" y2="147"/><line style="stroke:#181818;stroke-width:0.5;" x1="333.6719" x2="395.6719" y1="155" y2="155"/></g><!--class Horizontal--><g id="elem_Horizontal"><rect codeLine="7" fill="#F1F1F1" height="48" id="Horizontal" rx="2.5" ry="2.5" style="stroke:#181818;stroke-width:0.5;" width="106" x="539.6719" y="439"/><ellipse cx="554.6719" cy="455" fill="#ADD1B2" rx="11" ry="11" style="stroke:#181818;stroke-width:1.0;"/><path d="M557.0157,450.6719 C556.0782,450.2344 555.4844,450.0938 554.6094,450.0938 C551.9844,450.0938 549.9844,452.1719 549.9844,454.8906 L549.9844,456.0156 C549.9844,458.5938 552.0938,460.4844 554.9844,460.4844 C556.2032,460.4844 557.3594,460.1875 558.1094,459.6406 C558.6875,459.2344 559.0157,458.7813 559.0157,458.3906 C559.0157,457.9375 558.625,457.5469 558.1563,457.5469 C557.9375,457.5469 557.7344,457.625 557.5469,457.8125 C557.0938,458.2969 557.0938,458.2969 556.9063,458.3906 C556.4844,458.6563 555.7969,458.7813 555.0313,458.7813 C552.9844,458.7813 551.6875,457.6875 551.6875,455.9844 L551.6875,454.8906 C551.6875,453.1094 552.9375,451.7969 554.6719,451.7969 C555.25,451.7969 555.8594,451.9531 556.3282,452.2031 C556.8125,452.4844 556.9844,452.7031 557.0782,453.1094 C557.1407,453.5156 557.1719,453.6406 557.3125,453.7656 C557.4532,453.9063 557.6875,454.0156 557.9063,454.0156 C558.1719,454.0156 558.4375,453.875 558.6094,453.6563 C558.7188,453.5 558.75,453.3125 558.75,452.8906 L558.75,451.4688 C558.75,451.0313 558.7344,450.9063 558.6407,450.75 C558.4844,450.4844 558.2032,450.3438 557.9063,450.3438 C557.6094,450.3438 557.4063,450.4375 557.1875,450.75 L557.0157,450.6719 Z " fill="#000000"/><text fill="#000000" font-family="sans-serif" font-size="14" lengthAdjust="spacing" textLength="74" x="568.6719" y="459.8467">Horizontal</text><line style="stroke:#181818;stroke-width:0.5;" x1="540.6719" x2="644.6719" y1="471" y2="471"/><line style="stroke:#181818;stroke-width:0.5;" x1="540.6719" x2="644.6719" y1="479" y2="479"/></g><!--class Vertical--><g id="elem_Vertical"><rect codeLine="8" fill="#F1F1F1" height="48" id="Vertical" rx="2.5" ry="2.5" style="stroke:#181818;stroke-width:0.5;" width="88" x="77.6715" y="439"/><ellipse cx="92.6715" cy="455" fill="#ADD1B2" rx="11" ry="11" style="stroke:#181818;stroke-width:1.0;"/><path d="M95.0153,450.6719 C94.0778,450.2344 93.484,450.0938 92.609,450.0938 C89.984,450.0938 87.984,452.1719 87.984,454.8906 L87.984,456.0156 C87.984,458.5938 90.0934,460.4844 92.984,460.4844 C94.2028,460.4844 95.359,460.1875 96.109,459.6406 C96.6871,459.2344 97.0153,458.7813 97.0153,458.3906 C97.0153,457.9375 96.6246,457.5469 96.1559,457.5469 C95.9371,457.5469 95.734,457.625 95.5465,457.8125 C95.0934,458.2969 95.0934,458.2969 94.9059,458.3906 C94.484,458.6563 93.7965,458.7813 93.0309,458.7813 C90.984,458.7813 89.6871,457.6875 89.6871,455.9844 L89.6871,454.8906 C89.6871,453.1094 90.9371,451.7969 92.6715,451.7969 C93.2496,451.7969 93.859,451.9531 94.3278,452.2031 C94.8121,452.4844 94.984,452.7031 95.0778,453.1094 C95.1403,453.5156 95.1715,453.6406 95.3121,453.7656 C95.4528,453.9063 95.6871,454.0156 95.9059,454.0156 C96.1715,454.0156 96.4371,453.875 96.609,453.6563 C96.7184,453.5 96.7496,453.3125 96.7496,452.8906 L96.7496,451.4688 C96.7496,451.0313 96.734,450.9063 96.6403,450.75 C96.484,450.4844 96.2028,450.3438 95.9059,450.3438 C95.609,450.3438 95.4059,450.4375 95.1871,450.75 L95.0153,450.6719 Z " fill="#000000"/><text fill="#000000" font-family="sans-serif" font-size="14" lengthAdjust="spacing" textLength="56" x="106.6715" y="459.8467">Vertical</text><line style="stroke:#181818;stroke-width:0.5;" x1="78.6715" x2="164.6715" y1="471" y2="471"/><line style="stroke:#181818;stroke-width:0.5;" x1="78.6715" x2="164.6715" y1="479" y2="479"/></g><!--class Diagonal--><g id="elem_Diagonal"><rect codeLine="9" fill="#F1F1F1" height="48" id="Diagonal" rx="2.5" ry="2.5" style="stroke:#181818;stroke-width:0.5;" width="94" x="200.6719" y="439"/><ellipse cx="215.6719" cy="455" fill="#ADD1B2" rx="11" ry="11" style="stroke:#181818;stroke-width:1.0;"/><path d="M218.0157,450.6719 C217.0782,450.2344 216.4844,450.0938 215.6094,450.0938 C212.9844,450.0938 210.9844,452.1719 210.9844,454.8906 L210.9844,456.0156 C210.9844,458.5938 213.0938,460.4844 215.9844,460.4844 C217.2032,460.4844 218.3594,460.1875 219.1094,459.6406 C219.6875,459.2344 220.0157,458.7813 220.0157,458.3906 C220.0157,457.9375 219.625,457.5469 219.1563,457.5469 C218.9375,457.5469 218.7344,457.625 218.5469,457.8125 C218.0938,458.2969 218.0938,458.2969 217.9063,458.3906 C217.4844,458.6563 216.7969,458.7813 216.0313,458.7813 C213.9844,458.7813 212.6875,457.6875 212.6875,455.9844 L212.6875,454.8906 C212.6875,453.1094 213.9375,451.7969 215.6719,451.7969 C216.25,451.7969 216.8594,451.9531 217.3282,452.2031 C217.8125,452.4844 217.9844,452.7031 218.0782,453.1094 C218.1407,453.5156 218.1719,453.6406 218.3125,453.7656 C218.4532,453.9063 218.6875,454.0156 218.9063,454.0156 C219.1719,454.0156 219.4375,453.875 219.6094,453.6563 C219.7188,453.5 219.75,453.3125 219.75,452.8906 L219.75,451.4688 C219.75,451.0313 219.7344,450.9063 219.6407,450.75 C219.4844,450.4844 219.2032,450.3438 218.9063,450.3438 C218.6094,450.3438 218.4063,450.4375 218.1875,450.75 L218.0157,450.6719 Z " fill="#000000"/><text fill="#000000" font-family="sans-serif" font-size="14" lengthAdjust="spacing" textLength="62" x="229.6719" y="459.8467">Diagonal</text><line style="stroke:#181818;stroke-width:0.5;" x1="201.6719" x2="293.6719" y1="471" y2="471"/><line style="stroke:#181818;stroke-width:0.5;" x1="201.6719" x2="293.6719" y1="479" y2="479"/></g><!--class Color--><g id="elem_Color"><rect codeLine="10" fill="#F1F1F1" height="48" id="Color" rx="2.5" ry="2.5" style="stroke:#181818;stroke-width:0.5;" width="70" x="653.6719" y="871"/><ellipse cx="668.6719" cy="887" fill="#ADD1B2" rx="11" ry="11" style="stroke:#181818;stroke-width:1.0;"/><path d="M671.0157,882.6719 C670.0782,882.2344 669.4844,882.0938 668.6094,882.0938 C665.9844,882.0938 663.9844,884.1719 663.9844,886.8906 L663.9844,888.0156 C663.9844,890.5938 666.0938,892.4844 668.9844,892.4844 C670.2032,892.4844 671.3594,892.1875 672.1094,891.6406 C672.6875,891.2344 673.0157,890.7813 673.0157,890.3906 C673.0157,889.9375 672.625,889.5469 672.1563,889.5469 C671.9375,889.5469 671.7344,889.625 671.5469,889.8125 C671.0938,890.2969 671.0938,890.2969 670.9063,890.3906 C670.4844,890.6563 669.7969,890.7813 669.0313,890.7813 C666.9844,890.7813 665.6875,889.6875 665.6875,887.9844 L665.6875,886.8906 C665.6875,885.1094 666.9375,883.7969 668.6719,883.7969 C669.25,883.7969 669.8594,883.9531 670.3282,884.2031 C670.8125,884.4844 670.9844,884.7031 671.0782,885.1094 C671.1407,885.5156 671.1719,885.6406 671.3125,885.7656 C671.4532,885.9063 671.6875,886.0156 671.9063,886.0156 C672.1719,886.0156 672.4375,885.875 672.6094,885.6563 C672.7188,885.5 672.75,885.3125 672.75,884.8906 L672.75,883.4688 C672.75,883.0313 672.7344,882.9063 672.6407,882.75 C672.4844,882.4844 672.2032,882.3438 671.9063,882.3438 C671.6094,882.3438 671.4063,882.4375 671.1875,882.75 L671.0157,882.6719 Z " fill="#000000"/><text fill="#000000" font-family="sans-serif" font-size="14" lengthAdjust="spacing" textLength="38" x="682.6719" y="891.8467">Color</text><line style="stroke:#181818;stroke-width:0.5;" x1="654.6719" x2="722.6719" y1="903" y2="903"/><line style="stroke:#181818;stroke-width:0.5;" x1="654.6719" x2="722.6719" y1="911" y2="911"/></g><!--class Square--><g id="elem_Square"><rect codeLine="11" fill="#F1F1F1" height="48" id="Square" rx="2.5" ry="2.5" style="stroke:#181818;stroke-width:0.5;" width="81" x="357.1719" y="655"/><ellipse cx="372.1719" cy="671" fill="#ADD1B2" rx="11" ry="11" style="stroke:#181818;stroke-width:1.0;"/><path d="M374.5157,666.6719 C373.5782,666.2344 372.9844,666.0938 372.1094,666.0938 C369.4844,666.0938 367.4844,668.1719 367.4844,670.8906 L367.4844,672.0156 C367.4844,674.5938 369.5938,676.4844 372.4844,676.4844 C373.7032,676.4844 374.8594,676.1875 375.6094,675.6406 C376.1875,675.2344 376.5157,674.7813 376.5157,674.3906 C376.5157,673.9375 376.125,673.5469 375.6563,673.5469 C375.4375,673.5469 375.2344,673.625 375.0469,673.8125 C374.5938,674.2969 374.5938,674.2969 374.4063,674.3906 C373.9844,674.6563 373.2969,674.7813 372.5313,674.7813 C370.4844,674.7813 369.1875,673.6875 369.1875,671.9844 L369.1875,670.8906 C369.1875,669.1094 370.4375,667.7969 372.1719,667.7969 C372.75,667.7969 373.3594,667.9531 373.8282,668.2031 C374.3125,668.4844 374.4844,668.7031 374.5782,669.1094 C374.6407,669.5156 374.6719,669.6406 374.8125,669.7656 C374.9532,669.9063 375.1875,670.0156 375.4063,670.0156 C375.6719,670.0156 375.9375,669.875 376.1094,669.6563 C376.2188,669.5 376.25,669.3125 376.25,668.8906 L376.25,667.4688 C376.25,667.0313 376.2344,666.9063 376.1407,666.75 C375.9844,666.4844 375.7032,666.3438 375.4063,666.3438 C375.1094,666.3438 374.9063,666.4375 374.6875,666.75 L374.5157,666.6719 Z " fill="#000000"/><text fill="#000000" font-family="sans-serif" font-size="14" lengthAdjust="spacing" textLength="49" x="386.1719" y="675.8467">Square</text><line style="stroke:#181818;stroke-width:0.5;" x1="358.1719" x2="437.1719" y1="687" y2="687"/><line style="stroke:#181818;stroke-width:0.5;" x1="358.1719" x2="437.1719" y1="695" y2="695"/></g><!--class Red--><g id="elem_Red"><rect codeLine="12" fill="#F1F1F1" height="48" id="Red" rx="2.5" ry="2.5" style="stroke:#181818;stroke-width:0.5;" width="60" x="606.6719" y="979"/><ellipse cx="621.6719" cy="995" fill="#ADD1B2" rx="11" ry="11" style="stroke:#181818;stroke-width:1.0;"/><path d="M624.0157,990.6719 C623.0782,990.2344 622.4844,990.0938 621.6094,990.0938 C618.9844,990.0938 616.9844,992.1719 616.9844,994.8906 L616.9844,996.0156 C616.9844,998.5938 619.0938,1000.4844 621.9844,1000.4844 C623.2032,1000.4844 624.3594,1000.1875 625.1094,999.6406 C625.6875,999.2344 626.0157,998.7813 626.0157,998.3906 C626.0157,997.9375 625.625,997.5469 625.1563,997.5469 C624.9375,997.5469 624.7344,997.625 624.5469,997.8125 C624.0938,998.2969 624.0938,998.2969 623.9063,998.3906 C623.4844,998.6563 622.7969,998.7813 622.0313,998.7813 C619.9844,998.7813 618.6875,997.6875 618.6875,995.9844 L618.6875,994.8906 C618.6875,993.1094 619.9375,991.7969 621.6719,991.7969 C622.25,991.7969 622.8594,991.9531 623.3282,992.2031 C623.8125,992.4844 623.9844,992.7031 624.0782,993.1094 C624.1407,993.5156 624.1719,993.6406 624.3125,993.7656 C624.4532,993.9063 624.6875,994.0156 624.9063,994.0156 C625.1719,994.0156 625.4375,993.875 625.6094,993.6563 C625.7188,993.5 625.75,993.3125 625.75,992.8906 L625.75,991.4688 C625.75,991.0313 625.7344,990.9063 625.6407,990.75 C625.4844,990.4844 625.2032,990.3438 624.9063,990.3438 C624.6094,990.3438 624.4063,990.4375 624.1875,990.75 L624.0157,990.6719 Z " fill="#000000"/><text fill="#000000" font-family="sans-serif" font-size="14" lengthAdjust="spacing" textLength="28" x="635.6719" y="999.8467">Red</text><line style="stroke:#181818;stroke-width:0.5;" x1="607.6719" x2="665.6719" y1="1011" y2="1011"/><line style="stroke:#181818;stroke-width:0.5;" x1="607.6719" x2="665.6719" y1="1019" y2="1019"/></g><!--class Yellow--><g id="elem_Yellow"><rect codeLine="13" fill="#F1F1F1" height="48" id="Yellow" rx="2.5" ry="2.5" style="stroke:#181818;stroke-width:0.5;" width="78" x="701.6719" y="979"/><ellipse cx="716.6719" cy="995" fill="#ADD1B2" rx="11" ry="11" style="stroke:#181818;stroke-width:1.0;"/><path d="M719.0157,990.6719 C718.0782,990.2344 717.4844,990.0938 716.6094,990.0938 C713.9844,990.0938 711.9844,992.1719 711.9844,994.8906 L711.9844,996.0156 C711.9844,998.5938 714.0938,1000.4844 716.9844,1000.4844 C718.2032,1000.4844 719.3594,1000.1875 720.1094,999.6406 C720.6875,999.2344 721.0157,998.7813 721.0157,998.3906 C721.0157,997.9375 720.625,997.5469 720.1563,997.5469 C719.9375,997.5469 719.7344,997.625 719.5469,997.8125 C719.0938,998.2969 719.0938,998.2969 718.9063,998.3906 C718.4844,998.6563 717.7969,998.7813 717.0313,998.7813 C714.9844,998.7813 713.6875,997.6875 713.6875,995.9844 L713.6875,994.8906 C713.6875,993.1094 714.9375,991.7969 716.6719,991.7969 C717.25,991.7969 717.8594,991.9531 718.3282,992.2031 C718.8125,992.4844 718.9844,992.7031 719.0782,993.1094 C719.1407,993.5156 719.1719,993.6406 719.3125,993.7656 C719.4532,993.9063 719.6875,994.0156 719.9063,994.0156 C720.1719,994.0156 720.4375,993.875 720.6094,993.6563 C720.7188,993.5 720.75,993.3125 720.75,992.8906 L720.75,991.4688 C720.75,991.0313 720.7344,990.9063 720.6407,990.75 C720.4844,990.4844 720.2032,990.3438 719.9063,990.3438 C719.6094,990.3438 719.4063,990.4375 719.1875,990.75 L719.0157,990.6719 Z " fill="#000000"/><text fill="#000000" font-family="sans-serif" font-size="14" lengthAdjust="spacing" textLength="46" x="730.6719" y="999.8467">Yellow</text><line style="stroke:#181818;stroke-width:0.5;" x1="702.6719" x2="778.6719" y1="1011" y2="1011"/><line style="stroke:#181818;stroke-width:0.5;" x1="702.6719" x2="778.6719" y1="1019" y2="1019"/></g><!--class PutAction--><g id="elem_PutAction"><rect codeLine="14" fill="#F1F1F1" height="48" id="PutAction" rx="2.5" ry="2.5" style="stroke:#181818;stroke-width:0.5;" width="103" x="401.1719" y="439"/><ellipse cx="416.1719" cy="455" fill="#ADD1B2" rx="11" ry="11" style="stroke:#181818;stroke-width:1.0;"/><path d="M418.5157,450.6719 C417.5782,450.2344 416.9844,450.0938 416.1094,450.0938 C413.4844,450.0938 411.4844,452.1719 411.4844,454.8906 L411.4844,456.0156 C411.4844,458.5938 413.5938,460.4844 416.4844,460.4844 C417.7032,460.4844 418.8594,460.1875 419.6094,459.6406 C420.1875,459.2344 420.5157,458.7813 420.5157,458.3906 C420.5157,457.9375 420.125,457.5469 419.6563,457.5469 C419.4375,457.5469 419.2344,457.625 419.0469,457.8125 C418.5938,458.2969 418.5938,458.2969 418.4063,458.3906 C417.9844,458.6563 417.2969,458.7813 416.5313,458.7813 C414.4844,458.7813 413.1875,457.6875 413.1875,455.9844 L413.1875,454.8906 C413.1875,453.1094 414.4375,451.7969 416.1719,451.7969 C416.75,451.7969 417.3594,451.9531 417.8282,452.2031 C418.3125,452.4844 418.4844,452.7031 418.5782,453.1094 C418.6407,453.5156 418.6719,453.6406 418.8125,453.7656 C418.9532,453.9063 419.1875,454.0156 419.4063,454.0156 C419.6719,454.0156 419.9375,453.875 420.1094,453.6563 C420.2188,453.5 420.25,453.3125 420.25,452.8906 L420.25,451.4688 C420.25,451.0313 420.2344,450.9063 420.1407,450.75 C419.9844,450.4844 419.7032,450.3438 419.4063,450.3438 C419.1094,450.3438 418.9063,450.4375 418.6875,450.75 L418.5157,450.6719 Z " fill="#000000"/><text fill="#000000" font-family="sans-serif" font-size="14" lengthAdjust="spacing" textLength="71" x="430.1719" y="459.8467">PutAction</text><line style="stroke:#181818;stroke-width:0.5;" x1="402.1719" x2="503.1719" y1="471" y2="471"/><line style="stroke:#181818;stroke-width:0.5;" x1="402.1719" x2="503.1719" y1="479" y2="479"/></g><!--class Column--><g id="elem_Column"><rect codeLine="15" fill="#F1F1F1" height="48" id="Column" rx="2.5" ry="2.5" style="stroke:#181818;stroke-width:0.5;" width="86" x="329.6719" y="547"/><ellipse cx="344.6719" cy="563" fill="#ADD1B2" rx="11" ry="11" style="stroke:#181818;stroke-width:1.0;"/><path d="M347.0157,558.6719 C346.0782,558.2344 345.4844,558.0938 344.6094,558.0938 C341.9844,558.0938 339.9844,560.1719 339.9844,562.8906 L339.9844,564.0156 C339.9844,566.5938 342.0938,568.4844 344.9844,568.4844 C346.2032,568.4844 347.3594,568.1875 348.1094,567.6406 C348.6875,567.2344 349.0157,566.7813 349.0157,566.3906 C349.0157,565.9375 348.625,565.5469 348.1563,565.5469 C347.9375,565.5469 347.7344,565.625 347.5469,565.8125 C347.0938,566.2969 347.0938,566.2969 346.9063,566.3906 C346.4844,566.6563 345.7969,566.7813 345.0313,566.7813 C342.9844,566.7813 341.6875,565.6875 341.6875,563.9844 L341.6875,562.8906 C341.6875,561.1094 342.9375,559.7969 344.6719,559.7969 C345.25,559.7969 345.8594,559.9531 346.3282,560.2031 C346.8125,560.4844 346.9844,560.7031 347.0782,561.1094 C347.1407,561.5156 347.1719,561.6406 347.3125,561.7656 C347.4532,561.9063 347.6875,562.0156 347.9063,562.0156 C348.1719,562.0156 348.4375,561.875 348.6094,561.6563 C348.7188,561.5 348.75,561.3125 348.75,560.8906 L348.75,559.4688 C348.75,559.0313 348.7344,558.9063 348.6407,558.75 C348.4844,558.4844 348.2032,558.3438 347.9063,558.3438 C347.6094,558.3438 347.4063,558.4375 347.1875,558.75 L347.0157,558.6719 Z " fill="#000000"/><text fill="#000000" font-family="sans-serif" font-size="14" lengthAdjust="spacing" textLength="54" x="358.6719" y="567.8467">Column</text><line style="stroke:#181818;stroke-width:0.5;" x1="330.6719" x2="414.6719" y1="579" y2="579"/><line style="stroke:#181818;stroke-width:0.5;" x1="330.6719" x2="414.6719" y1="587" y2="587"/></g><!--link ConnectFour to Board--><g id="link_ConnectFour_Board"><path codeLine="17" d="M340.4862,64.9152 C329.3592,80.9072 322.4399,93.302 314.6719,115 C287.5319,190.805 281.6015,281.3429 280.2395,324.8729 " fill="none" id="ConnectFour-Board" style="stroke:#181818;stroke-width:1.0;"/><polygon fill="#181818" points="347.3399,55.065,340.6297,57.7056,340.4862,64.9152,347.1965,62.2747,347.3399,55.065" style="stroke:#181818;stroke-width:1.0;"/><polygon fill="#181818" points="280.0519,330.87,284.3314,321.9995,280.2083,325.8724,276.3353,321.7493,280.0519,330.87" style="stroke:#181818;stroke-width:1.0;"/></g><!--link ConnectFour to Player--><g id="link_ConnectFour_Player"><path codeLine="18" d="M388.4086,65.033 C399.3116,81.046 406.0549,93.377 413.6719,115 C426.4219,151.198 430.3136,189.925 431.6926,216.643 " fill="none" id="ConnectFour-Player" style="stroke:#181818;stroke-width:1.0;"/><polygon fill="#181818" points="381.6549,55.114,381.7254,62.3248,388.4086,65.033,388.3381,57.8223,381.6549,55.114" style="stroke:#181818;stroke-width:1.0;"/><polygon fill="#181818" points="432.0019,222.635,435.5327,213.4408,431.7442,217.6416,427.5433,213.8531,432.0019,222.635" style="stroke:#181818;stroke-width:1.0;"/><text fill="#000000" font-family="sans-serif" font-size="13" lengthAdjust="spacing" textLength="8" x="422.8636" y="211.951">2</text></g><!--link ConnectFour to Turn--><g id="link_ConnectFour_Turn"><path codeLine="19" d="M364.6719,67 C364.6719,84.658 364.6719,90.941 364.6719,108.678 " fill="none" id="ConnectFour-Turn" style="stroke:#181818;stroke-width:1.0;"/><polygon fill="#181818" points="364.6719,55,360.6719,61,364.6719,67,368.6719,61,364.6719,55" style="stroke:#181818;stroke-width:1.0;"/><polygon fill="#181818" points="364.6719,114.678,368.6719,105.678,364.6719,109.678,360.6719,105.678,364.6719,114.678" style="stroke:#181818;stroke-width:1.0;"/></g><!--link Turn to Player--><g id="link_Turn_Player"><path codeLine="20" d="M379.4269,163 C390.7539,180.658 403.0921,199.8909 414.4711,217.6279 " fill="none" id="Turn-to-Player" style="stroke:#181818;stroke-width:1.0;"/><polygon fill="#181818" points="417.7109,222.678,416.2179,212.943,415.011,218.4696,409.4844,217.2628,417.7109,222.678" style="stroke:#181818;stroke-width:1.0;"/><text fill="#000000" font-family="sans-serif" font-size="13" lengthAdjust="spacing" textLength="8" x="405.0892" y="212.0045">2</text></g><!--link Board to Column--><g id="link_Board_Column"><path codeLine="21" d="M230.8643,364.6631 C155.1753,379.3051 6,417.241 59.6715,487 C92.5387,529.719 245.8228,554.2444 323.6808,564.2474 " fill="none" id="Board-Column" style="stroke:#181818;stroke-width:1.0;"/><polygon fill="#181818" points="242.6459,362.384,235.9954,359.5964,230.8643,364.6631,237.5148,367.4508,242.6459,362.384" style="stroke:#181818;stroke-width:1.0;"/><polygon fill="#181818" points="329.6319,565.012,321.215,559.8977,324.6727,564.3748,320.1956,567.8325,329.6319,565.012" style="stroke:#181818;stroke-width:1.0;"/><text fill="#000000" font-family="sans-serif" font-size="13" lengthAdjust="spacing" textLength="8" x="313.5469" y="559.7721">6</text></g><!--link Square to Token--><g id="link_Square_Token"><path codeLine="22" d="M449.0778,705.8249 C487.0398,724.8959 527.1984,745.0706 564.5324,763.8256 " fill="none" id="Square-Token" style="stroke:#181818;stroke-width:1.0;"/><polygon fill="none" points="438.3549,700.438,441.9207,706.7058,449.0778,705.8249,445.512,699.5571,438.3549,700.438" style="stroke:#181818;stroke-width:1.0;"/><polygon fill="#181818" points="569.8939,766.519,563.6472,758.9046,565.426,764.2745,560.0561,766.0533,569.8939,766.519" style="stroke:#181818;stroke-width:1.0;"/><text fill="#000000" font-family="sans-serif" font-size="13" lengthAdjust="spacing" textLength="24" x="538.1185" y="759.3115">0..1</text></g><!--link Player to Token--><g id="link_Player_Token"><path codeLine="23" d="M482.201,262.6656 C555.752,286.4456 698.6719,346.423 698.6719,462 C698.6719,462 698.6719,462 698.6719,572 C698.6719,646.564 655.0752,720.1763 629.0042,758.0133 " fill="none" id="Player-Token" style="stroke:#181818;stroke-width:1.0;"/><polygon fill="#181818" points="470.7829,258.974,475.2614,264.6258,482.201,262.6656,477.7225,257.0138,470.7829,258.974" style="stroke:#181818;stroke-width:1.0;"/><polygon fill="#181818" points="625.5999,762.954,634.0002,757.8125,628.4368,758.8367,627.4126,753.2734,625.5999,762.954" style="stroke:#181818;stroke-width:1.0;"/><text fill="#000000" font-family="sans-serif" font-size="13" lengthAdjust="spacing" textLength="16" x="611.8877" y="751.9542">21</text></g><!--link Player to Color--><g id="link_Player_Color"><path codeLine="24" d="M482.489,255.8479 C570.623,271.5429 769.6719,321.654 769.6719,462 C769.6719,462 769.6719,462 769.6719,680 C769.6719,753.491 730.5121,827.41 707.0481,865.595 " fill="none" id="Player-Color" style="stroke:#181818;stroke-width:1.0;"/><polygon fill="#181818" points="470.6749,253.744,475.8807,258.734,482.489,255.8479,477.2833,250.8579,470.6749,253.744" style="stroke:#181818;stroke-width:1.0;"/><polygon fill="#181818" points="703.9069,870.707,712.0268,865.1331,706.5246,866.447,705.2108,860.9448,703.9069,870.707" style="stroke:#181818;stroke-width:1.0;"/></g><!--link Player to Board--><g id="link_Player_Board"><path codeLine="25" d="M399.4729,271 C373.8979,288.719 343.6269,309.6911 318.0009,327.4451 " fill="none" id="Player-to-Board" style="stroke:#181818;stroke-width:1.0;"/><polygon fill="#181818" points="313.0689,330.862,322.7448,329.0246,317.1789,328.0145,318.1889,322.4486,313.0689,330.862" style="stroke:#181818;stroke-width:1.0;"/></g><!--link Token to Color--><g id="link_Token_Color"><path codeLine="26" d="M633.2589,820.5782 C646.5859,838.2362 654.0695,848.1518 667.4555,865.8888 " fill="none" id="Token-Color" style="stroke:#181818;stroke-width:1.0;"/><polygon fill="#181818" points="626.0299,811,626.4516,818.1988,633.2589,820.5782,632.8371,813.3795,626.0299,811" style="stroke:#181818;stroke-width:1.0;"/><polygon fill="#181818" points="671.0699,870.678,668.8411,861.0846,668.0579,866.687,662.4556,865.9038,671.0699,870.678" style="stroke:#181818;stroke-width:1.0;"/><text fill="#000000" font-family="sans-serif" font-size="13" lengthAdjust="spacing" textLength="8" x="657.8044" y="860.0045">1</text></g><!--link Column to Square--><g id="link_Column_Square"><path codeLine="27" d="M380.8507,606.6795 C385.0157,624.3375 386.6107,631.1012 390.7937,648.8382 " fill="none" id="Column-Square" style="stroke:#181818;stroke-width:1.0;"/><polygon fill="#181818" points="378.0959,595,375.5802,601.758,380.8507,606.6795,383.3665,599.9215,378.0959,595" style="stroke:#181818;stroke-width:1.0;"/><polygon fill="#181818" points="392.1709,654.678,393.9983,645.0002,391.0232,649.8115,386.2119,646.8365,392.1709,654.678" style="stroke:#181818;stroke-width:1.0;"/><text fill="#000000" font-family="sans-serif" font-size="13" lengthAdjust="spacing" textLength="8" x="381.855" y="644.0045">7</text></g><!--reverse link Color to Red--><g id="link_Color_Red"><path codeLine="28" d="M669.4607,935.1604 C660.7987,952.8188 656.8139,960.9408 648.1119,978.6784 " fill="none" id="Color-backto-Red" style="stroke:#181818;stroke-width:1.0;"/><polygon fill="none" points="677.3879,919,664.0739,932.518,674.8475,937.8028,677.3879,919" style="stroke:#181818;stroke-width:1.0;"/></g><!--reverse link Color to Yellow--><g id="link_Color_Yellow"><path codeLine="29" d="M707.8821,935.1604 C716.5441,952.8188 720.5289,960.9408 729.2309,978.6784 " fill="none" id="Color-backto-Yellow" style="stroke:#181818;stroke-width:1.0;"/><polygon fill="none" points="699.9549,919,702.4953,937.8028,713.2689,932.518,699.9549,919" style="stroke:#181818;stroke-width:1.0;"/></g><!--reverse link Goal to Horizontal--><g id="link_Goal_Horizontal"><path codeLine="30" d="M447.7528,382.4073 C480.2668,400.2653 514.7999,419.231 550.4559,438.814 " fill="none" id="Goal-backto-Horizontal" style="stroke:#181818;stroke-width:1.0;"/><polygon fill="none" points="431.9759,373.742,444.8644,387.6663,450.6413,377.1484,431.9759,373.742" style="stroke:#181818;stroke-width:1.0;"/></g><!--reverse link Goal to Vertical--><g id="link_Goal_Vertical"><path codeLine="31" d="M350.6911,374.676 C300.9531,393.641 222.0749,423.717 165.8729,445.146 " fill="none" id="Goal-backto-Vertical" style="stroke:#181818;stroke-width:1.0;"/><polygon fill="none" points="367.5099,368.263,348.5534,369.0697,352.8287,380.2823,367.5099,368.263" style="stroke:#181818;stroke-width:1.0;"/></g><!--reverse link Goal to Diagonal--><g id="link_Goal_Diagonal"><path codeLine="32" d="M352.6714,388.7761 C327.2254,406.5211 306.6139,420.895 280.9109,438.82 " fill="none" id="Goal-backto-Diagonal" style="stroke:#181818;stroke-width:1.0;"/><polygon fill="none" points="367.4359,378.48,349.2394,383.8546,356.1035,393.6976,367.4359,378.48" style="stroke:#181818;stroke-width:1.0;"/></g><!--link Player to Goal--><g id="link_Player_Goal"><path codeLine="35" d="M421.9441,282.4577 C416.4471,300.1157 414.2374,307.2122 408.7154,324.9492 " fill="none" id="Player-Goal" style="stroke:#181818;stroke-width:1.0;"/><polygon fill="none" points="425.5109,271,419.9083,275.5399,421.9441,282.4577,427.5467,277.9178,425.5109,271" style="stroke:#181818;stroke-width:1.0;"/><polygon fill="#181818" points="406.9319,330.678,413.4264,323.2738,408.4182,325.904,405.788,320.8958,406.9319,330.678" style="stroke:#181818;stroke-width:1.0;"/></g><!--link Goal to PutAction--><g id="link_Goal_PutAction"><path codeLine="36" d="M411.1719,379 C420.0009,396.658 429.4585,415.5745 438.3275,433.3115 " fill="none" id="Goal-to-PutAction" style="stroke:#181818;stroke-width:1.0;stroke-dasharray:7.0,7.0;"/><polygon fill="#181818" points="441.0109,438.678,440.5635,428.8393,438.7747,434.2059,433.4081,432.4172,441.0109,438.678" style="stroke:#181818;stroke-width:1.0;"/></g><!--link Goal to Column--><g id="link_Goal_Column"><path codeLine="37" d="M394.5229,379.145 C391.0019,395.733 386.4799,418.648 383.6719,439 C378.4939,476.531 375.7554,514.4812 374.2234,540.7372 " fill="none" id="Goal-to-Column" style="stroke:#181818;stroke-width:1.0;stroke-dasharray:7.0,7.0;"/><polygon fill="#181818" points="373.8739,546.727,378.3914,537.9753,374.1651,541.7355,370.4049,537.5093,373.8739,546.727" style="stroke:#181818;stroke-width:1.0;"/><text fill="#000000" font-family="sans-serif" font-size="13" lengthAdjust="spacing" textLength="24" x="347.2419" y="536.0654">1..4</text></g><!--link PutAction to Token--><g id="link_PutAction_Token"><path codeLine="38" d="M463.8909,487.157 C492.6039,546.425 565.8969,697.7093 594.7289,757.2203 " fill="none" id="PutAction-to-Token" style="stroke:#181818;stroke-width:1.0;stroke-dasharray:7.0,7.0;"/><polygon fill="#181818" points="597.3449,762.62,597.0206,752.7765,595.1649,758.1203,589.8211,756.2645,597.3449,762.62" style="stroke:#181818;stroke-width:1.0;"/></g><!--link PutAction to Column--><g id="link_PutAction_Column"><path codeLine="39" d="M435.3129,487 C421.9859,504.658 407.2744,524.1519 393.8874,541.8889 " fill="none" id="PutAction-to-Column" style="stroke:#181818;stroke-width:1.0;stroke-dasharray:7.0,7.0;"/><polygon fill="#181818" points="390.2729,546.678,398.8874,541.9041,393.285,542.6871,392.502,537.0847,390.2729,546.678" style="stroke:#181818;stroke-width:1.0;"/></g><!--SRC=[TL9DIqGX5DtxAyHbeFI6g4qyg8cfPLG4BSMH6Scyv2X3qO_l-N7LeZQFUyyvwZtdFcNbuK3Nu9nMOGFH4vMHUoi_D3RN8FssrhSWRIsVu5KxhAF7yWwy-GGNckvP-s1KQs-Ct85hxHeiu4EFxr5wNPi7ZM- -Q6lXY9F5SAM20TVFnpT7oE21qXE-XQFZSncT_aEo5KEZew3nsLJwq3zEb9lxNUSCHoakAF04dmeniHfLEVbZWDzSeqei5UNeX6JnSC74ghAylJ09lM0rokHyOUdb5-SvqA6jgQQ55c1ON0VRyZhK5aXmlcmr_nbP9SGyhAb1R1BYhANK15Huizk7HL2Jw8IOg_eR]--></g></svg>