<?xml version="1.0" encoding="us-ascii" standalone="no"?><svg xmlns="http://www.w3.org/2000/svg" xmlns:xlink="http://www.w3.org/1999/xlink" contentStyleType="text/css" height="1059px" preserveAspectRatio="none" style="width:1046px;height:1059px;background:#FFFFFF;" version="1.1" viewBox="0 0 1046 1059" width="1046px" zoomAndPan="magnify"><defs/><g><!--class ConnectFour--><g id="elem_ConnectFour"><rect codeLine="1" fill="#F1F1F1" height="48" id="ConnectFour" rx="2.5" ry="2.5" style="stroke:#181818;stroke-width:0.5;" width="124" x="465.5205" y="7"/><ellipse cx="480.5205" cy="23" fill="#ADD1B2" rx="11" ry="11" style="stroke:#181818;stroke-width:1.0;"/><path d="M482.8643,18.6719 C481.9268,18.2344 481.333,18.0938 480.458,18.0938 C477.833,18.0938 475.833,20.1719 475.833,22.8906 L475.833,24.0156 C475.833,26.5938 477.9424,28.4844 480.833,28.4844 C482.0518,28.4844 483.208,28.1875 483.958,27.6406 C484.5361,27.2344 484.8643,26.7813 484.8643,26.3906 C484.8643,25.9375 484.4736,25.5469 484.0049,25.5469 C483.7861,25.5469 483.583,25.625 483.3955,25.8125 C482.9424,26.2969 482.9424,26.2969 482.7549,26.3906 C482.333,26.6563 481.6455,26.7813 480.8799,26.7813 C478.833,26.7813 477.5361,25.6875 477.5361,23.9844 L477.5361,22.8906 C477.5361,21.1094 478.7861,19.7969 480.5205,19.7969 C481.0986,19.7969 481.708,19.9531 482.1768,20.2031 C482.6611,20.4844 482.833,20.7031 482.9268,21.1094 C482.9893,21.5156 483.0205,21.6406 483.1611,21.7656 C483.3018,21.9063 483.5361,22.0156 483.7549,22.0156 C484.0205,22.0156 484.2861,21.875 484.458,21.6563 C484.5674,21.5 484.5986,21.3125 484.5986,20.8906 L484.5986,19.4688 C484.5986,19.0313 484.583,18.9063 484.4893,18.75 C484.333,18.4844 484.0518,18.3438 483.7549,18.3438 C483.458,18.3438 483.2549,18.4375 483.0361,18.75 L482.8643,18.6719 Z " fill="#000000"/><text fill="#000000" font-family="sans-serif" font-size="14" lengthAdjust="spacing" textLength="92" x="494.5205" y="27.8467">ConnectFour</text><line style="stroke:#181818;stroke-width:0.5;" x1="466.5205" x2="588.5205" y1="39" y2="39"/><line style="stroke:#181818;stroke-width:0.5;" x1="466.5205" x2="588.5205" y1="47" y2="47"/></g><!--class Player--><g id="elem_Player"><rect codeLine="2" fill="#F1F1F1" height="48" id="Player" rx="2.5" ry="2.5" style="stroke:#181818;stroke-width:0.5;" width="76" x="541.5205" y="225"/><ellipse cx="556.5205" cy="241" fill="#ADD1B2" rx="11" ry="11" style="stroke:#181818;stroke-width:1.0;"/><path d="M558.8643,236.6719 C557.9268,236.2344 557.333,236.0938 556.458,236.0938 C553.833,236.0938 551.833,238.1719 551.833,240.8906 L551.833,242.0156 C551.833,244.5938 553.9424,246.4844 556.833,246.4844 C558.0518,246.4844 559.208,246.1875 559.958,245.6406 C560.5361,245.2344 560.8643,244.7813 560.8643,244.3906 C560.8643,243.9375 560.4736,243.5469 560.0049,243.5469 C559.7861,243.5469 559.583,243.625 559.3955,243.8125 C558.9424,244.2969 558.9424,244.2969 558.7549,244.3906 C558.333,244.6563 557.6455,244.7813 556.8799,244.7813 C554.833,244.7813 553.5361,243.6875 553.5361,241.9844 L553.5361,240.8906 C553.5361,239.1094 554.7861,237.7969 556.5205,237.7969 C557.0986,237.7969 557.708,237.9531 558.1768,238.2031 C558.6611,238.4844 558.833,238.7031 558.9268,239.1094 C558.9893,239.5156 559.0205,239.6406 559.1611,239.7656 C559.3018,239.9063 559.5361,240.0156 559.7549,240.0156 C560.0205,240.0156 560.2861,239.875 560.458,239.6563 C560.5674,239.5 560.5986,239.3125 560.5986,238.8906 L560.5986,237.4688 C560.5986,237.0313 560.583,236.9063 560.4893,236.75 C560.333,236.4844 560.0518,236.3438 559.7549,236.3438 C559.458,236.3438 559.2549,236.4375 559.0361,236.75 L558.8643,236.6719 Z " fill="#000000"/><text fill="#000000" font-family="sans-serif" font-size="14" lengthAdjust="spacing" textLength="44" x="570.5205" y="245.8467">Player</text><line style="stroke:#181818;stroke-width:0.5;" x1="542.5205" x2="616.5205" y1="257" y2="257"/><line style="stroke:#181818;stroke-width:0.5;" x1="542.5205" x2="616.5205" y1="265" y2="265"/></g><!--class Board--><g id="elem_Board"><rect codeLine="3" fill="#F1F1F1" height="48" id="Board" rx="2.5" ry="2.5" style="stroke:#181818;stroke-width:0.5;" width="74" x="405.5205" y="334"/><ellipse cx="420.5205" cy="350" fill="#ADD1B2" rx="11" ry="11" style="stroke:#181818;stroke-width:1.0;"/><path d="M422.8643,345.6719 C421.9268,345.2344 421.333,345.0938 420.458,345.0938 C417.833,345.0938 415.833,347.1719 415.833,349.8906 L415.833,351.0156 C415.833,353.5938 417.9424,355.4844 420.833,355.4844 C422.0518,355.4844 423.208,355.1875 423.958,354.6406 C424.5361,354.2344 424.8643,353.7813 424.8643,353.3906 C424.8643,352.9375 424.4736,352.5469 424.0049,352.5469 C423.7861,352.5469 423.583,352.625 423.3955,352.8125 C422.9424,353.2969 422.9424,353.2969 422.7549,353.3906 C422.333,353.6563 421.6455,353.7813 420.8799,353.7813 C418.833,353.7813 417.5361,352.6875 417.5361,350.9844 L417.5361,349.8906 C417.5361,348.1094 418.7861,346.7969 420.5205,346.7969 C421.0986,346.7969 421.708,346.9531 422.1768,347.2031 C422.6611,347.4844 422.833,347.7031 422.9268,348.1094 C422.9893,348.5156 423.0205,348.6406 423.1611,348.7656 C423.3018,348.9063 423.5361,349.0156 423.7549,349.0156 C424.0205,349.0156 424.2861,348.875 424.458,348.6563 C424.5674,348.5 424.5986,348.3125 424.5986,347.8906 L424.5986,346.4688 C424.5986,346.0313 424.583,345.9063 424.4893,345.75 C424.333,345.4844 424.0518,345.3438 423.7549,345.3438 C423.458,345.3438 423.2549,345.4375 423.0361,345.75 L422.8643,345.6719 Z " fill="#000000"/><text fill="#000000" font-family="sans-serif" font-size="14" lengthAdjust="spacing" textLength="42" x="434.5205" y="354.8467">Board</text><line style="stroke:#181818;stroke-width:0.5;" x1="406.5205" x2="478.5205" y1="366" y2="366"/><line style="stroke:#181818;stroke-width:0.5;" x1="406.5205" x2="478.5205" y1="374" y2="374"/></g><!--class Goal--><g id="elem_Goal"><rect codeLine="4" fill="#F1F1F1" height="48" id="Goal" rx="2.5" ry="2.5" style="stroke:#181818;stroke-width:0.5;" width="64" x="522.5205" y="334"/><ellipse cx="537.5205" cy="350" fill="#ADD1B2" rx="11" ry="11" style="stroke:#181818;stroke-width:1.0;"/><path d="M539.8643,345.6719 C538.9268,345.2344 538.333,345.0938 537.458,345.0938 C534.833,345.0938 532.833,347.1719 532.833,349.8906 L532.833,351.0156 C532.833,353.5938 534.9424,355.4844 537.833,355.4844 C539.0518,355.4844 540.208,355.1875 540.958,354.6406 C541.5361,354.2344 541.8643,353.7813 541.8643,353.3906 C541.8643,352.9375 541.4736,352.5469 541.0049,352.5469 C540.7861,352.5469 540.583,352.625 540.3955,352.8125 C539.9424,353.2969 539.9424,353.2969 539.7549,353.3906 C539.333,353.6563 538.6455,353.7813 537.8799,353.7813 C535.833,353.7813 534.5361,352.6875 534.5361,350.9844 L534.5361,349.8906 C534.5361,348.1094 535.7861,346.7969 537.5205,346.7969 C538.0986,346.7969 538.708,346.9531 539.1768,347.2031 C539.6611,347.4844 539.833,347.7031 539.9268,348.1094 C539.9893,348.5156 540.0205,348.6406 540.1611,348.7656 C540.3018,348.9063 540.5361,349.0156 540.7549,349.0156 C541.0205,349.0156 541.2861,348.875 541.458,348.6563 C541.5674,348.5 541.5986,348.3125 541.5986,347.8906 L541.5986,346.4688 C541.5986,346.0313 541.583,345.9063 541.4893,345.75 C541.333,345.4844 541.0518,345.3438 540.7549,345.3438 C540.458,345.3438 540.2549,345.4375 540.0361,345.75 L539.8643,345.6719 Z " fill="#000000"/><text fill="#000000" font-family="sans-serif" font-size="14" lengthAdjust="spacing" textLength="32" x="551.5205" y="354.8467">Goal</text><line style="stroke:#181818;stroke-width:0.5;" x1="523.5205" x2="585.5205" y1="366" y2="366"/><line style="stroke:#181818;stroke-width:0.5;" x1="523.5205" x2="585.5205" y1="374" y2="374"/></g><!--class Token--><g id="elem_Token"><rect codeLine="5" fill="#F1F1F1" height="48" id="Token" rx="2.5" ry="2.5" style="stroke:#181818;stroke-width:0.5;" width="77" x="827.0205" y="786"/><ellipse cx="842.0205" cy="802" fill="#ADD1B2" rx="11" ry="11" style="stroke:#181818;stroke-width:1.0;"/><path d="M844.3643,797.6719 C843.4268,797.2344 842.833,797.0938 841.958,797.0938 C839.333,797.0938 837.333,799.1719 837.333,801.8906 L837.333,803.0156 C837.333,805.5938 839.4424,807.4844 842.333,807.4844 C843.5518,807.4844 844.708,807.1875 845.458,806.6406 C846.0361,806.2344 846.3643,805.7813 846.3643,805.3906 C846.3643,804.9375 845.9736,804.5469 845.5049,804.5469 C845.2861,804.5469 845.083,804.625 844.8955,804.8125 C844.4424,805.2969 844.4424,805.2969 844.2549,805.3906 C843.833,805.6563 843.1455,805.7813 842.3799,805.7813 C840.333,805.7813 839.0361,804.6875 839.0361,802.9844 L839.0361,801.8906 C839.0361,800.1094 840.2861,798.7969 842.0205,798.7969 C842.5986,798.7969 843.208,798.9531 843.6768,799.2031 C844.1611,799.4844 844.333,799.7031 844.4268,800.1094 C844.4893,800.5156 844.5205,800.6406 844.6611,800.7656 C844.8018,800.9063 845.0361,801.0156 845.2549,801.0156 C845.5205,801.0156 845.7861,800.875 845.958,800.6563 C846.0674,800.5 846.0986,800.3125 846.0986,799.8906 L846.0986,798.4688 C846.0986,798.0313 846.083,797.9063 845.9893,797.75 C845.833,797.4844 845.5518,797.3438 845.2549,797.3438 C844.958,797.3438 844.7549,797.4375 844.5361,797.75 L844.3643,797.6719 Z " fill="#000000"/><text fill="#000000" font-family="sans-serif" font-size="14" lengthAdjust="spacing" textLength="45" x="856.0205" y="806.8467">Token</text><line style="stroke:#181818;stroke-width:0.5;" x1="828.0205" x2="903.0205" y1="818" y2="818"/><line style="stroke:#181818;stroke-width:0.5;" x1="828.0205" x2="903.0205" y1="826" y2="826"/></g><!--class Turn--><g id="elem_Turn"><rect codeLine="6" fill="#F1F1F1" height="48" id="Turn" rx="2.5" ry="2.5" style="stroke:#181818;stroke-width:0.5;" width="64" x="495.5205" y="116"/><ellipse cx="510.5205" cy="132" fill="#ADD1B2" rx="11" ry="11" style="stroke:#181818;stroke-width:1.0;"/><path d="M512.8643,127.6719 C511.9268,127.2344 511.333,127.0938 510.458,127.0938 C507.833,127.0938 505.833,129.1719 505.833,131.8906 L505.833,133.0156 C505.833,135.5938 507.9424,137.4844 510.833,137.4844 C512.0518,137.4844 513.208,137.1875 513.958,136.6406 C514.5361,136.2344 514.8643,135.7813 514.8643,135.3906 C514.8643,134.9375 514.4736,134.5469 514.0049,134.5469 C513.7861,134.5469 513.583,134.625 513.3955,134.8125 C512.9424,135.2969 512.9424,135.2969 512.7549,135.3906 C512.333,135.6563 511.6455,135.7813 510.8799,135.7813 C508.833,135.7813 507.5361,134.6875 507.5361,132.9844 L507.5361,131.8906 C507.5361,130.1094 508.7861,128.7969 510.5205,128.7969 C511.0986,128.7969 511.708,128.9531 512.1768,129.2031 C512.6611,129.4844 512.833,129.7031 512.9268,130.1094 C512.9893,130.5156 513.0205,130.6406 513.1611,130.7656 C513.3018,130.9063 513.5361,131.0156 513.7549,131.0156 C514.0205,131.0156 514.2861,130.875 514.458,130.6563 C514.5674,130.5 514.5986,130.3125 514.5986,129.8906 L514.5986,128.4688 C514.5986,128.0313 514.583,127.9063 514.4893,127.75 C514.333,127.4844 514.0518,127.3438 513.7549,127.3438 C513.458,127.3438 513.2549,127.4375 513.0361,127.75 L512.8643,127.6719 Z " fill="#000000"/><text fill="#000000" font-family="sans-serif" font-size="14" lengthAdjust="spacing" textLength="32" x="524.5205" y="136.8467">Turn</text><line style="stroke:#181818;stroke-width:0.5;" x1="496.5205" x2="558.5205" y1="148" y2="148"/><line style="stroke:#181818;stroke-width:0.5;" x1="496.5205" x2="558.5205" y1="156" y2="156"/></g><!--class Horizontal--><g id="elem_Horizontal"><rect codeLine="7" fill="#F1F1F1" height="48" id="Horizontal" rx="2.5" ry="2.5" style="stroke:#181818;stroke-width:0.5;" width="106" x="298.5205" y="443"/><ellipse cx="313.5205" cy="459" fill="#ADD1B2" rx="11" ry="11" style="stroke:#181818;stroke-width:1.0;"/><path d="M315.8642,454.6719 C314.9267,454.2344 314.333,454.0938 313.458,454.0938 C310.833,454.0938 308.833,456.1719 308.833,458.8906 L308.833,460.0156 C308.833,462.5938 310.9424,464.4844 313.833,464.4844 C315.0517,464.4844 316.208,464.1875 316.958,463.6406 C317.5361,463.2344 317.8642,462.7813 317.8642,462.3906 C317.8642,461.9375 317.4736,461.5469 317.0049,461.5469 C316.7861,461.5469 316.583,461.625 316.3955,461.8125 C315.9424,462.2969 315.9424,462.2969 315.7549,462.3906 C315.333,462.6563 314.6455,462.7813 313.8799,462.7813 C311.833,462.7813 310.5361,461.6875 310.5361,459.9844 L310.5361,458.8906 C310.5361,457.1094 311.7861,455.7969 313.5205,455.7969 C314.0986,455.7969 314.708,455.9531 315.1767,456.2031 C315.6611,456.4844 315.833,456.7031 315.9267,457.1094 C315.9892,457.5156 316.0205,457.6406 316.1611,457.7656 C316.3017,457.9063 316.5361,458.0156 316.7549,458.0156 C317.0205,458.0156 317.2861,457.875 317.458,457.6563 C317.5674,457.5 317.5986,457.3125 317.5986,456.8906 L317.5986,455.4688 C317.5986,455.0313 317.583,454.9063 317.4892,454.75 C317.333,454.4844 317.0517,454.3438 316.7549,454.3438 C316.458,454.3438 316.2549,454.4375 316.0361,454.75 L315.8642,454.6719 Z " fill="#000000"/><text fill="#000000" font-family="sans-serif" font-size="14" lengthAdjust="spacing" textLength="74" x="327.5205" y="463.8467">Horizontal</text><line style="stroke:#181818;stroke-width:0.5;" x1="299.5205" x2="403.5205" y1="475" y2="475"/><line style="stroke:#181818;stroke-width:0.5;" x1="299.5205" x2="403.5205" y1="483" y2="483"/></g><!--class Vertical--><g id="elem_Vertical"><rect codeLine="8" fill="#F1F1F1" height="48" id="Vertical" rx="2.5" ry="2.5" style="stroke:#181818;stroke-width:0.5;" width="88" x="510.5205" y="443"/><ellipse cx="525.5205" cy="459" fill="#ADD1B2" rx="11" ry="11" style="stroke:#181818;stroke-width:1.0;"/><path d="M527.8643,454.6719 C526.9268,454.2344 526.333,454.0938 525.458,454.0938 C522.833,454.0938 520.833,456.1719 520.833,458.8906 L520.833,460.0156 C520.833,462.5938 522.9424,464.4844 525.833,464.4844 C527.0518,464.4844 528.208,464.1875 528.958,463.6406 C529.5361,463.2344 529.8643,462.7813 529.8643,462.3906 C529.8643,461.9375 529.4736,461.5469 529.0049,461.5469 C528.7861,461.5469 528.583,461.625 528.3955,461.8125 C527.9424,462.2969 527.9424,462.2969 527.7549,462.3906 C527.333,462.6563 526.6455,462.7813 525.8799,462.7813 C523.833,462.7813 522.5361,461.6875 522.5361,459.9844 L522.5361,458.8906 C522.5361,457.1094 523.7861,455.7969 525.5205,455.7969 C526.0986,455.7969 526.708,455.9531 527.1768,456.2031 C527.6611,456.4844 527.833,456.7031 527.9268,457.1094 C527.9893,457.5156 528.0205,457.6406 528.1611,457.7656 C528.3018,457.9063 528.5361,458.0156 528.7549,458.0156 C529.0205,458.0156 529.2861,457.875 529.458,457.6563 C529.5674,457.5 529.5986,457.3125 529.5986,456.8906 L529.5986,455.4688 C529.5986,455.0313 529.583,454.9063 529.4893,454.75 C529.333,454.4844 529.0518,454.3438 528.7549,454.3438 C528.458,454.3438 528.2549,454.4375 528.0361,454.75 L527.8643,454.6719 Z " fill="#000000"/><text fill="#000000" font-family="sans-serif" font-size="14" lengthAdjust="spacing" textLength="56" x="539.5205" y="463.8467">Vertical</text><line style="stroke:#181818;stroke-width:0.5;" x1="511.5205" x2="597.5205" y1="475" y2="475"/><line style="stroke:#181818;stroke-width:0.5;" x1="511.5205" x2="597.5205" y1="483" y2="483"/></g><!--class Diagonal--><g id="elem_Diagonal"><rect codeLine="9" fill="#F1F1F1" height="48" id="Diagonal" rx="2.5" ry="2.5" style="stroke:#181818;stroke-width:0.5;" width="94" x="633.5205" y="443"/><ellipse cx="648.5205" cy="459" fill="#ADD1B2" rx="11" ry="11" style="stroke:#181818;stroke-width:1.0;"/><path d="M650.8643,454.6719 C649.9268,454.2344 649.333,454.0938 648.458,454.0938 C645.833,454.0938 643.833,456.1719 643.833,458.8906 L643.833,460.0156 C643.833,462.5938 645.9424,464.4844 648.833,464.4844 C650.0518,464.4844 651.208,464.1875 651.958,463.6406 C652.5361,463.2344 652.8643,462.7813 652.8643,462.3906 C652.8643,461.9375 652.4736,461.5469 652.0049,461.5469 C651.7861,461.5469 651.583,461.625 651.3955,461.8125 C650.9424,462.2969 650.9424,462.2969 650.7549,462.3906 C650.333,462.6563 649.6455,462.7813 648.8799,462.7813 C646.833,462.7813 645.5361,461.6875 645.5361,459.9844 L645.5361,458.8906 C645.5361,457.1094 646.7861,455.7969 648.5205,455.7969 C649.0986,455.7969 649.708,455.9531 650.1768,456.2031 C650.6611,456.4844 650.833,456.7031 650.9268,457.1094 C650.9893,457.5156 651.0205,457.6406 651.1611,457.7656 C651.3018,457.9063 651.5361,458.0156 651.7549,458.0156 C652.0205,458.0156 652.2861,457.875 652.458,457.6563 C652.5674,457.5 652.5986,457.3125 652.5986,456.8906 L652.5986,455.4688 C652.5986,455.0313 652.583,454.9063 652.4893,454.75 C652.333,454.4844 652.0518,454.3438 651.7549,454.3438 C651.458,454.3438 651.2549,454.4375 651.0361,454.75 L650.8643,454.6719 Z " fill="#000000"/><text fill="#000000" font-family="sans-serif" font-size="14" lengthAdjust="spacing" textLength="62" x="662.5205" y="463.8467">Diagonal</text><line style="stroke:#181818;stroke-width:0.5;" x1="634.5205" x2="726.5205" y1="475" y2="475"/><line style="stroke:#181818;stroke-width:0.5;" x1="634.5205" x2="726.5205" y1="483" y2="483"/></g><!--class InvertedDiagonal--><g id="elem_InvertedDiagonal"><rect codeLine="10" fill="#F1F1F1" height="48" id="InvertedDiagonal" rx="2.5" ry="2.5" style="stroke:#181818;stroke-width:0.5;" width="155" x="108.0208" y="443"/><ellipse cx="123.0208" cy="459" fill="#ADD1B2" rx="11" ry="11" style="stroke:#181818;stroke-width:1.0;"/><path d="M125.3646,454.6719 C124.4271,454.2344 123.8333,454.0938 122.9583,454.0938 C120.3333,454.0938 118.3333,456.1719 118.3333,458.8906 L118.3333,460.0156 C118.3333,462.5938 120.4427,464.4844 123.3333,464.4844 C124.5521,464.4844 125.7083,464.1875 126.4583,463.6406 C127.0364,463.2344 127.3646,462.7813 127.3646,462.3906 C127.3646,461.9375 126.9739,461.5469 126.5052,461.5469 C126.2864,461.5469 126.0833,461.625 125.8958,461.8125 C125.4427,462.2969 125.4427,462.2969 125.2552,462.3906 C124.8333,462.6563 124.1458,462.7813 123.3802,462.7813 C121.3333,462.7813 120.0364,461.6875 120.0364,459.9844 L120.0364,458.8906 C120.0364,457.1094 121.2864,455.7969 123.0208,455.7969 C123.5989,455.7969 124.2083,455.9531 124.6771,456.2031 C125.1614,456.4844 125.3333,456.7031 125.4271,457.1094 C125.4896,457.5156 125.5208,457.6406 125.6614,457.7656 C125.8021,457.9063 126.0364,458.0156 126.2552,458.0156 C126.5208,458.0156 126.7864,457.875 126.9583,457.6563 C127.0677,457.5 127.0989,457.3125 127.0989,456.8906 L127.0989,455.4688 C127.0989,455.0313 127.0833,454.9063 126.9896,454.75 C126.8333,454.4844 126.5521,454.3438 126.2552,454.3438 C125.9583,454.3438 125.7552,454.4375 125.5364,454.75 L125.3646,454.6719 Z " fill="#000000"/><text fill="#000000" font-family="sans-serif" font-size="14" lengthAdjust="spacing" textLength="123" x="137.0208" y="463.8467">InvertedDiagonal</text><line style="stroke:#181818;stroke-width:0.5;" x1="109.0208" x2="262.0208" y1="475" y2="475"/><line style="stroke:#181818;stroke-width:0.5;" x1="109.0208" x2="262.0208" y1="483" y2="483"/></g><!--class Color--><g id="elem_Color"><rect codeLine="11" fill="#F1F1F1" height="48" id="Color" rx="2.5" ry="2.5" style="stroke:#181818;stroke-width:0.5;" width="70" x="913.5205" y="895"/><ellipse cx="928.5205" cy="911" fill="#ADD1B2" rx="11" ry="11" style="stroke:#181818;stroke-width:1.0;"/><path d="M930.8643,906.6719 C929.9268,906.2344 929.333,906.0938 928.458,906.0938 C925.833,906.0938 923.833,908.1719 923.833,910.8906 L923.833,912.0156 C923.833,914.5938 925.9424,916.4844 928.833,916.4844 C930.0518,916.4844 931.208,916.1875 931.958,915.6406 C932.5361,915.2344 932.8643,914.7813 932.8643,914.3906 C932.8643,913.9375 932.4736,913.5469 932.0049,913.5469 C931.7861,913.5469 931.583,913.625 931.3955,913.8125 C930.9424,914.2969 930.9424,914.2969 930.7549,914.3906 C930.333,914.6563 929.6455,914.7813 928.8799,914.7813 C926.833,914.7813 925.5361,913.6875 925.5361,911.9844 L925.5361,910.8906 C925.5361,909.1094 926.7861,907.7969 928.5205,907.7969 C929.0986,907.7969 929.708,907.9531 930.1768,908.2031 C930.6611,908.4844 930.833,908.7031 930.9268,909.1094 C930.9893,909.5156 931.0205,909.6406 931.1611,909.7656 C931.3018,909.9063 931.5361,910.0156 931.7549,910.0156 C932.0205,910.0156 932.2861,909.875 932.458,909.6563 C932.5674,909.5 932.5986,909.3125 932.5986,908.8906 L932.5986,907.4688 C932.5986,907.0313 932.583,906.9063 932.4893,906.75 C932.333,906.4844 932.0518,906.3438 931.7549,906.3438 C931.458,906.3438 931.2549,906.4375 931.0361,906.75 L930.8643,906.6719 Z " fill="#000000"/><text fill="#000000" font-family="sans-serif" font-size="14" lengthAdjust="spacing" textLength="38" x="942.5205" y="915.8467">Color</text><line style="stroke:#181818;stroke-width:0.5;" x1="914.5205" x2="982.5205" y1="927" y2="927"/><line style="stroke:#181818;stroke-width:0.5;" x1="914.5205" x2="982.5205" y1="935" y2="935"/></g><!--class Square--><g id="elem_Square"><rect codeLine="12" fill="#F1F1F1" height="48" id="Square" rx="2.5" ry="2.5" style="stroke:#181818;stroke-width:0.5;" width="81" x="623.0205" y="677"/><ellipse cx="638.0205" cy="693" fill="#ADD1B2" rx="11" ry="11" style="stroke:#181818;stroke-width:1.0;"/><path d="M640.3643,688.6719 C639.4268,688.2344 638.833,688.0938 637.958,688.0938 C635.333,688.0938 633.333,690.1719 633.333,692.8906 L633.333,694.0156 C633.333,696.5938 635.4424,698.4844 638.333,698.4844 C639.5518,698.4844 640.708,698.1875 641.458,697.6406 C642.0361,697.2344 642.3643,696.7813 642.3643,696.3906 C642.3643,695.9375 641.9736,695.5469 641.5049,695.5469 C641.2861,695.5469 641.083,695.625 640.8955,695.8125 C640.4424,696.2969 640.4424,696.2969 640.2549,696.3906 C639.833,696.6563 639.1455,696.7813 638.3799,696.7813 C636.333,696.7813 635.0361,695.6875 635.0361,693.9844 L635.0361,692.8906 C635.0361,691.1094 636.2861,689.7969 638.0205,689.7969 C638.5986,689.7969 639.208,689.9531 639.6768,690.2031 C640.1611,690.4844 640.333,690.7031 640.4268,691.1094 C640.4893,691.5156 640.5205,691.6406 640.6611,691.7656 C640.8018,691.9063 641.0361,692.0156 641.2549,692.0156 C641.5205,692.0156 641.7861,691.875 641.958,691.6563 C642.0674,691.5 642.0986,691.3125 642.0986,690.8906 L642.0986,689.4688 C642.0986,689.0313 642.083,688.9063 641.9893,688.75 C641.833,688.4844 641.5518,688.3438 641.2549,688.3438 C640.958,688.3438 640.7549,688.4375 640.5361,688.75 L640.3643,688.6719 Z " fill="#000000"/><text fill="#000000" font-family="sans-serif" font-size="14" lengthAdjust="spacing" textLength="49" x="652.0205" y="697.8467">Square</text><line style="stroke:#181818;stroke-width:0.5;" x1="624.0205" x2="703.0205" y1="709" y2="709"/><line style="stroke:#181818;stroke-width:0.5;" x1="624.0205" x2="703.0205" y1="717" y2="717"/></g><!--class Red--><g id="elem_Red"><rect codeLine="13" fill="#F1F1F1" height="48" id="Red" rx="2.5" ry="2.5" style="stroke:#181818;stroke-width:0.5;" width="60" x="866.5205" y="1004"/><ellipse cx="881.5205" cy="1020" fill="#ADD1B2" rx="11" ry="11" style="stroke:#181818;stroke-width:1.0;"/><path d="M883.8643,1015.6719 C882.9268,1015.2344 882.333,1015.0938 881.458,1015.0938 C878.833,1015.0938 876.833,1017.1719 876.833,1019.8906 L876.833,1021.0156 C876.833,1023.5938 878.9424,1025.4844 881.833,1025.4844 C883.0518,1025.4844 884.208,1025.1875 884.958,1024.6406 C885.5361,1024.2344 885.8643,1023.7813 885.8643,1023.3906 C885.8643,1022.9375 885.4736,1022.5469 885.0049,1022.5469 C884.7861,1022.5469 884.583,1022.625 884.3955,1022.8125 C883.9424,1023.2969 883.9424,1023.2969 883.7549,1023.3906 C883.333,1023.6563 882.6455,1023.7813 881.8799,1023.7813 C879.833,1023.7813 878.5361,1022.6875 878.5361,1020.9844 L878.5361,1019.8906 C878.5361,1018.1094 879.7861,1016.7969 881.5205,1016.7969 C882.0986,1016.7969 882.708,1016.9531 883.1768,1017.2031 C883.6611,1017.4844 883.833,1017.7031 883.9268,1018.1094 C883.9893,1018.5156 884.0205,1018.6406 884.1611,1018.7656 C884.3018,1018.9063 884.5361,1019.0156 884.7549,1019.0156 C885.0205,1019.0156 885.2861,1018.875 885.458,1018.6563 C885.5674,1018.5 885.5986,1018.3125 885.5986,1017.8906 L885.5986,1016.4688 C885.5986,1016.0313 885.583,1015.9063 885.4893,1015.75 C885.333,1015.4844 885.0518,1015.3438 884.7549,1015.3438 C884.458,1015.3438 884.2549,1015.4375 884.0361,1015.75 L883.8643,1015.6719 Z " fill="#000000"/><text fill="#000000" font-family="sans-serif" font-size="14" lengthAdjust="spacing" textLength="28" x="895.5205" y="1024.8467">Red</text><line style="stroke:#181818;stroke-width:0.5;" x1="867.5205" x2="925.5205" y1="1036" y2="1036"/><line style="stroke:#181818;stroke-width:0.5;" x1="867.5205" x2="925.5205" y1="1044" y2="1044"/></g><!--class Yellow--><g id="elem_Yellow"><rect codeLine="14" fill="#F1F1F1" height="48" id="Yellow" rx="2.5" ry="2.5" style="stroke:#181818;stroke-width:0.5;" width="78" x="961.5205" y="1004"/><ellipse cx="976.5205" cy="1020" fill="#ADD1B2" rx="11" ry="11" style="stroke:#181818;stroke-width:1.0;"/><path d="M978.8643,1015.6719 C977.9268,1015.2344 977.333,1015.0938 976.458,1015.0938 C973.833,1015.0938 971.833,1017.1719 971.833,1019.8906 L971.833,1021.0156 C971.833,1023.5938 973.9424,1025.4844 976.833,1025.4844 C978.0518,1025.4844 979.208,1025.1875 979.958,1024.6406 C980.5361,1024.2344 980.8643,1023.7813 980.8643,1023.3906 C980.8643,1022.9375 980.4736,1022.5469 980.0049,1022.5469 C979.7861,1022.5469 979.583,1022.625 979.3955,1022.8125 C978.9424,1023.2969 978.9424,1023.2969 978.7549,1023.3906 C978.333,1023.6563 977.6455,1023.7813 976.8799,1023.7813 C974.833,1023.7813 973.5361,1022.6875 973.5361,1020.9844 L973.5361,1019.8906 C973.5361,1018.1094 974.7861,1016.7969 976.5205,1016.7969 C977.0986,1016.7969 977.708,1016.9531 978.1768,1017.2031 C978.6611,1017.4844 978.833,1017.7031 978.9268,1018.1094 C978.9893,1018.5156 979.0205,1018.6406 979.1611,1018.7656 C979.3018,1018.9063 979.5361,1019.0156 979.7549,1019.0156 C980.0205,1019.0156 980.2861,1018.875 980.458,1018.6563 C980.5674,1018.5 980.5986,1018.3125 980.5986,1017.8906 L980.5986,1016.4688 C980.5986,1016.0313 980.583,1015.9063 980.4893,1015.75 C980.333,1015.4844 980.0518,1015.3438 979.7549,1015.3438 C979.458,1015.3438 979.2549,1015.4375 979.0361,1015.75 L978.8643,1015.6719 Z " fill="#000000"/><text fill="#000000" font-family="sans-serif" font-size="14" lengthAdjust="spacing" textLength="46" x="990.5205" y="1024.8467">Yellow</text><line style="stroke:#181818;stroke-width:0.5;" x1="962.5205" x2="1038.5205" y1="1036" y2="1036"/><line style="stroke:#181818;stroke-width:0.5;" x1="962.5205" x2="1038.5205" y1="1044" y2="1044"/></g><!--class PutAction--><g id="elem_PutAction"><rect codeLine="15" fill="#F1F1F1" height="48" id="PutAction" rx="2.5" ry="2.5" style="stroke:#181818;stroke-width:0.5;" width="103" x="763.0205" y="443"/><ellipse cx="778.0205" cy="459" fill="#ADD1B2" rx="11" ry="11" style="stroke:#181818;stroke-width:1.0;"/><path d="M780.3643,454.6719 C779.4268,454.2344 778.833,454.0938 777.958,454.0938 C775.333,454.0938 773.333,456.1719 773.333,458.8906 L773.333,460.0156 C773.333,462.5938 775.4424,464.4844 778.333,464.4844 C779.5518,464.4844 780.708,464.1875 781.458,463.6406 C782.0361,463.2344 782.3643,462.7813 782.3643,462.3906 C782.3643,461.9375 781.9736,461.5469 781.5049,461.5469 C781.2861,461.5469 781.083,461.625 780.8955,461.8125 C780.4424,462.2969 780.4424,462.2969 780.2549,462.3906 C779.833,462.6563 779.1455,462.7813 778.3799,462.7813 C776.333,462.7813 775.0361,461.6875 775.0361,459.9844 L775.0361,458.8906 C775.0361,457.1094 776.2861,455.7969 778.0205,455.7969 C778.5986,455.7969 779.208,455.9531 779.6768,456.2031 C780.1611,456.4844 780.333,456.7031 780.4268,457.1094 C780.4893,457.5156 780.5205,457.6406 780.6611,457.7656 C780.8018,457.9063 781.0361,458.0156 781.2549,458.0156 C781.5205,458.0156 781.7861,457.875 781.958,457.6563 C782.0674,457.5 782.0986,457.3125 782.0986,456.8906 L782.0986,455.4688 C782.0986,455.0313 782.083,454.9063 781.9893,454.75 C781.833,454.4844 781.5518,454.3438 781.2549,454.3438 C780.958,454.3438 780.7549,454.4375 780.5361,454.75 L780.3643,454.6719 Z " fill="#000000"/><text fill="#000000" font-family="sans-serif" font-size="14" lengthAdjust="spacing" textLength="71" x="792.0205" y="463.8467">PutAction</text><line style="stroke:#181818;stroke-width:0.5;" x1="764.0205" x2="865.0205" y1="475" y2="475"/><line style="stroke:#181818;stroke-width:0.5;" x1="764.0205" x2="865.0205" y1="483" y2="483"/></g><!--class Column--><g id="elem_Column"><rect codeLine="16" fill="#F1F1F1" height="48" id="Column" rx="2.5" ry="2.5" style="stroke:#181818;stroke-width:0.5;" width="86" x="443.5205" y="568"/><ellipse cx="458.5205" cy="584" fill="#ADD1B2" rx="11" ry="11" style="stroke:#181818;stroke-width:1.0;"/><path d="M460.8643,579.6719 C459.9268,579.2344 459.333,579.0938 458.458,579.0938 C455.833,579.0938 453.833,581.1719 453.833,583.8906 L453.833,585.0156 C453.833,587.5938 455.9424,589.4844 458.833,589.4844 C460.0518,589.4844 461.208,589.1875 461.958,588.6406 C462.5361,588.2344 462.8643,587.7813 462.8643,587.3906 C462.8643,586.9375 462.4736,586.5469 462.0049,586.5469 C461.7861,586.5469 461.583,586.625 461.3955,586.8125 C460.9424,587.2969 460.9424,587.2969 460.7549,587.3906 C460.333,587.6563 459.6455,587.7813 458.8799,587.7813 C456.833,587.7813 455.5361,586.6875 455.5361,584.9844 L455.5361,583.8906 C455.5361,582.1094 456.7861,580.7969 458.5205,580.7969 C459.0986,580.7969 459.708,580.9531 460.1768,581.2031 C460.6611,581.4844 460.833,581.7031 460.9268,582.1094 C460.9893,582.5156 461.0205,582.6406 461.1611,582.7656 C461.3018,582.9063 461.5361,583.0156 461.7549,583.0156 C462.0205,583.0156 462.2861,582.875 462.458,582.6563 C462.5674,582.5 462.5986,582.3125 462.5986,581.8906 L462.5986,580.4688 C462.5986,580.0313 462.583,579.9063 462.4893,579.75 C462.333,579.4844 462.0518,579.3438 461.7549,579.3438 C461.458,579.3438 461.2549,579.4375 461.0361,579.75 L460.8643,579.6719 Z " fill="#000000"/><text fill="#000000" font-family="sans-serif" font-size="14" lengthAdjust="spacing" textLength="54" x="472.5205" y="588.8467">Column</text><line style="stroke:#181818;stroke-width:0.5;" x1="444.5205" x2="528.5205" y1="600" y2="600"/><line style="stroke:#181818;stroke-width:0.5;" x1="444.5205" x2="528.5205" y1="608" y2="608"/></g><!--link ConnectFour to Board--><g id="link_ConnectFour_Board"><path codeLine="18" d="M503.6254,64.9018 C492.4564,81.1238 485.3435,93.925 477.5205,116 C450.4065,192.514 444.4639,283.8219 443.0929,327.6929 " fill="none" id="ConnectFour-Board" style="stroke:#181818;stroke-width:1.0;"/><polygon fill="#181818" points="510.4305,55.018,503.7333,57.6915,503.6254,64.9018,510.3226,62.2283,510.4305,55.018" style="stroke:#181818;stroke-width:1.0;"/><polygon fill="#181818" points="442.9055,333.69,447.1847,324.8193,443.0617,328.6924,439.1886,324.5694,442.9055,333.69" style="stroke:#181818;stroke-width:1.0;"/></g><!--link ConnectFour to Player--><g id="link_ConnectFour_Player"><path codeLine="19" d="M552.1101,65.0271 C563.3371,81.1421 570.0565,93.792 576.5205,116 C587.2195,152.755 585.8311,191.7585 583.1591,218.5875 " fill="none" id="ConnectFour-Player" style="stroke:#181818;stroke-width:1.0;"/><polygon fill="#181818" points="545.2505,55.181,545.3983,62.3906,552.1101,65.0271,551.9623,57.8175,545.2505,55.181" style="stroke:#181818;stroke-width:1.0;"/><polygon fill="#181818" points="582.5645,224.558,587.4367,215.9987,583.06,219.5826,579.4761,215.2059,582.5645,224.558" style="stroke:#181818;stroke-width:1.0;"/><text fill="#000000" font-family="sans-serif" font-size="13" lengthAdjust="spacing" textLength="8" x="574.3315" y="213.8552">2</text></g><!--link ConnectFour to Turn--><g id="link_ConnectFour_Turn"><path codeLine="20" d="M527.5205,67.217 C527.5205,85.165 527.5205,91.892 527.5205,109.828 " fill="none" id="ConnectFour-Turn" style="stroke:#181818;stroke-width:1.0;"/><polygon fill="#181818" points="527.5205,55.217,523.5205,61.217,527.5205,67.217,531.5205,61.217,527.5205,55.217" style="stroke:#181818;stroke-width:1.0;"/><polygon fill="#181818" points="527.5205,115.828,531.5205,106.828,527.5205,110.828,523.5205,106.828,527.5205,115.828" style="stroke:#181818;stroke-width:1.0;"/></g><!--link Turn to Player--><g id="link_Turn_Player"><path codeLine="21" d="M538.8045,164.217 C547.5265,182.165 556.921,201.4955 565.637,219.4315 " fill="none" id="Turn-to-Player" style="stroke:#181818;stroke-width:1.0;"/><polygon fill="#181818" points="568.2595,224.828,567.9235,214.9849,566.0741,220.3309,560.7281,218.4815,568.2595,224.828" style="stroke:#181818;stroke-width:1.0;"/><text fill="#000000" font-family="sans-serif" font-size="13" lengthAdjust="spacing" textLength="8" x="556.3489" y="213.796">2</text></g><!--link Board to Column--><g id="link_Board_Column"><path codeLine="22" d="M393.4998,360.1305 C287.2078,363.5645 6,382.482 90.5208,491 C133.9833,546.802 344.2339,575.7019 437.5549,586.0309 " fill="none" id="Board-Column" style="stroke:#181818;stroke-width:1.0;"/><polygon fill="#181818" points="405.4935,359.743,399.3675,355.9388,393.4998,360.1305,399.6258,363.9347,405.4935,359.743" style="stroke:#181818;stroke-width:1.0;"/><polygon fill="#181818" points="443.5185,586.691,435.0132,581.7252,438.5488,586.1409,434.1331,589.6766,443.5185,586.691" style="stroke:#181818;stroke-width:1.0;"/><text fill="#000000" font-family="sans-serif" font-size="13" lengthAdjust="spacing" textLength="8" x="427.44" y="581.5678">7</text></g><!--link Square to Token--><g id="link_Square_Token"><path codeLine="23" d="M715.0027,729.2699 C750.7407,748.1999 786.3624,767.0695 821.4574,785.6595 " fill="none" id="Square-Token" style="stroke:#181818;stroke-width:1.0;"/><polygon fill="none" points="704.3985,723.653,707.8283,729.9962,715.0027,729.2699,711.5729,722.9267,704.3985,723.653" style="stroke:#181818;stroke-width:1.0;"/><polygon fill="#181818" points="826.7595,788.468,820.6787,780.7205,822.3411,786.1275,816.934,787.7899,826.7595,788.468" style="stroke:#181818;stroke-width:1.0;"/><text fill="#000000" font-family="sans-serif" font-size="13" lengthAdjust="spacing" textLength="24" x="794.9867" y="781.0995">0..1</text></g><!--link Player to Token--><g id="link_Player_Token"><path codeLine="24" d="M629.4585,255.1595 C718.1805,265.1255 919.5205,294.267 919.5205,357 C919.5205,357 919.5205,357 919.5205,702 C919.5205,733.42 904.3255,760.195 888.9135,780.816 " fill="none" id="Player-Token" style="stroke:#181818;stroke-width:1.0;"/><polygon fill="#181818" points="617.5335,253.82,623.0495,258.4648,629.4585,255.1595,623.9425,250.5148,617.5335,253.82" style="stroke:#181818;stroke-width:1.0;"/><polygon fill="#181818" points="885.3215,785.622,893.9135,780.8076,888.3148,781.617,887.5055,776.0183,885.3215,785.622" style="stroke:#181818;stroke-width:1.0;"/><text fill="#000000" font-family="sans-serif" font-size="13" lengthAdjust="spacing" textLength="32" x="854.248" y="774.9348">0..21</text></g><!--link Player to Color--><g id="link_Player_Color"><path codeLine="25" d="M629.7978,252.4954 C731.8288,258.3494 990.5205,280.41 990.5205,357 C990.5205,357 990.5205,357 990.5205,811 C990.5205,841.533 978.5073,868.5864 966.4353,889.6004 " fill="none" id="Player-Color" style="stroke:#181818;stroke-width:1.0;"/><polygon fill="#181818" points="617.8175,251.808,623.5785,256.1451,629.7978,252.4954,624.0368,248.1583,617.8175,251.808" style="stroke:#181818;stroke-width:1.0;"/><polygon fill="#181818" points="963.4465,894.803,971.3981,888.9916,965.9371,890.4675,964.4612,885.0066,963.4465,894.803" style="stroke:#181818;stroke-width:1.0;"/></g><!--link Player to Board--><g id="link_Player_Board"><path codeLine="26" d="M549.7935,273.217 C526.8145,291.165 499.8832,312.1988 476.9182,330.1348 " fill="none" id="Player-to-Board" style="stroke:#181818;stroke-width:1.0;"/><polygon fill="#181818" points="472.1895,333.828,481.7446,331.4407,476.1301,330.7504,476.8204,325.1358,472.1895,333.828" style="stroke:#181818;stroke-width:1.0;"/></g><!--link Token to Color--><g id="link_Token_Color"><path codeLine="27" d="M890.8854,843.6988 C904.8074,861.6468 912.956,872.1511 926.869,890.0871 " fill="none" id="Token-Color" style="stroke:#181818;stroke-width:1.0;"/><polygon fill="#181818" points="883.5305,834.217,884.0473,841.4096,890.8854,843.6988,890.3686,836.5063,883.5305,834.217" style="stroke:#181818;stroke-width:1.0;"/><polygon fill="#181818" points="930.5465,894.828,928.1908,885.265,927.4819,890.8773,921.8696,890.1684,930.5465,894.828" style="stroke:#181818;stroke-width:1.0;"/></g><!--link Column to Square--><g id="link_Column_Square"><path codeLine="28" d="M535.1968,622.4251 C564.8858,640.3731 590.3848,655.788 620.0548,673.724 " fill="none" id="Column-Square" style="stroke:#181818;stroke-width:1.0;"/><polygon fill="#181818" points="524.9275,616.217,527.9928,622.7442,535.1968,622.4251,532.1315,615.898,524.9275,616.217" style="stroke:#181818;stroke-width:1.0;"/><polygon fill="#181818" points="625.1895,676.828,619.5568,668.7489,620.9106,674.2413,615.4181,675.5951,625.1895,676.828" style="stroke:#181818;stroke-width:1.0;"/><text fill="#000000" font-family="sans-serif" font-size="13" lengthAdjust="spacing" textLength="8" x="606.8713" y="666.191">6</text></g><!--reverse link Color to Red--><g id="link_Color_Red"><path codeLine="29" d="M929.37,959.4066 C920.648,977.3545 916.4985,985.8918 907.7825,1003.8279 " fill="none" id="Color-backto-Red" style="stroke:#181818;stroke-width:1.0;"/><polygon fill="none" points="937.2375,943.217,923.9735,956.7841,934.7665,962.0291,937.2375,943.217" style="stroke:#181818;stroke-width:1.0;"/></g><!--reverse link Color to Yellow--><g id="link_Color_Yellow"><path codeLine="30" d="M967.672,959.4066 C976.394,977.3545 980.5435,985.8918 989.2595,1003.8279 " fill="none" id="Color-backto-Yellow" style="stroke:#181818;stroke-width:1.0;"/><polygon fill="none" points="959.8045,943.217,962.2755,962.0291,973.0685,956.7841,959.8045,943.217" style="stroke:#181818;stroke-width:1.0;"/></g><!--reverse link Goal to Horizontal--><g id="link_Goal_Horizontal"><path codeLine="31" d="M505.8381,378.8434 C475.1591,391.4434 447.8425,403.077 431.5205,412 C414.9065,421.083 397.3725,432.669 382.9675,442.778 " fill="none" id="Goal-backto-Horizontal" style="stroke:#181818;stroke-width:1.0;"/><polygon fill="none" points="522.4885,372.005,503.5586,373.2933,508.1176,384.3935,522.4885,372.005" style="stroke:#181818;stroke-width:1.0;"/></g><!--reverse link Goal to Vertical--><g id="link_Goal_Vertical"><path codeLine="32" d="M554.5205,400.217 C554.5205,418.165 554.5205,424.892 554.5205,442.828 " fill="none" id="Goal-backto-Vertical" style="stroke:#181818;stroke-width:1.0;"/><polygon fill="none" points="554.5205,382.217,548.5205,400.217,560.5205,400.217,554.5205,382.217" style="stroke:#181818;stroke-width:1.0;"/></g><!--reverse link Goal to Diagonal--><g id="link_Goal_Diagonal"><path codeLine="33" d="M595.5808,393.8684 C616.7158,411.8164 632.1135,424.892 653.2345,442.828 " fill="none" id="Goal-backto-Diagonal" style="stroke:#181818;stroke-width:1.0;"/><polygon fill="none" points="581.8605,382.217,591.697,398.4418,599.4646,389.2949,581.8605,382.217" style="stroke:#181818;stroke-width:1.0;"/></g><!--reverse link Goal to InvertedDiagonal--><g id="link_Goal_InvertedDiagonal"><path codeLine="34" d="M505.5011,379.162 C497.1881,382.444 504.9505,379.2 496.5205,382 C453.5285,396.279 340.4075,426.124 263.1315,446.116 " fill="none" id="Goal-backto-InvertedDiagonal" style="stroke:#181818;stroke-width:1.0;"/><polygon fill="none" points="522.2435,372.552,503.2978,373.5812,507.7044,384.7428,522.2435,372.552" style="stroke:#181818;stroke-width:1.0;"/></g><!--link Player to Goal--><g id="link_Player_Goal"><path codeLine="37" d="M571.366,284.9022 C567.172,302.8502 565.4907,310.0494 561.2997,327.9854 " fill="none" id="Player-Goal" style="stroke:#181818;stroke-width:1.0;"/><polygon fill="none" points="574.0965,273.217,568.8362,278.1494,571.366,284.9022,576.6263,279.9698,574.0965,273.217" style="stroke:#181818;stroke-width:1.0;"/><polygon fill="#181818" points="559.9345,333.828,565.8774,325.9742,561.0722,328.9592,558.0872,324.1539,559.9345,333.828" style="stroke:#181818;stroke-width:1.0;"/></g><!--link Goal to PutAction--><g id="link_Goal_PutAction"><path codeLine="38" d="M586.6625,372.228 C630.6835,390.344 704.688,420.7996 757.175,442.3996 " fill="none" id="Goal-to-PutAction" style="stroke:#181818;stroke-width:1.0;stroke-dasharray:7.0,7.0;"/><polygon fill="#181818" points="762.7235,444.683,755.923,437.5589,758.0997,442.7802,752.8785,444.9569,762.7235,444.683" style="stroke:#181818;stroke-width:1.0;"/></g><!--link Goal to Column--><g id="link_Goal_Column"><path codeLine="39" d="M531.5025,382.087 C517.4365,397.819 500.6395,419.916 492.5205,443 C477.7185,485.089 479.5934,532.1413 482.7454,561.9423 " fill="none" id="Goal-to-Column" style="stroke:#181818;stroke-width:1.0;stroke-dasharray:7.0,7.0;"/><polygon fill="#181818" points="483.3765,567.909,486.4077,558.5382,482.8506,562.9367,478.4521,559.3796,483.3765,567.909" style="stroke:#181818;stroke-width:1.0;"/><text fill="#000000" font-family="sans-serif" font-size="13" lengthAdjust="spacing" textLength="24" x="455.4959" y="556.8977">1..4</text></g><!--link PutAction to Token--><g id="link_PutAction_Token"><path codeLine="40" d="M817.9865,491.17 C827.2905,553.38 851.8541,717.618 861.1631,779.864 " fill="none" id="PutAction-to-Token" style="stroke:#181818;stroke-width:1.0;stroke-dasharray:7.0,7.0;"/><polygon fill="#181818" points="862.0505,785.798,864.6753,776.3054,861.311,780.853,856.7633,777.4886,862.0505,785.798" style="stroke:#181818;stroke-width:1.0;"/></g><!--link PutAction to Column--><g id="link_PutAction_Column"><path codeLine="41" d="M762.9105,487.354 C698.5945,511.472 595.4625,550.1473 535.3385,572.6933 " fill="none" id="PutAction-to-Column" style="stroke:#181818;stroke-width:1.0;stroke-dasharray:7.0,7.0;"/><polygon fill="#181818" points="529.7205,574.8,539.552,575.3853,534.4022,573.0444,536.743,567.8946,529.7205,574.8" style="stroke:#181818;stroke-width:1.0;"/><text fill="#000000" font-family="sans-serif" font-size="13" lengthAdjust="spacing" textLength="39" x="671.5205" y="534.0669">target</text></g><!--SRC=[TLBBIWGn4BpFLuGSXGHt4GMH0LtnSHCLmMF8X35iDetPn4NnuyqxOTJBq5rLIRggXokstwCDQ2sulG5d1XwH1yK-HMckW9afrxV0L2wVOIjqgPqfvHqO-GNQLjsBC5RosbvBDeEkxRt-yBoO5l0659JtdzuTCo8tZwACyYgKWaCPsDbBRYNeTjxjz31qrX0w8XCSD1cJ8_GFYTUu-Ey5bOzUmmVzSIBTtEuwmsMKv0812V0nfIkS4qmd-m4ykrxIbKt9P9GKCqCKBrNfQO-6MqznJZ8Ozoow-2OavjcrETImvWHqwsnWNMc3wluQz6krGnaxXX1_fQYcTEmMM26yelIavbS5Y1evlralo04rWevPZSuHjipCmk8V]--></g></svg>