<?xml version="1.0" encoding="us-ascii" standalone="no"?><svg xmlns="http://www.w3.org/2000/svg" xmlns:xlink="http://www.w3.org/1999/xlink" contentStyleType="text/css" height="1581px" preserveAspectRatio="none" style="width:1776px;height:1581px;background:#FFFFFF;" version="1.1" viewBox="0 0 1776 1581" width="1776px" zoomAndPan="magnify"><defs/><g><!--cluster Models--><g id="cluster_Models"><path d="M8.5,6 L66.5,6 A3.75,3.75 0 0 1 69,8.5 L76,28.2969 L718.5,28.2969 A2.5,2.5 0 0 1 721,30.7969 L721,1398.5 A2.5,2.5 0 0 1 718.5,1401 L8.5,1401 A2.5,2.5 0 0 1 6,1398.5 L6,8.5 A2.5,2.5 0 0 1 8.5,6 " fill="none" style="stroke:#000000;stroke-width:1.5;"/><line style="stroke:#000000;stroke-width:1.5;" x1="6" x2="76" y1="28.2969" y2="28.2969"/><text fill="#000000" font-family="sans-serif" font-size="14" font-weight="bold" lengthAdjust="spacing" textLength="57" x="10" y="20.9951">Models</text></g><!--cluster Enums--><g id="cluster_Enums"><path d="M1229.5,1245 L1283.5,1245 A3.75,3.75 0 0 1 1286,1247.5 L1293,1267.2969 L1638.5,1267.2969 A2.5,2.5 0 0 1 1641,1269.7969 L1641,1571.5 A2.5,2.5 0 0 1 1638.5,1574 L1229.5,1574 A2.5,2.5 0 0 1 1227,1571.5 L1227,1247.5 A2.5,2.5 0 0 1 1229.5,1245 " fill="none" style="stroke:#000000;stroke-width:1.5;"/><line style="stroke:#000000;stroke-width:1.5;" x1="1227" x2="1293" y1="1267.2969" y2="1267.2969"/><text fill="#000000" font-family="sans-serif" font-size="14" font-weight="bold" lengthAdjust="spacing" textLength="53" x="1231" y="1259.9951">Enums</text></g><!--cluster Constants--><g id="cluster_Constants"><path d="M797.5,1188 L882.5,1188 A3.75,3.75 0 0 1 885,1190.5 L892,1210.2969 L1150.5,1210.2969 A2.5,2.5 0 0 1 1153,1212.7969 L1153,1414.5 A2.5,2.5 0 0 1 1150.5,1417 L797.5,1417 A2.5,2.5 0 0 1 795,1414.5 L795,1190.5 A2.5,2.5 0 0 1 797.5,1188 " fill="none" style="stroke:#000000;stroke-width:1.5;"/><line style="stroke:#000000;stroke-width:1.5;" x1="795" x2="892" y1="1210.2969" y2="1210.2969"/><text fill="#000000" font-family="sans-serif" font-size="14" font-weight="bold" lengthAdjust="spacing" textLength="84" x="799" y="1202.9951">Constants</text></g><!--class Game--><g id="elem_Game"><rect codeLine="2" fill="#F1F1F1" height="227.2656" id="Game" rx="2.5" ry="2.5" style="stroke:#181818;stroke-width:0.5;" width="362" x="343" y="41"/><ellipse cx="498.75" cy="57" fill="#ADD1B2" rx="11" ry="11" style="stroke:#181818;stroke-width:1.0;"/><path d="M501.0938,52.6719 C500.1563,52.2344 499.5625,52.0938 498.6875,52.0938 C496.0625,52.0938 494.0625,54.1719 494.0625,56.8906 L494.0625,58.0156 C494.0625,60.5938 496.1719,62.4844 499.0625,62.4844 C500.2813,62.4844 501.4375,62.1875 502.1875,61.6406 C502.7656,61.2344 503.0938,60.7813 503.0938,60.3906 C503.0938,59.9375 502.7031,59.5469 502.2344,59.5469 C502.0156,59.5469 501.8125,59.625 501.625,59.8125 C501.1719,60.2969 501.1719,60.2969 500.9844,60.3906 C500.5625,60.6563 499.875,60.7813 499.1094,60.7813 C497.0625,60.7813 495.7656,59.6875 495.7656,57.9844 L495.7656,56.8906 C495.7656,55.1094 497.0156,53.7969 498.75,53.7969 C499.3281,53.7969 499.9375,53.9531 500.4063,54.2031 C500.8906,54.4844 501.0625,54.7031 501.1563,55.1094 C501.2188,55.5156 501.25,55.6406 501.3906,55.7656 C501.5313,55.9063 501.7656,56.0156 501.9844,56.0156 C502.25,56.0156 502.5156,55.875 502.6875,55.6563 C502.7969,55.5 502.8281,55.3125 502.8281,54.8906 L502.8281,53.4688 C502.8281,53.0313 502.8125,52.9063 502.7188,52.75 C502.5625,52.4844 502.2813,52.3438 501.9844,52.3438 C501.6875,52.3438 501.4844,52.4375 501.2656,52.75 L501.0938,52.6719 Z " fill="#000000"/><text fill="#000000" font-family="sans-serif" font-size="14" lengthAdjust="spacing" textLength="42" x="519.25" y="61.8467">Game</text><line style="stroke:#181818;stroke-width:0.5;" x1="344" x2="704" y1="73" y2="73"/><rect fill="none" height="6" style="stroke:#C82930;stroke-width:1.0;" width="6" x="351" y="83.6484"/><text fill="#000000" font-family="sans-serif" font-size="14" lengthAdjust="spacing" textLength="159" x="363" y="89.9951">readonly Board board;</text><rect fill="none" height="6" style="stroke:#C82930;stroke-width:1.0;" width="6" x="351" y="99.9453"/><text fill="#000000" font-family="sans-serif" font-size="14" lengthAdjust="spacing" textLength="137" x="363" y="106.292">readonly Turn turn;</text><line style="stroke:#181818;stroke-width:0.5;" x1="344" x2="704" y1="113.5938" y2="113.5938"/><ellipse cx="354" cy="127.2422" fill="#84BE84" rx="3" ry="3" style="stroke:#038048;stroke-width:1.0;"/><text fill="#000000" font-family="sans-serif" font-size="14" lengthAdjust="spacing" textLength="57" x="363" y="130.5889">Game();</text><ellipse cx="354" cy="143.5391" fill="#84BE84" rx="3" ry="3" style="stroke:#038048;stroke-width:1.0;"/><text fill="#000000" font-family="sans-serif" font-size="14" lengthAdjust="spacing" textLength="205" x="363" y="146.8857">Token[][] GetBoardTokens();</text><ellipse cx="354" cy="159.8359" fill="#84BE84" rx="3" ry="3" style="stroke:#038048;stroke-width:1.0;"/><text fill="#000000" font-family="sans-serif" font-size="14" lengthAdjust="spacing" textLength="172" x="363" y="163.1826">bool IsConnectedFour();</text><ellipse cx="354" cy="176.1328" fill="#84BE84" rx="3" ry="3" style="stroke:#038048;stroke-width:1.0;"/><text fill="#000000" font-family="sans-serif" font-size="14" lengthAdjust="spacing" textLength="176" x="363" y="179.4795">bool IsBoardComplete();</text><ellipse cx="354" cy="192.4297" fill="#84BE84" rx="3" ry="3" style="stroke:#038048;stroke-width:1.0;"/><text fill="#000000" font-family="sans-serif" font-size="14" lengthAdjust="spacing" textLength="208" x="363" y="195.7764">Player GetNonActivePlayer();</text><ellipse cx="354" cy="208.7266" fill="#84BE84" rx="3" ry="3" style="stroke:#038048;stroke-width:1.0;"/><text fill="#000000" font-family="sans-serif" font-size="14" lengthAdjust="spacing" textLength="180" x="363" y="212.0732">Player GetActivePlayer();</text><ellipse cx="354" cy="225.0234" fill="#84BE84" rx="3" ry="3" style="stroke:#038048;stroke-width:1.0;"/><text fill="#000000" font-family="sans-serif" font-size="14" lengthAdjust="spacing" textLength="83" x="363" y="228.3701">void Next();</text><ellipse cx="354" cy="241.3203" fill="#84BE84" rx="3" ry="3" style="stroke:#038048;stroke-width:1.0;"/><text fill="#000000" font-family="sans-serif" font-size="14" lengthAdjust="spacing" textLength="251" x="363" y="244.667">void PutToken(int columnNumber);</text><ellipse cx="354" cy="257.6172" fill="#84BE84" rx="3" ry="3" style="stroke:#038048;stroke-width:1.0;"/><text fill="#000000" font-family="sans-serif" font-size="14" lengthAdjust="spacing" textLength="336" x="363" y="260.9639">bool CanInsertIntoColumn(int columnNumber);</text></g><!--class Turn--><g id="elem_Turn"><rect codeLine="15" fill="#F1F1F1" height="194.6719" id="Turn" rx="2.5" ry="2.5" style="stroke:#181818;stroke-width:0.5;" width="277" x="392.5" y="328"/><ellipse cx="510.75" cy="344" fill="#ADD1B2" rx="11" ry="11" style="stroke:#181818;stroke-width:1.0;"/><path d="M513.0938,339.6719 C512.1563,339.2344 511.5625,339.0938 510.6875,339.0938 C508.0625,339.0938 506.0625,341.1719 506.0625,343.8906 L506.0625,345.0156 C506.0625,347.5938 508.1719,349.4844 511.0625,349.4844 C512.2813,349.4844 513.4375,349.1875 514.1875,348.6406 C514.7656,348.2344 515.0938,347.7813 515.0938,347.3906 C515.0938,346.9375 514.7031,346.5469 514.2344,346.5469 C514.0156,346.5469 513.8125,346.625 513.625,346.8125 C513.1719,347.2969 513.1719,347.2969 512.9844,347.3906 C512.5625,347.6563 511.875,347.7813 511.1094,347.7813 C509.0625,347.7813 507.7656,346.6875 507.7656,344.9844 L507.7656,343.8906 C507.7656,342.1094 509.0156,340.7969 510.75,340.7969 C511.3281,340.7969 511.9375,340.9531 512.4063,341.2031 C512.8906,341.4844 513.0625,341.7031 513.1563,342.1094 C513.2188,342.5156 513.25,342.6406 513.3906,342.7656 C513.5313,342.9063 513.7656,343.0156 513.9844,343.0156 C514.25,343.0156 514.5156,342.875 514.6875,342.6563 C514.7969,342.5 514.8281,342.3125 514.8281,341.8906 L514.8281,340.4688 C514.8281,340.0313 514.8125,339.9063 514.7188,339.75 C514.5625,339.4844 514.2813,339.3438 513.9844,339.3438 C513.6875,339.3438 513.4844,339.4375 513.2656,339.75 L513.0938,339.6719 Z " fill="#000000"/><text fill="#000000" font-family="sans-serif" font-size="14" lengthAdjust="spacing" textLength="32" x="531.25" y="348.8467">Turn</text><line style="stroke:#181818;stroke-width:0.5;" x1="393.5" x2="668.5" y1="360" y2="360"/><rect fill="none" height="6" style="stroke:#C82930;stroke-width:1.0;" width="6" x="400.5" y="370.6484"/><text fill="#000000" font-family="sans-serif" font-size="14" lengthAdjust="spacing" textLength="159" x="412.5" y="376.9951">readonly Board board;</text><rect fill="none" height="6" style="stroke:#C82930;stroke-width:1.0;" width="6" x="400.5" y="386.9453"/><text fill="#000000" font-family="sans-serif" font-size="14" lengthAdjust="spacing" textLength="181" x="412.5" y="393.292">readonly Player[] players;</text><rect fill="none" height="6" style="stroke:#C82930;stroke-width:1.0;" width="6" x="400.5" y="403.2422"/><text fill="#000000" font-family="sans-serif" font-size="14" lengthAdjust="spacing" textLength="126" x="412.5" y="409.5889">int currentPlayer;</text><line style="stroke:#181818;stroke-width:0.5;" x1="393.5" x2="668.5" y1="416.8906" y2="416.8906"/><ellipse cx="403.5" cy="430.5391" fill="#84BE84" rx="3" ry="3" style="stroke:#038048;stroke-width:1.0;"/><text fill="#000000" font-family="sans-serif" font-size="14" lengthAdjust="spacing" textLength="47" x="412.5" y="433.8857">Turn();</text><ellipse cx="403.5" cy="446.8359" fill="#84BE84" rx="3" ry="3" style="stroke:#038048;stroke-width:1.0;"/><text fill="#000000" font-family="sans-serif" font-size="14" lengthAdjust="spacing" textLength="135" x="412.5" y="450.1826">void ChangeTurn();</text><rect fill="#F24D5C" height="6" style="stroke:#C82930;stroke-width:1.0;" width="6" x="400.5" y="460.1328"/><text fill="#000000" font-family="sans-serif" font-size="14" lengthAdjust="spacing" textLength="191" x="412.5" y="466.4795">int GetOtherPlayerIndex();</text><ellipse cx="403.5" cy="479.4297" fill="#84BE84" rx="3" ry="3" style="stroke:#038048;stroke-width:1.0;"/><text fill="#000000" font-family="sans-serif" font-size="14" lengthAdjust="spacing" textLength="208" x="412.5" y="482.7764">Player GetNonActivePlayer();</text><ellipse cx="403.5" cy="495.7266" fill="#84BE84" rx="3" ry="3" style="stroke:#038048;stroke-width:1.0;"/><text fill="#000000" font-family="sans-serif" font-size="14" lengthAdjust="spacing" textLength="180" x="412.5" y="499.0732">Player GetActivePlayer();</text><ellipse cx="403.5" cy="512.0234" fill="#84BE84" rx="3" ry="3" style="stroke:#038048;stroke-width:1.0;"/><text fill="#000000" font-family="sans-serif" font-size="14" lengthAdjust="spacing" textLength="251" x="412.5" y="515.3701">void PutToken(int columnNumber);</text></g><!--class Player--><g id="elem_Player"><rect codeLine="26" fill="#F1F1F1" height="162.0781" id="Player" rx="2.5" ry="2.5" style="stroke:#181818;stroke-width:0.5;" width="333" x="371.5" y="583"/><ellipse cx="511.75" cy="599" fill="#ADD1B2" rx="11" ry="11" style="stroke:#181818;stroke-width:1.0;"/><path d="M514.0938,594.6719 C513.1563,594.2344 512.5625,594.0938 511.6875,594.0938 C509.0625,594.0938 507.0625,596.1719 507.0625,598.8906 L507.0625,600.0156 C507.0625,602.5938 509.1719,604.4844 512.0625,604.4844 C513.2813,604.4844 514.4375,604.1875 515.1875,603.6406 C515.7656,603.2344 516.0938,602.7813 516.0938,602.3906 C516.0938,601.9375 515.7031,601.5469 515.2344,601.5469 C515.0156,601.5469 514.8125,601.625 514.625,601.8125 C514.1719,602.2969 514.1719,602.2969 513.9844,602.3906 C513.5625,602.6563 512.875,602.7813 512.1094,602.7813 C510.0625,602.7813 508.7656,601.6875 508.7656,599.9844 L508.7656,598.8906 C508.7656,597.1094 510.0156,595.7969 511.75,595.7969 C512.3281,595.7969 512.9375,595.9531 513.4063,596.2031 C513.8906,596.4844 514.0625,596.7031 514.1563,597.1094 C514.2188,597.5156 514.25,597.6406 514.3906,597.7656 C514.5313,597.9063 514.7656,598.0156 514.9844,598.0156 C515.25,598.0156 515.5156,597.875 515.6875,597.6563 C515.7969,597.5 515.8281,597.3125 515.8281,596.8906 L515.8281,595.4688 C515.8281,595.0313 515.8125,594.9063 515.7188,594.75 C515.5625,594.4844 515.2813,594.3438 514.9844,594.3438 C514.6875,594.3438 514.4844,594.4375 514.2656,594.75 L514.0938,594.6719 Z " fill="#000000"/><text fill="#000000" font-family="sans-serif" font-size="14" lengthAdjust="spacing" textLength="44" x="532.25" y="603.8467">Player</text><line style="stroke:#181818;stroke-width:0.5;" x1="372.5" x2="703.5" y1="615" y2="615"/><polygon fill="none" points="382.5,624.6484,378.5,630.6484,386.5,630.6484" style="stroke:#1963A0;stroke-width:1.0;"/><text fill="#000000" font-family="sans-serif" font-size="14" lengthAdjust="spacing" textLength="301" x="391.5" y="631.9951">const int MAXIMUM_TOKEN_NUMBER = 21;</text><polygon fill="none" points="382.5,640.9453,378.5,646.9453,386.5,646.9453" style="stroke:#1963A0;stroke-width:1.0;"/><text fill="#000000" font-family="sans-serif" font-size="14" lengthAdjust="spacing" textLength="307" x="391.5" y="648.292">const int MAXIMUM_PLAYERS_NUMBER = 2;</text><rect fill="none" height="6" style="stroke:#C82930;stroke-width:1.0;" width="6" x="379.5" y="658.2422"/><text fill="#000000" font-family="sans-serif" font-size="14" lengthAdjust="spacing" textLength="93" x="391.5" y="664.5889">Board board;</text><ellipse cx="382.5" cy="677.5391" fill="none" rx="3" ry="3" style="stroke:#038048;stroke-width:1.0;"/><text fill="#000000" font-family="sans-serif" font-size="14" lengthAdjust="spacing" textLength="165" x="391.5" y="680.8857">readonly Token Token;</text><rect fill="none" height="6" style="stroke:#C82930;stroke-width:1.0;" width="6" x="379.5" y="690.8359"/><text fill="#000000" font-family="sans-serif" font-size="14" lengthAdjust="spacing" textLength="152" x="391.5" y="697.1826">int tokensLeftCount;</text><line style="stroke:#181818;stroke-width:0.5;" x1="372.5" x2="703.5" y1="704.4844" y2="704.4844"/><ellipse cx="382.5" cy="718.1328" fill="#84BE84" rx="3" ry="3" style="stroke:#038048;stroke-width:1.0;"/><text fill="#000000" font-family="sans-serif" font-size="14" lengthAdjust="spacing" textLength="247" x="391.5" y="721.4795">Player(Token token, Board board);</text><ellipse cx="382.5" cy="734.4297" fill="#84BE84" rx="3" ry="3" style="stroke:#038048;stroke-width:1.0;"/><text fill="#000000" font-family="sans-serif" font-size="14" lengthAdjust="spacing" textLength="217" x="391.5" y="737.7764">PutToken(int columnNumber);</text></g><!--class Board--><g id="elem_Board"><rect codeLine="35" fill="#F1F1F1" height="357.6406" id="Board" rx="2.5" ry="2.5" style="stroke:#181818;stroke-width:0.5;" width="673" x="31.5" y="805"/><ellipse cx="342.75" cy="821" fill="#ADD1B2" rx="11" ry="11" style="stroke:#181818;stroke-width:1.0;"/><path d="M345.0938,816.6719 C344.1563,816.2344 343.5625,816.0938 342.6875,816.0938 C340.0625,816.0938 338.0625,818.1719 338.0625,820.8906 L338.0625,822.0156 C338.0625,824.5938 340.1719,826.4844 343.0625,826.4844 C344.2813,826.4844 345.4375,826.1875 346.1875,825.6406 C346.7656,825.2344 347.0938,824.7813 347.0938,824.3906 C347.0938,823.9375 346.7031,823.5469 346.2344,823.5469 C346.0156,823.5469 345.8125,823.625 345.625,823.8125 C345.1719,824.2969 345.1719,824.2969 344.9844,824.3906 C344.5625,824.6563 343.875,824.7813 343.1094,824.7813 C341.0625,824.7813 339.7656,823.6875 339.7656,821.9844 L339.7656,820.8906 C339.7656,819.1094 341.0156,817.7969 342.75,817.7969 C343.3281,817.7969 343.9375,817.9531 344.4063,818.2031 C344.8906,818.4844 345.0625,818.7031 345.1563,819.1094 C345.2188,819.5156 345.25,819.6406 345.3906,819.7656 C345.5313,819.9063 345.7656,820.0156 345.9844,820.0156 C346.25,820.0156 346.5156,819.875 346.6875,819.6563 C346.7969,819.5 346.8281,819.3125 346.8281,818.8906 L346.8281,817.4688 C346.8281,817.0313 346.8125,816.9063 346.7188,816.75 C346.5625,816.4844 346.2813,816.3438 345.9844,816.3438 C345.6875,816.3438 345.4844,816.4375 345.2656,816.75 L345.0938,816.6719 Z " fill="#000000"/><text fill="#000000" font-family="sans-serif" font-size="14" lengthAdjust="spacing" textLength="42" x="363.25" y="825.8467">Board</text><line style="stroke:#181818;stroke-width:0.5;" x1="32.5" x2="703.5" y1="837" y2="837"/><polygon fill="none" points="42.5,846.6484,38.5,852.6484,46.5,852.6484" style="stroke:#1963A0;stroke-width:1.0;"/><text fill="#000000" font-family="sans-serif" font-size="14" lengthAdjust="spacing" textLength="229" x="51.5" y="853.9951">const int BOARD_COLUMNS = 7;</text><polygon fill="none" points="42.5,862.9453,38.5,868.9453,46.5,868.9453" style="stroke:#1963A0;stroke-width:1.0;"/><text fill="#000000" font-family="sans-serif" font-size="14" lengthAdjust="spacing" textLength="204" x="51.5" y="870.292">const int BOARD_ROWS = 6;</text><polygon fill="none" points="42.5,879.2422,38.5,885.2422,46.5,885.2422" style="stroke:#1963A0;stroke-width:1.0;"/><text fill="#000000" font-family="sans-serif" font-size="14" lengthAdjust="spacing" textLength="195" x="51.5" y="886.5889">const int WIN_NUMBER = 4;</text><ellipse cx="42.5" cy="899.5391" fill="none" rx="3" ry="3" style="stroke:#038048;stroke-width:1.0;"/><text fill="#000000" font-family="sans-serif" font-size="14" lengthAdjust="spacing" textLength="192" x="51.5" y="902.8857">readonly Token[][] Tokens;</text><rect fill="none" height="6" style="stroke:#C82930;stroke-width:1.0;" width="6" x="39.5" y="912.8359"/><text fill="#000000" font-family="sans-serif" font-size="14" lengthAdjust="spacing" textLength="262" x="51.5" y="919.1826">readonly Position lastTokenPosition;</text><line style="stroke:#181818;stroke-width:0.5;" x1="32.5" x2="703.5" y1="926.4844" y2="926.4844"/><ellipse cx="42.5" cy="940.1328" fill="#84BE84" rx="3" ry="3" style="stroke:#038048;stroke-width:1.0;"/><text fill="#000000" font-family="sans-serif" font-size="14" lengthAdjust="spacing" textLength="57" x="51.5" y="943.4795">Board();</text><rect fill="#F24D5C" height="6" style="stroke:#C82930;stroke-width:1.0;" width="6" x="39.5" y="953.4297"/><text fill="#000000" font-family="sans-serif" font-size="14" lengthAdjust="spacing" textLength="213" x="51.5" y="959.7764">void InitializeBoardColumns();</text><ellipse cx="42.5" cy="972.7266" fill="#84BE84" rx="3" ry="3" style="stroke:#038048;stroke-width:1.0;"/><text fill="#000000" font-family="sans-serif" font-size="14" lengthAdjust="spacing" textLength="351" x="51.5" y="976.0732">void PutToken(Token token, int columnNumber);</text><polygon fill="#4177AF" points="42.5,985.0234,38.5,991.0234,46.5,991.0234" style="stroke:#1963A0;stroke-width:1.0;"/><text fill="#000000" font-family="sans-serif" font-size="14" lengthAdjust="spacing" textLength="336" x="51.5" y="992.3701">bool CanInsertIntoColumn(int columnNumber);</text><rect fill="#F24D5C" height="6" style="stroke:#C82930;stroke-width:1.0;" width="6" x="39.5" y="1002.3203"/><text fill="#000000" font-family="sans-serif" font-size="14" lengthAdjust="spacing" textLength="376" x="51.5" y="1008.667">int GetFirstEmptyRowInColumn(int columnNumber);</text><rect fill="#F24D5C" height="6" style="stroke:#C82930;stroke-width:1.0;" width="6" x="39.5" y="1018.6172"/><text fill="#000000" font-family="sans-serif" font-size="14" lengthAdjust="spacing" textLength="647" x="51.5" y="1024.9639">bool CheckIfLineHasConnectedFour(Position createLineDirection, Position slideDirection);</text><rect fill="#F24D5C" height="6" style="stroke:#C82930;stroke-width:1.0;" width="6" x="39.5" y="1034.9141"/><text fill="#000000" font-family="sans-serif" font-size="14" lengthAdjust="spacing" textLength="271" x="51.5" y="1041.2607">Line CreateLine(Position orientation);</text><rect fill="#F24D5C" height="6" style="stroke:#C82930;stroke-width:1.0;" width="6" x="39.5" y="1051.2109"/><text fill="#000000" font-family="sans-serif" font-size="14" lengthAdjust="spacing" textLength="362" x="51.5" y="1057.5576">static bool IsValidCoordinate(Position coordinate);</text><rect fill="#F24D5C" height="6" style="stroke:#C82930;stroke-width:1.0;" width="6" x="39.5" y="1067.5078"/><text fill="#000000" font-family="sans-serif" font-size="14" lengthAdjust="spacing" textLength="246" x="51.5" y="1073.8545">bool IsHorizontalConnectedFour();</text><rect fill="#F24D5C" height="6" style="stroke:#C82930;stroke-width:1.0;" width="6" x="39.5" y="1083.8047"/><text fill="#000000" font-family="sans-serif" font-size="14" lengthAdjust="spacing" textLength="228" x="51.5" y="1090.1514">bool IsVerticalConnectedFour();</text><rect fill="#F24D5C" height="6" style="stroke:#C82930;stroke-width:1.0;" width="6" x="39.5" y="1100.1016"/><text fill="#000000" font-family="sans-serif" font-size="14" lengthAdjust="spacing" textLength="234" x="51.5" y="1106.4482">bool IsDiagonalConnectedFour();</text><rect fill="#F24D5C" height="6" style="stroke:#C82930;stroke-width:1.0;" width="6" x="39.5" y="1116.3984"/><text fill="#000000" font-family="sans-serif" font-size="14" lengthAdjust="spacing" textLength="295" x="51.5" y="1122.7451">bool IsInvertedDiagonalConnectedFour();</text><ellipse cx="42.5" cy="1135.6953" fill="#84BE84" rx="3" ry="3" style="stroke:#038048;stroke-width:1.0;"/><text fill="#000000" font-family="sans-serif" font-size="14" lengthAdjust="spacing" textLength="172" x="51.5" y="1139.042">bool IsConnectedFour();</text><ellipse cx="42.5" cy="1151.9922" fill="#84BE84" rx="3" ry="3" style="stroke:#038048;stroke-width:1.0;"/><text fill="#000000" font-family="sans-serif" font-size="14" lengthAdjust="spacing" textLength="176" x="51.5" y="1155.3389">bool IsBoardComplete();</text></g><!--class Line--><g id="elem_Line"><rect codeLine="56" fill="#F1F1F1" height="145.7813" id="Line" rx="2.5" ry="2.5" style="stroke:#181818;stroke-width:0.5;" width="340" x="22" y="1239"/><ellipse cx="172.75" cy="1255" fill="#ADD1B2" rx="11" ry="11" style="stroke:#181818;stroke-width:1.0;"/><path d="M175.0938,1250.6719 C174.1563,1250.2344 173.5625,1250.0938 172.6875,1250.0938 C170.0625,1250.0938 168.0625,1252.1719 168.0625,1254.8906 L168.0625,1256.0156 C168.0625,1258.5938 170.1719,1260.4844 173.0625,1260.4844 C174.2813,1260.4844 175.4375,1260.1875 176.1875,1259.6406 C176.7656,1259.2344 177.0938,1258.7813 177.0938,1258.3906 C177.0938,1257.9375 176.7031,1257.5469 176.2344,1257.5469 C176.0156,1257.5469 175.8125,1257.625 175.625,1257.8125 C175.1719,1258.2969 175.1719,1258.2969 174.9844,1258.3906 C174.5625,1258.6563 173.875,1258.7813 173.1094,1258.7813 C171.0625,1258.7813 169.7656,1257.6875 169.7656,1255.9844 L169.7656,1254.8906 C169.7656,1253.1094 171.0156,1251.7969 172.75,1251.7969 C173.3281,1251.7969 173.9375,1251.9531 174.4063,1252.2031 C174.8906,1252.4844 175.0625,1252.7031 175.1563,1253.1094 C175.2188,1253.5156 175.25,1253.6406 175.3906,1253.7656 C175.5313,1253.9063 175.7656,1254.0156 175.9844,1254.0156 C176.25,1254.0156 176.5156,1253.875 176.6875,1253.6563 C176.7969,1253.5 176.8281,1253.3125 176.8281,1252.8906 L176.8281,1251.4688 C176.8281,1251.0313 176.8125,1250.9063 176.7188,1250.75 C176.5625,1250.4844 176.2813,1250.3438 175.9844,1250.3438 C175.6875,1250.3438 175.4844,1250.4375 175.2656,1250.75 L175.0938,1250.6719 Z " fill="#000000"/><text fill="#000000" font-family="sans-serif" font-size="14" lengthAdjust="spacing" textLength="30" x="193.25" y="1259.8467">Line</text><line style="stroke:#181818;stroke-width:0.5;" x1="23" x2="361" y1="1271" y2="1271"/><rect fill="none" height="6" style="stroke:#C82930;stroke-width:1.0;" width="6" x="30" y="1281.6484"/><text fill="#000000" font-family="sans-serif" font-size="14" lengthAdjust="spacing" textLength="218" x="42" y="1287.9951">readonly List&lt;Token&gt; tokens;</text><line style="stroke:#181818;stroke-width:0.5;" x1="23" x2="361" y1="1295.2969" y2="1295.2969"/><ellipse cx="33" cy="1308.9453" fill="#84BE84" rx="3" ry="3" style="stroke:#038048;stroke-width:1.0;"/><text fill="#000000" font-family="sans-serif" font-size="14" lengthAdjust="spacing" textLength="45" x="42" y="1312.292">Line();</text><ellipse cx="33" cy="1325.2422" fill="#84BE84" rx="3" ry="3" style="stroke:#038048;stroke-width:1.0;"/><text fill="#000000" font-family="sans-serif" font-size="14" lengthAdjust="spacing" textLength="214" x="42" y="1328.5889">void AddToken(Token token);</text><ellipse cx="33" cy="1341.5391" fill="#84BE84" rx="3" ry="3" style="stroke:#038048;stroke-width:1.0;"/><text fill="#000000" font-family="sans-serif" font-size="14" lengthAdjust="spacing" textLength="314" x="42" y="1344.8857">void SlideLineWithOneToken(Token token);</text><ellipse cx="33" cy="1357.8359" fill="#84BE84" rx="3" ry="3" style="stroke:#038048;stroke-width:1.0;"/><text fill="#000000" font-family="sans-serif" font-size="14" lengthAdjust="spacing" textLength="271" x="42" y="1361.1826">bool AreAllTokensEqualsAndNotNull();</text><ellipse cx="33" cy="1374.1328" fill="#84BE84" rx="3" ry="3" style="stroke:#038048;stroke-width:1.0;"/><text fill="#000000" font-family="sans-serif" font-size="14" lengthAdjust="spacing" textLength="221" x="42" y="1377.4795">int GetInsertedTokensCount();</text></g><!--class Position--><g id="elem_Position"><rect codeLine="64" fill="#F1F1F1" height="145.7813" id="Position" rx="2.5" ry="2.5" style="stroke:#181818;stroke-width:0.5;" width="308" x="397" y="1239"/><ellipse cx="517.75" cy="1255" fill="#ADD1B2" rx="11" ry="11" style="stroke:#181818;stroke-width:1.0;"/><path d="M520.0938,1250.6719 C519.1563,1250.2344 518.5625,1250.0938 517.6875,1250.0938 C515.0625,1250.0938 513.0625,1252.1719 513.0625,1254.8906 L513.0625,1256.0156 C513.0625,1258.5938 515.1719,1260.4844 518.0625,1260.4844 C519.2813,1260.4844 520.4375,1260.1875 521.1875,1259.6406 C521.7656,1259.2344 522.0938,1258.7813 522.0938,1258.3906 C522.0938,1257.9375 521.7031,1257.5469 521.2344,1257.5469 C521.0156,1257.5469 520.8125,1257.625 520.625,1257.8125 C520.1719,1258.2969 520.1719,1258.2969 519.9844,1258.3906 C519.5625,1258.6563 518.875,1258.7813 518.1094,1258.7813 C516.0625,1258.7813 514.7656,1257.6875 514.7656,1255.9844 L514.7656,1254.8906 C514.7656,1253.1094 516.0156,1251.7969 517.75,1251.7969 C518.3281,1251.7969 518.9375,1251.9531 519.4063,1252.2031 C519.8906,1252.4844 520.0625,1252.7031 520.1563,1253.1094 C520.2188,1253.5156 520.25,1253.6406 520.3906,1253.7656 C520.5313,1253.9063 520.7656,1254.0156 520.9844,1254.0156 C521.25,1254.0156 521.5156,1253.875 521.6875,1253.6563 C521.7969,1253.5 521.8281,1253.3125 521.8281,1252.8906 L521.8281,1251.4688 C521.8281,1251.0313 521.8125,1250.9063 521.7188,1250.75 C521.5625,1250.4844 521.2813,1250.3438 520.9844,1250.3438 C520.6875,1250.3438 520.4844,1250.4375 520.2656,1250.75 L520.0938,1250.6719 Z " fill="#000000"/><text fill="#000000" font-family="sans-serif" font-size="14" lengthAdjust="spacing" textLength="58" x="538.25" y="1259.8467">Position</text><line style="stroke:#181818;stroke-width:0.5;" x1="398" x2="704" y1="1271" y2="1271"/><ellipse cx="408" cy="1284.6484" fill="none" rx="3" ry="3" style="stroke:#038048;stroke-width:1.0;"/><text fill="#000000" font-family="sans-serif" font-size="14" lengthAdjust="spacing" textLength="59" x="417" y="1287.9951">int Row;</text><ellipse cx="408" cy="1300.9453" fill="none" rx="3" ry="3" style="stroke:#038048;stroke-width:1.0;"/><text fill="#000000" font-family="sans-serif" font-size="14" lengthAdjust="spacing" textLength="83" x="417" y="1304.292">int Column;</text><line style="stroke:#181818;stroke-width:0.5;" x1="398" x2="704" y1="1311.5938" y2="1311.5938"/><ellipse cx="408" cy="1325.2422" fill="#84BE84" rx="3" ry="3" style="stroke:#038048;stroke-width:1.0;"/><text fill="#000000" font-family="sans-serif" font-size="14" lengthAdjust="spacing" textLength="207" x="417" y="1328.5889">Position(int row, int column);</text><ellipse cx="408" cy="1341.5391" fill="#84BE84" rx="3" ry="3" style="stroke:#038048;stroke-width:1.0;"/><text fill="#000000" font-family="sans-serif" font-size="14" lengthAdjust="spacing" textLength="73" x="417" y="1344.8857">Position();</text><ellipse cx="408" cy="1357.8359" fill="#84BE84" rx="3" ry="3" style="stroke:#038048;stroke-width:1.0;"/><text fill="#000000" font-family="sans-serif" font-size="14" lengthAdjust="spacing" textLength="175" x="417" y="1361.1826">Position(Position other);</text><ellipse cx="408" cy="1374.1328" fill="#84BE84" rx="3" ry="3" style="stroke:#038048;stroke-width:1.0;"/><text fill="#000000" font-family="sans-serif" font-size="14" lengthAdjust="spacing" textLength="282" x="417" y="1377.4795">void SumOtherPosition(Position other);</text></g><!--class Token--><g id="elem_Token"><rect codeLine="81" fill="#F1F1F1" height="96.8906" id="Token" rx="2.5" ry="2.5" style="stroke:#181818;stroke-width:0.5;" width="90" x="1243" y="1461"/><ellipse cx="1263.85" cy="1477" fill="#EB937F" rx="11" ry="11" style="stroke:#181818;stroke-width:1.0;"/><path d="M1262.6469,1477.875 L1264.1,1477.875 L1264.1,1477.9844 C1264.1,1478.3906 1264.1313,1478.5469 1264.2094,1478.7031 C1264.3656,1478.9531 1264.6469,1479.1094 1264.9438,1479.1094 C1265.1938,1479.1094 1265.4594,1478.9688 1265.6156,1478.75 C1265.7406,1478.5938 1265.7719,1478.4375 1265.7719,1477.9844 L1265.7719,1476.0625 C1265.7719,1475.9063 1265.7719,1475.8594 1265.7563,1475.7031 C1265.6938,1475.2344 1265.3813,1474.9219 1264.9281,1474.9219 C1264.6781,1474.9219 1264.4125,1475.0625 1264.2406,1475.2813 C1264.1313,1475.4531 1264.1,1475.6094 1264.1,1476.0625 L1264.1,1476.1875 L1262.6469,1476.1875 L1262.6469,1473.7813 L1266.6313,1473.7813 L1266.6313,1474.6406 C1266.6313,1475.0469 1266.6625,1475.2188 1266.7406,1475.375 C1266.9125,1475.625 1267.1938,1475.7813 1267.475,1475.7813 C1267.7406,1475.7813 1268.0063,1475.6406 1268.1781,1475.4219 C1268.2875,1475.25 1268.3188,1475.1094 1268.3188,1474.6406 L1268.3188,1472.0938 L1260.6938,1472.0938 C1260.2563,1472.0938 1260.1313,1472.1094 1259.975,1472.2031 C1259.725,1472.3594 1259.5688,1472.6563 1259.5688,1472.9375 C1259.5688,1473.2188 1259.7094,1473.4688 1259.9281,1473.6406 C1260.0844,1473.75 1260.2719,1473.7813 1260.6938,1473.7813 L1260.9438,1473.7813 L1260.9438,1480.2969 L1260.6938,1480.2969 C1260.2875,1480.2969 1260.1313,1480.3125 1259.975,1480.4219 C1259.725,1480.5938 1259.5688,1480.8594 1259.5688,1481.1563 C1259.5688,1481.4219 1259.7094,1481.6719 1259.9281,1481.8281 C1260.0688,1481.9531 1260.3031,1482 1260.6938,1482 L1268.6938,1482 L1268.6938,1479.4219 C1268.6938,1478.9844 1268.6625,1478.8438 1268.5844,1478.6875 C1268.4125,1478.4375 1268.1313,1478.2813 1267.85,1478.2813 C1267.5844,1478.2813 1267.3188,1478.3906 1267.1469,1478.6406 C1267.0375,1478.7969 1267.0063,1478.9375 1267.0063,1479.4219 L1267.0063,1480.2969 L1262.6469,1480.2969 L1262.6469,1477.875 Z " fill="#000000"/><text fill="#000000" font-family="sans-serif" font-size="14" lengthAdjust="spacing" textLength="45" x="1279.15" y="1481.8467">Token</text><line style="stroke:#181818;stroke-width:0.5;" x1="1244" x2="1332" y1="1493" y2="1493"/><ellipse cx="1254" cy="1506.6484" fill="none" rx="3" ry="3" style="stroke:#038048;stroke-width:1.0;"/><text fill="#000000" font-family="sans-serif" font-size="14" lengthAdjust="spacing" textLength="35" x="1263" y="1509.9951">RED;</text><ellipse cx="1254" cy="1522.9453" fill="none" rx="3" ry="3" style="stroke:#038048;stroke-width:1.0;"/><text fill="#000000" font-family="sans-serif" font-size="14" lengthAdjust="spacing" textLength="64" x="1263" y="1526.292">YELLOW;</text><ellipse cx="1254" cy="1539.2422" fill="none" rx="3" ry="3" style="stroke:#038048;stroke-width:1.0;"/><text fill="#000000" font-family="sans-serif" font-size="14" lengthAdjust="spacing" textLength="40" x="1263" y="1542.5889">NULL;</text><line style="stroke:#181818;stroke-width:0.5;" x1="1244" x2="1332" y1="1549.8906" y2="1549.8906"/></g><!--class TokenExtension--><g id="elem_TokenExtension"><rect codeLine="86" fill="#F1F1F1" height="64.2969" id="TokenExtension" rx="2.5" ry="2.5" style="stroke:#181818;stroke-width:0.5;" width="381" x="1243.5" y="1280"/><ellipse cx="1371.75" cy="1296" fill="#ADD1B2" rx="11" ry="11" style="stroke:#181818;stroke-width:1.0;"/><path d="M1374.0938,1291.6719 C1373.1563,1291.2344 1372.5625,1291.0938 1371.6875,1291.0938 C1369.0625,1291.0938 1367.0625,1293.1719 1367.0625,1295.8906 L1367.0625,1297.0156 C1367.0625,1299.5938 1369.1719,1301.4844 1372.0625,1301.4844 C1373.2813,1301.4844 1374.4375,1301.1875 1375.1875,1300.6406 C1375.7656,1300.2344 1376.0938,1299.7813 1376.0938,1299.3906 C1376.0938,1298.9375 1375.7031,1298.5469 1375.2344,1298.5469 C1375.0156,1298.5469 1374.8125,1298.625 1374.625,1298.8125 C1374.1719,1299.2969 1374.1719,1299.2969 1373.9844,1299.3906 C1373.5625,1299.6563 1372.875,1299.7813 1372.1094,1299.7813 C1370.0625,1299.7813 1368.7656,1298.6875 1368.7656,1296.9844 L1368.7656,1295.8906 C1368.7656,1294.1094 1370.0156,1292.7969 1371.75,1292.7969 C1372.3281,1292.7969 1372.9375,1292.9531 1373.4063,1293.2031 C1373.8906,1293.4844 1374.0625,1293.7031 1374.1563,1294.1094 C1374.2188,1294.5156 1374.25,1294.6406 1374.3906,1294.7656 C1374.5313,1294.9063 1374.7656,1295.0156 1374.9844,1295.0156 C1375.25,1295.0156 1375.5156,1294.875 1375.6875,1294.6563 C1375.7969,1294.5 1375.8281,1294.3125 1375.8281,1293.8906 L1375.8281,1292.4688 C1375.8281,1292.0313 1375.8125,1291.9063 1375.7188,1291.75 C1375.5625,1291.4844 1375.2813,1291.3438 1374.9844,1291.3438 C1374.6875,1291.3438 1374.4844,1291.4375 1374.2656,1291.75 L1374.0938,1291.6719 Z " fill="#000000"/><text fill="#000000" font-family="sans-serif" font-size="14" lengthAdjust="spacing" textLength="116" x="1392.25" y="1300.8467">TokenExtension</text><line style="stroke:#181818;stroke-width:0.5;" x1="1244.5" x2="1623.5" y1="1312" y2="1312"/><line style="stroke:#181818;stroke-width:0.5;" x1="1244.5" x2="1623.5" y1="1320" y2="1320"/><polygon fill="#4177AF" points="1254.5,1329.6484,1250.5,1335.6484,1258.5,1335.6484" style="stroke:#1963A0;stroke-width:1.0;"/><text fill="#000000" font-family="sans-serif" font-size="14" lengthAdjust="spacing" textLength="355" x="1263.5" y="1336.9951">static Token GetTokenFromNumber(int number);</text></g><!--class Orientation--><g id="elem_Orientation"><rect codeLine="92" fill="#F1F1F1" height="178.375" id="Orientation" rx="2.5" ry="2.5" style="stroke:#181818;stroke-width:0.5;" width="325" x="811.5" y="1223"/><ellipse cx="928.25" cy="1239" fill="#ADD1B2" rx="11" ry="11" style="stroke:#181818;stroke-width:1.0;"/><path d="M930.5938,1234.6719 C929.6563,1234.2344 929.0625,1234.0938 928.1875,1234.0938 C925.5625,1234.0938 923.5625,1236.1719 923.5625,1238.8906 L923.5625,1240.0156 C923.5625,1242.5938 925.6719,1244.4844 928.5625,1244.4844 C929.7813,1244.4844 930.9375,1244.1875 931.6875,1243.6406 C932.2656,1243.2344 932.5938,1242.7813 932.5938,1242.3906 C932.5938,1241.9375 932.2031,1241.5469 931.7344,1241.5469 C931.5156,1241.5469 931.3125,1241.625 931.125,1241.8125 C930.6719,1242.2969 930.6719,1242.2969 930.4844,1242.3906 C930.0625,1242.6563 929.375,1242.7813 928.6094,1242.7813 C926.5625,1242.7813 925.2656,1241.6875 925.2656,1239.9844 L925.2656,1238.8906 C925.2656,1237.1094 926.5156,1235.7969 928.25,1235.7969 C928.8281,1235.7969 929.4375,1235.9531 929.9063,1236.2031 C930.3906,1236.4844 930.5625,1236.7031 930.6563,1237.1094 C930.7188,1237.5156 930.75,1237.6406 930.8906,1237.7656 C931.0313,1237.9063 931.2656,1238.0156 931.4844,1238.0156 C931.75,1238.0156 932.0156,1237.875 932.1875,1237.6563 C932.2969,1237.5 932.3281,1237.3125 932.3281,1236.8906 L932.3281,1235.4688 C932.3281,1235.0313 932.3125,1234.9063 932.2188,1234.75 C932.0625,1234.4844 931.7813,1234.3438 931.4844,1234.3438 C931.1875,1234.3438 930.9844,1234.4375 930.7656,1234.75 L930.5938,1234.6719 Z " fill="#000000"/><text fill="#000000" font-family="sans-serif" font-size="14" lengthAdjust="spacing" textLength="83" x="948.75" y="1243.8467">Orientation</text><line style="stroke:#181818;stroke-width:0.5;" x1="812.5" x2="1135.5" y1="1255" y2="1255"/><line style="stroke:#181818;stroke-width:0.5;" x1="812.5" x2="1135.5" y1="1263" y2="1263"/><polygon fill="#4177AF" points="822.5,1272.6484,818.5,1278.6484,826.5,1278.6484" style="stroke:#1963A0;stroke-width:1.0;"/><text fill="#000000" font-family="sans-serif" font-size="14" lengthAdjust="spacing" textLength="252" x="831.5" y="1279.9951">static Position NORTH = new(-1, 0);</text><polygon fill="#4177AF" points="822.5,1288.9453,818.5,1294.9453,826.5,1294.9453" style="stroke:#1963A0;stroke-width:1.0;"/><text fill="#000000" font-family="sans-serif" font-size="14" lengthAdjust="spacing" textLength="244" x="831.5" y="1296.292">static Position SOUTH = new(1, 0);</text><polygon fill="#4177AF" points="822.5,1305.2422,818.5,1311.2422,826.5,1311.2422" style="stroke:#1963A0;stroke-width:1.0;"/><text fill="#000000" font-family="sans-serif" font-size="14" lengthAdjust="spacing" textLength="233" x="831.5" y="1312.5889">static Position EAST = new(0, 1);</text><polygon fill="#4177AF" points="822.5,1321.5391,818.5,1327.5391,826.5,1327.5391" style="stroke:#1963A0;stroke-width:1.0;"/><text fill="#000000" font-family="sans-serif" font-size="14" lengthAdjust="spacing" textLength="243" x="831.5" y="1328.8857">static Position WEST = new(0, -1);</text><polygon fill="#4177AF" points="822.5,1337.8359,818.5,1343.8359,826.5,1343.8359" style="stroke:#1963A0;stroke-width:1.0;"/><text fill="#000000" font-family="sans-serif" font-size="14" lengthAdjust="spacing" textLength="289" x="831.5" y="1345.1826">static Position NORTHEAST = new(-1, 1);</text><polygon fill="#4177AF" points="822.5,1354.1328,818.5,1360.1328,826.5,1360.1328" style="stroke:#1963A0;stroke-width:1.0;"/><text fill="#000000" font-family="sans-serif" font-size="14" lengthAdjust="spacing" textLength="299" x="831.5" y="1361.4795">static Position NORTHWEST = new(-1, -1);</text><polygon fill="#4177AF" points="822.5,1370.4297,818.5,1376.4297,826.5,1376.4297" style="stroke:#1963A0;stroke-width:1.0;"/><text fill="#000000" font-family="sans-serif" font-size="14" lengthAdjust="spacing" textLength="281" x="831.5" y="1377.7764">static Position SOUTHEAST = new(1, 1);</text><polygon fill="#4177AF" points="822.5,1386.7266,818.5,1392.7266,826.5,1392.7266" style="stroke:#1963A0;stroke-width:1.0;"/><text fill="#000000" font-family="sans-serif" font-size="14" lengthAdjust="spacing" textLength="291" x="831.5" y="1394.0732">static Position SOUTHWEST = new(1, -1);</text></g><!--link Game to Board--><g id="link_Game_Board"><path codeLine="72" d="M406.1197,277.7132 C391.5807,296.6232 385.444,307.34 375,328 C290.584,494.99 297.287,558.92 317,745 C319.07,764.54 321.0361,778.9239 324.5611,799.0539 " fill="none" id="Game-Board" style="stroke:#181818;stroke-width:1.0;"/><polygon fill="#181818" points="413.434,268.2,406.6058,270.5185,406.1197,277.7132,412.9479,275.3947,413.434,268.2" style="stroke:#181818;stroke-width:1.0;"/><polygon fill="#181818" points="325.596,804.964,327.9837,795.4089,324.7336,800.0389,320.1036,796.7888,325.596,804.964" style="stroke:#181818;stroke-width:1.0;"/></g><!--link Game to Turn--><g id="link_Game_Turn"><path codeLine="73" d="M527.2401,280.0159 C527.7571,299.8859 527.8227,302.422 528.3277,321.802 " fill="none" id="Game-Turn" style="stroke:#181818;stroke-width:1.0;"/><polygon fill="#181818" points="526.928,268.02,523.0854,274.122,527.2401,280.0159,531.0827,273.9139,526.928,268.02" style="stroke:#181818;stroke-width:1.0;"/><polygon fill="#181818" points="528.484,327.8,532.2482,318.6989,528.3538,322.8017,524.2509,318.9072,528.484,327.8" style="stroke:#181818;stroke-width:1.0;"/></g><!--link Turn to Board--><g id="link_Turn_Board"><path codeLine="74" d="M386.9367,531.9481 C370.2837,549.8581 363.859,561.12 354,583 C323.238,651.261 320.2234,726.955 327.7754,798.644 " fill="none" id="Turn-Board" style="stroke:#181818;stroke-width:1.0;"/><polygon fill="#181818" points="395.108,523.16,388.093,524.8303,386.9367,531.9481,393.9517,530.2778,395.108,523.16" style="stroke:#181818;stroke-width:1.0;"/><polygon fill="#181818" points="328.404,804.611,331.4391,795.2415,327.8802,799.6385,323.4831,796.0796,328.404,804.611" style="stroke:#181818;stroke-width:1.0;"/></g><!--link Turn to Player--><g id="link_Turn_Player"><path codeLine="75" d="M534.2121,535.0247 C534.8021,554.9547 534.8845,557.7426 535.4545,577.0026 " fill="none" id="Turn-Player" style="stroke:#181818;stroke-width:1.0;"/><polygon fill="#181818" points="533.857,523.03,530.0363,529.1457,534.2121,535.0247,538.0328,528.909,533.857,523.03" style="stroke:#181818;stroke-width:1.0;"/><polygon fill="#181818" points="535.632,583,539.364,573.8856,535.4841,578.0022,531.3675,574.1223,535.632,583" style="stroke:#181818;stroke-width:1.0;"/><text fill="#000000" font-family="sans-serif" font-size="13" lengthAdjust="spacing" textLength="8" x="527.045" y="571.9108">2</text></g><!--link Player to Board--><g id="link_Player_Board"><path codeLine="76" d="M489.4442,755.8275 C479.5582,774.3185 477.1437,778.8376 466.0057,799.6726 " fill="none" id="Player-Board" style="stroke:#181818;stroke-width:1.0;"/><polygon fill="#181818" points="495.102,745.245,488.7456,748.6503,489.4442,755.8275,495.8006,752.4222,495.102,745.245" style="stroke:#181818;stroke-width:1.0;"/><polygon fill="#181818" points="463.177,804.964,470.9476,798.9127,465.5342,800.5545,463.8924,795.1412,463.177,804.964" style="stroke:#181818;stroke-width:1.0;"/></g><!--link Board to Line--><g id="link_Board_Line"><path codeLine="77" d="M271.761,1163.261 C257.315,1190.018 246.0195,1210.9413 233.7465,1233.6733 " fill="none" id="Board-to-Line" style="stroke:#181818;stroke-width:1.0;"/><polygon fill="#181818" points="230.896,1238.953,238.6915,1232.9338,233.2714,1234.5533,231.652,1229.1332,230.896,1238.953" style="stroke:#181818;stroke-width:1.0;"/></g><!--link Board to Position--><g id="link_Board_Position"><path codeLine="78" d="M473.941,1173.7251 C488.961,1200.4821 494.8589,1210.989 507.6199,1233.721 " fill="none" id="Board-Position" style="stroke:#181818;stroke-width:1.0;"/><polygon fill="#181818" points="468.067,1163.261,467.516,1170.451,473.941,1173.7251,474.492,1166.535,468.067,1163.261" style="stroke:#181818;stroke-width:1.0;"/><polygon fill="#181818" points="510.557,1238.953,509.6394,1229.147,508.1094,1234.593,502.6634,1233.0631,510.557,1238.953" style="stroke:#181818;stroke-width:1.0;"/></g><!--link TokenExtension to Token--><g id="link_TokenExtension_Token"><path codeLine="89" d="M1410.54,1344.41 C1387.09,1375.82 1354.3006,1419.725 1327.2606,1455.925 " fill="none" id="TokenExtension-to-Token" style="stroke:#181818;stroke-width:1.0;stroke-dasharray:7.0,7.0;"/><polygon fill="#181818" points="1323.67,1460.732,1332.2606,1455.9153,1326.6622,1456.7262,1325.8513,1451.1277,1323.67,1460.732" style="stroke:#181818;stroke-width:1.0;"/></g><!--link Game to Token--><g id="link_Game_Token"><path codeLine="104" d="M705.264,195.63 C1030.14,272.83 1678,453.09 1678,663 C1678,663 1678,663 1678,985 C1678,1181.209 1769.95,1276.253 1642,1425 C1602.06,1471.434 1425.3282,1494.827 1339.1782,1503.7331 " fill="none" id="Game-to-Token" style="stroke:#181818;stroke-width:1.0;stroke-dasharray:7.0,7.0;"/><polygon fill="#181818" points="1333.21,1504.3501,1342.5736,1507.4034,1338.1835,1503.8359,1341.751,1499.4458,1333.21,1504.3501" style="stroke:#181818;stroke-width:1.0;"/></g><!--link Board to Token--><g id="link_Board_Token"><path codeLine="105" d="M712.8527,1168.8391 C718.9267,1175.2671 716.496,1173.172 722,1180 C793.306,1268.459 709.918,1349.698 795,1425 C861.143,1483.54 1127.6663,1501.4985 1236.6563,1506.5153 " fill="none" id="Board-Token" style="stroke:#181818;stroke-width:1.0;"/><polygon fill="#181818" points="704.611,1160.117,705.8245,1167.2253,712.8527,1168.8391,711.6392,1161.7308,704.611,1160.117" style="stroke:#181818;stroke-width:1.0;"/><polygon fill="#181818" points="1242.65,1506.7912,1233.8434,1502.3816,1237.6553,1506.5613,1233.4756,1510.3731,1242.65,1506.7912" style="stroke:#181818;stroke-width:1.0;"/></g><!--link Board to Orientation--><g id="link_Board_Orientation"><path codeLine="106" d="M704.521,1136.85 C731.697,1150.892 758.489,1165.36 784,1180 C806.675,1193.012 825.1468,1204.5661 847.5178,1219.5301 " fill="none" id="Board-to-Orientation" style="stroke:#181818;stroke-width:1.0;stroke-dasharray:7.0,7.0;"/><polygon fill="#181818" points="852.505,1222.866,847.2482,1214.5374,848.349,1220.0861,842.8003,1221.1869,852.505,1222.866" style="stroke:#181818;stroke-width:1.0;"/></g><!--link Turn to TokenExtension--><g id="link_Turn_TokenExtension"><path codeLine="107" d="M649.781,523.14 C673.769,542.85 698.754,563.52 722,583 C838.198,680.384 872.646,698.957 981,805 C1154.38,974.682 1337.8696,1193.8302 1404.7196,1275.1442 " fill="none" id="Turn-to-TokenExtension" style="stroke:#181818;stroke-width:1.0;stroke-dasharray:7.0,7.0;"/><polygon fill="#181818" points="1408.53,1279.779,1405.9043,1270.2866,1405.3547,1275.9167,1399.7246,1275.3671,1408.53,1279.779" style="stroke:#181818;stroke-width:1.0;"/></g><!--link Player to Token--><g id="link_Player_Token"><path codeLine="108" d="M685.9465,751.596 C826.4975,840.406 1030.65,990.035 1153,1180 C1214.52,1275.523 1175.14,1323.4 1226,1425 C1232.14,1437.271 1236.5857,1444.7519 1244.7457,1456.0439 " fill="none" id="Player-Token" style="stroke:#181818;stroke-width:1.0;"/><polygon fill="#181818" points="675.802,745.186,678.7376,751.7725,685.9465,751.596,683.0109,745.0095,675.802,745.186" style="stroke:#181818;stroke-width:1.0;"/><polygon fill="#181818" points="1248.26,1460.907,1246.2307,1451.2695,1245.3314,1456.8544,1239.7465,1455.9552,1248.26,1460.907" style="stroke:#181818;stroke-width:1.0;"/></g><!--link Line to Token--><g id="link_Line_Token"><path codeLine="109" d="M304.1757,1391.2058 C330.7827,1406.8658 349.861,1415.485 379,1425 C542.548,1478.404 1076.5638,1501.071 1236.8038,1506.7887 " fill="none" id="Line-Token" style="stroke:#181818;stroke-width:1.0;"/><polygon fill="none" points="293.834,1385.119,296.9759,1391.6096,304.1757,1391.2058,301.0338,1384.7152,293.834,1385.119" style="stroke:#181818;stroke-width:1.0;"/><polygon fill="#181818" points="1242.8,1507.0027,1233.9484,1502.6843,1237.8032,1506.8244,1233.6631,1510.6792,1242.8,1507.0027" style="stroke:#181818;stroke-width:1.0;"/></g><!--link Orientation to Position--><g id="link_Orientation_Position"><path codeLine="110" d="M799.441,1312 C763.987,1312 746.534,1312 711.081,1312 " fill="none" id="Orientation-Position" style="stroke:#181818;stroke-width:1.0;"/><polygon fill="#181818" points="811.441,1312,805.441,1308,799.441,1312,805.441,1316,811.441,1312" style="stroke:#181818;stroke-width:1.0;"/><polygon fill="#181818" points="705.081,1312,714.081,1316,710.081,1312,714.081,1308,705.081,1312" style="stroke:#181818;stroke-width:1.0;"/></g><!--SRC=[hLPRJzim57xdLrXxAXkjO9gs1xPA8GI8bYQebtK8JIWa1Y9IktCSRXFyzjd7iUCaRTcclKI9_PtFvtpduYpZv3Q-ncX4KvmNlxOGIlAuAD1nlC3o2w4-OZXEASaVqG6DMOekvNE_lJSj6K5SFDJEEs3eRUklARt5vFp7-GzqZ3dmm4fH8oufpP5Vk9GGd72S7j6ITNR1qgMBPOwvnNwQnu-OIUgG4YVXsHrMIwiWg_VlQ9QY43_mrj9foS7JNaOuIcXUBaXOBYunQxhcniGd1MRS9vow05jjyMmabehzbSJAPI7X4buA3O1pIiOmuGfYH1SdjC9nRs9oZUqDPIzqYVWDPeh09ob- -F_oRjQoLaOPAsrU190K79mSET_zqMnqCOs-Uk55E1iTU6Fq1RtVsryBFGsSCsyyiS0wwexIxwnYbbwgfoqIXv8Dy1LtQKbuC_QUCWBCZirUQ_I7uODjD_g3o1aVNhXHC1k54n79f_qra74qb_iVk_jptvBjm-gmeKbLStOha1OPpoX1mayLYrxHNE1xNLgGTfy8I9ndJxXgNnbviQus6ZAkQRgNlsmwgygFCbPmRx7aZsDwxvFNhDGvDpYvzQ-2ZE2Jk3MXZ2I9K8bZYJdCcDWNQpkrO4MUfVM6ePTmv1hBcesoJBHpt00NyZlHe_2RK5HeILcQ4M5kEMBMcb7unObWVQA2DbyvPGtkcv0qIrv37MRnDIMleNno9zXmkX7zxzE_xXgfNsUS1bd1FqD53QlkrPGWTxC4dJJjb60JCP5Pb9RpZDz41A-7WySEmqwUgrxoVfPnNZWa3IaFopolpwuAKrKohkv5633j47MAVrcMeefj8bNFPk9K1b3VZDxR3RNT0NLNwdAKTqDBYtAXRemDOEcw_0z0R_lz8MJFNf2taFY6FuUt_PJUa_uGQLHpzStxDzMO5LlLNTCnKJDN4CiCcMzvaebewtbhMVtnUAHSm0yF5Yzgu6bTnzwX3lNC2u9ele-gpt0M13gmgXshorpQUmzSfCuaw4L3L8687CFB4QCBDMKWBQHv1JI9q60mL4kMvwwSvp7Xu7t3YwYU6YqNJ7B2Q3mz4TEVuFjUVsy7xPgHsaPEefb1RWHwpcHQuNPtqDvQtDopSVtrGF3HOfL-leAsk2Lw0pc4PP5lv0QmnLrJFuk4RAc_vW5KjCmKrDH0vQlQiufmxQuqDKaTM4dKC6Y6rW6cHZJ8j4LVbqor0PSCrTrYUx7oKCMWIIibVWC0]--></g></svg>