<?xml version="1.0" encoding="us-ascii" standalone="no"?><svg xmlns="http://www.w3.org/2000/svg" xmlns:xlink="http://www.w3.org/1999/xlink" contentStyleType="text/css" height="325px" preserveAspectRatio="none" style="width:289px;height:325px;background:#FFFFFF;" version="1.1" viewBox="0 0 289 325" width="289px" zoomAndPan="magnify"><defs/><g><!--cluster ConnectFour--><g id="cluster_ConnectFour"><path d="M8.5,6 L111.5,6 A3.75,3.75 0 0 1 114,8.5 L121,28.2969 L279.5,28.2969 A2.5,2.5 0 0 1 282,30.7969 L282,315.5 A2.5,2.5 0 0 1 279.5,318 L8.5,318 A2.5,2.5 0 0 1 6,315.5 L6,8.5 A2.5,2.5 0 0 1 8.5,6 " fill="none" style="stroke:#000000;stroke-width:1.5;"/><line style="stroke:#000000;stroke-width:1.5;" x1="6" x2="121" y1="28.2969" y2="28.2969"/><text fill="#000000" font-family="sans-serif" font-size="14" font-weight="bold" lengthAdjust="spacing" textLength="102" x="10" y="20.9951">ConnectFour</text></g><!--cluster Models--><g id="cluster_Models"><path d="M32.5,195 L90.5,195 A3.75,3.75 0 0 1 93,197.5 L100,217.2969 L133.5,217.2969 A2.5,2.5 0 0 1 136,219.7969 L136,291.5 A2.5,2.5 0 0 1 133.5,294 L32.5,294 A2.5,2.5 0 0 1 30,291.5 L30,197.5 A2.5,2.5 0 0 1 32.5,195 " fill="none" style="stroke:#000000;stroke-width:1.5;"/><line style="stroke:#000000;stroke-width:1.5;" x1="30" x2="100" y1="217.2969" y2="217.2969"/><text fill="#000000" font-family="sans-serif" font-size="14" font-weight="bold" lengthAdjust="spacing" textLength="57" x="34" y="209.9951">Models</text></g><!--cluster Views--><g id="cluster_Views"><path d="M162.5,195 L210.5,195 A3.75,3.75 0 0 1 213,197.5 L220,217.2969 L255.5,217.2969 A2.5,2.5 0 0 1 258,219.7969 L258,291.5 A2.5,2.5 0 0 1 255.5,294 L162.5,294 A2.5,2.5 0 0 1 160,291.5 L160,197.5 A2.5,2.5 0 0 1 162.5,195 " fill="none" style="stroke:#000000;stroke-width:1.5;"/><line style="stroke:#000000;stroke-width:1.5;" x1="160" x2="220" y1="217.2969" y2="217.2969"/><text fill="#000000" font-family="sans-serif" font-size="14" font-weight="bold" lengthAdjust="spacing" textLength="47" x="164" y="209.9951">Views</text></g><!--class ConnectFour--><g id="elem_ConnectFour"><rect codeLine="2" fill="#F1F1F1" height="129.4844" id="ConnectFour" rx="2.5" ry="2.5" style="stroke:#181818;stroke-width:0.5;" width="183" x="52.5" y="41"/><ellipse cx="94.05" cy="57" fill="#ADD1B2" rx="11" ry="11" style="stroke:#181818;stroke-width:1.0;"/><path d="M96.3938,52.6719 C95.4563,52.2344 94.8625,52.0938 93.9875,52.0938 C91.3625,52.0938 89.3625,54.1719 89.3625,56.8906 L89.3625,58.0156 C89.3625,60.5938 91.4719,62.4844 94.3625,62.4844 C95.5813,62.4844 96.7375,62.1875 97.4875,61.6406 C98.0656,61.2344 98.3938,60.7813 98.3938,60.3906 C98.3938,59.9375 98.0031,59.5469 97.5344,59.5469 C97.3156,59.5469 97.1125,59.625 96.925,59.8125 C96.4719,60.2969 96.4719,60.2969 96.2844,60.3906 C95.8625,60.6563 95.175,60.7813 94.4094,60.7813 C92.3625,60.7813 91.0656,59.6875 91.0656,57.9844 L91.0656,56.8906 C91.0656,55.1094 92.3156,53.7969 94.05,53.7969 C94.6281,53.7969 95.2375,53.9531 95.7063,54.2031 C96.1906,54.4844 96.3625,54.7031 96.4563,55.1094 C96.5188,55.5156 96.55,55.6406 96.6906,55.7656 C96.8313,55.9063 97.0656,56.0156 97.2844,56.0156 C97.55,56.0156 97.8156,55.875 97.9875,55.6563 C98.0969,55.5 98.1281,55.3125 98.1281,54.8906 L98.1281,53.4688 C98.1281,53.0313 98.1125,52.9063 98.0188,52.75 C97.8625,52.4844 97.5813,52.3438 97.2844,52.3438 C96.9875,52.3438 96.7844,52.4375 96.5656,52.75 L96.3938,52.6719 Z " fill="#000000"/><text fill="#000000" font-family="sans-serif" font-size="14" lengthAdjust="spacing" textLength="92" x="113.95" y="61.8467">ConnectFour</text><line style="stroke:#181818;stroke-width:0.5;" x1="53.5" x2="234.5" y1="73" y2="73"/><rect fill="none" height="6" style="stroke:#C82930;stroke-width:1.0;" width="6" x="60.5" y="83.6484"/><text fill="#000000" font-family="sans-serif" font-size="14" lengthAdjust="spacing" textLength="157" x="72.5" y="89.9951">readonly Game game;</text><rect fill="none" height="6" style="stroke:#C82930;stroke-width:1.0;" width="6" x="60.5" y="99.9453"/><text fill="#000000" font-family="sans-serif" font-size="14" lengthAdjust="spacing" textLength="141" x="72.5" y="106.292">readonly View view;</text><line style="stroke:#181818;stroke-width:0.5;" x1="53.5" x2="234.5" y1="113.5938" y2="113.5938"/><ellipse cx="63.5" cy="127.2422" fill="#84BE84" rx="3" ry="3" style="stroke:#038048;stroke-width:1.0;"/><text fill="#000000" font-family="sans-serif" font-size="14" lengthAdjust="spacing" textLength="107" x="72.5" y="130.5889">ConnectFour();</text><ellipse cx="63.5" cy="143.5391" fill="#84BE84" rx="3" ry="3" style="stroke:#038048;stroke-width:1.0;"/><text fill="#000000" font-family="sans-serif" font-size="14" lengthAdjust="spacing" textLength="44" x="72.5" y="146.8857">Play();</text><ellipse cx="63.5" cy="159.8359" fill="#84BE84" rx="3" ry="3" style="stroke:#038048;stroke-width:1.0;"/><text fill="#000000" font-family="sans-serif" font-size="14" lengthAdjust="spacing" textLength="48" x="72.5" y="163.1826">Main();</text></g><!--class Game--><g id="elem_Game"><rect codeLine="11" fill="#F1F1F1" height="48" id="Game" rx="2.5" ry="2.5" style="stroke:#181818;stroke-width:0.5;" width="74" x="46" y="230"/><ellipse cx="61" cy="246" fill="#ADD1B2" rx="11" ry="11" style="stroke:#181818;stroke-width:1.0;"/><path d="M63.3438,241.6719 C62.4063,241.2344 61.8125,241.0938 60.9375,241.0938 C58.3125,241.0938 56.3125,243.1719 56.3125,245.8906 L56.3125,247.0156 C56.3125,249.5938 58.4219,251.4844 61.3125,251.4844 C62.5313,251.4844 63.6875,251.1875 64.4375,250.6406 C65.0156,250.2344 65.3438,249.7813 65.3438,249.3906 C65.3438,248.9375 64.9531,248.5469 64.4844,248.5469 C64.2656,248.5469 64.0625,248.625 63.875,248.8125 C63.4219,249.2969 63.4219,249.2969 63.2344,249.3906 C62.8125,249.6563 62.125,249.7813 61.3594,249.7813 C59.3125,249.7813 58.0156,248.6875 58.0156,246.9844 L58.0156,245.8906 C58.0156,244.1094 59.2656,242.7969 61,242.7969 C61.5781,242.7969 62.1875,242.9531 62.6563,243.2031 C63.1406,243.4844 63.3125,243.7031 63.4063,244.1094 C63.4688,244.5156 63.5,244.6406 63.6406,244.7656 C63.7813,244.9063 64.0156,245.0156 64.2344,245.0156 C64.5,245.0156 64.7656,244.875 64.9375,244.6563 C65.0469,244.5 65.0781,244.3125 65.0781,243.8906 L65.0781,242.4688 C65.0781,242.0313 65.0625,241.9063 64.9688,241.75 C64.8125,241.4844 64.5313,241.3438 64.2344,241.3438 C63.9375,241.3438 63.7344,241.4375 63.5156,241.75 L63.3438,241.6719 Z " fill="#000000"/><text fill="#000000" font-family="sans-serif" font-size="14" lengthAdjust="spacing" textLength="42" x="75" y="250.8467">Game</text><line style="stroke:#181818;stroke-width:0.5;" x1="47" x2="119" y1="262" y2="262"/><line style="stroke:#181818;stroke-width:0.5;" x1="47" x2="119" y1="270" y2="270"/></g><!--class View--><g id="elem_View"><rect codeLine="12" fill="#F1F1F1" height="48" id="View" rx="2.5" ry="2.5" style="stroke:#181818;stroke-width:0.5;" width="66" x="176" y="230"/><ellipse cx="191" cy="246" fill="#ADD1B2" rx="11" ry="11" style="stroke:#181818;stroke-width:1.0;"/><path d="M193.3438,241.6719 C192.4063,241.2344 191.8125,241.0938 190.9375,241.0938 C188.3125,241.0938 186.3125,243.1719 186.3125,245.8906 L186.3125,247.0156 C186.3125,249.5938 188.4219,251.4844 191.3125,251.4844 C192.5313,251.4844 193.6875,251.1875 194.4375,250.6406 C195.0156,250.2344 195.3438,249.7813 195.3438,249.3906 C195.3438,248.9375 194.9531,248.5469 194.4844,248.5469 C194.2656,248.5469 194.0625,248.625 193.875,248.8125 C193.4219,249.2969 193.4219,249.2969 193.2344,249.3906 C192.8125,249.6563 192.125,249.7813 191.3594,249.7813 C189.3125,249.7813 188.0156,248.6875 188.0156,246.9844 L188.0156,245.8906 C188.0156,244.1094 189.2656,242.7969 191,242.7969 C191.5781,242.7969 192.1875,242.9531 192.6563,243.2031 C193.1406,243.4844 193.3125,243.7031 193.4063,244.1094 C193.4688,244.5156 193.5,244.6406 193.6406,244.7656 C193.7813,244.9063 194.0156,245.0156 194.2344,245.0156 C194.5,245.0156 194.7656,244.875 194.9375,244.6563 C195.0469,244.5 195.0781,244.3125 195.0781,243.8906 L195.0781,242.4688 C195.0781,242.0313 195.0625,241.9063 194.9688,241.75 C194.8125,241.4844 194.5313,241.3438 194.2344,241.3438 C193.9375,241.3438 193.7344,241.4375 193.5156,241.75 L193.3438,241.6719 Z " fill="#000000"/><text fill="#000000" font-family="sans-serif" font-size="14" lengthAdjust="spacing" textLength="34" x="205" y="250.8467">View</text><line style="stroke:#181818;stroke-width:0.5;" x1="177" x2="241" y1="262" y2="262"/><line style="stroke:#181818;stroke-width:0.5;" x1="177" x2="241" y1="270" y2="270"/></g><!--link ConnectFour to View--><g id="link_ConnectFour_View"><path codeLine="13" d="M177.1878,181.2998 C186.5618,202.4268 189.1066,208.1636 196.2346,224.2286 " fill="none" id="ConnectFour-View" style="stroke:#181818;stroke-width:1.0;"/><polygon fill="#181818" points="172.321,170.331,171.0982,177.4377,177.1878,181.2998,178.4107,174.1931,172.321,170.331" style="stroke:#181818;stroke-width:1.0;"/><polygon fill="#181818" points="198.668,229.713,198.6741,219.8641,196.6402,225.1427,191.3616,223.1087,198.668,229.713" style="stroke:#181818;stroke-width:1.0;"/></g><!--link ConnectFour to Game--><g id="link_ConnectFour_Game"><path codeLine="14" d="M112.8093,181.409 C104.0123,202.536 101.6913,208.109 95.0023,224.174 " fill="none" id="ConnectFour-Game" style="stroke:#181818;stroke-width:1.0;"/><polygon fill="#181818" points="117.422,170.331,111.423,174.3324,112.8093,181.409,118.8083,177.4076,117.422,170.331" style="stroke:#181818;stroke-width:1.0;"/><polygon fill="#181818" points="92.696,229.713,99.8481,222.942,94.6179,225.0971,92.4627,219.8669,92.696,229.713" style="stroke:#181818;stroke-width:1.0;"/></g><!--SRC=[AqXCpavCJrLmpi_BIqqkSSilBLAevb9GICv9B2v65WK9AYZeAXIb9gRav-LKAhWdvgOgf0C9QtIPiCpKSeKo806HqKOsHaCJ9XYGarY9uFacPkP1UBLSjLnS6DRh-UQdfEOKwu5ihQx58W-oj1XC0gMH9P1zfgMRab-Ufsi7TY9XLI3B0000]--></g></svg>