<?xml version="1.0" encoding="us-ascii" standalone="no"?><svg xmlns="http://www.w3.org/2000/svg" xmlns:xlink="http://www.w3.org/1999/xlink" contentStyleType="text/css" height="1178px" preserveAspectRatio="none" style="width:1086px;height:1178px;background:#FFFFFF;" version="1.1" viewBox="0 0 1086 1178" width="1086px" zoomAndPan="magnify"><defs/><g><!--class ConnectFour--><g id="elem_ConnectFour"><rect codeLine="1" fill="#F1F1F1" height="162.0781" id="ConnectFour" rx="2.5" ry="2.5" style="stroke:#181818;stroke-width:0.5;" width="203" x="489.3811" y="7"/><ellipse cx="540.6311" cy="23" fill="#ADD1B2" rx="11" ry="11" style="stroke:#181818;stroke-width:1.0;"/><path d="M542.9749,18.6719 C542.0374,18.2344 541.4436,18.0938 540.5686,18.0938 C537.9436,18.0938 535.9436,20.1719 535.9436,22.8906 L535.9436,24.0156 C535.9436,26.5938 538.053,28.4844 540.9436,28.4844 C542.1624,28.4844 543.3186,28.1875 544.0686,27.6406 C544.6467,27.2344 544.9749,26.7813 544.9749,26.3906 C544.9749,25.9375 544.5842,25.5469 544.1155,25.5469 C543.8967,25.5469 543.6936,25.625 543.5061,25.8125 C543.053,26.2969 543.053,26.2969 542.8655,26.3906 C542.4436,26.6563 541.7561,26.7813 540.9905,26.7813 C538.9436,26.7813 537.6467,25.6875 537.6467,23.9844 L537.6467,22.8906 C537.6467,21.1094 538.8967,19.7969 540.6311,19.7969 C541.2092,19.7969 541.8186,19.9531 542.2874,20.2031 C542.7717,20.4844 542.9436,20.7031 543.0374,21.1094 C543.0999,21.5156 543.1311,21.6406 543.2717,21.7656 C543.4124,21.9063 543.6467,22.0156 543.8655,22.0156 C544.1311,22.0156 544.3967,21.875 544.5686,21.6563 C544.678,21.5 544.7092,21.3125 544.7092,20.8906 L544.7092,19.4688 C544.7092,19.0313 544.6936,18.9063 544.5999,18.75 C544.4436,18.4844 544.1624,18.3438 543.8655,18.3438 C543.5686,18.3438 543.3655,18.4375 543.1467,18.75 L542.9749,18.6719 Z " fill="#000000"/><text fill="#000000" font-family="sans-serif" font-size="14" lengthAdjust="spacing" textLength="92" x="561.1311" y="27.8467">ConnectFour</text><line style="stroke:#181818;stroke-width:0.5;" x1="490.3811" x2="691.3811" y1="39" y2="39"/><rect fill="none" height="6" style="stroke:#C82930;stroke-width:1.0;" width="6" x="497.3811" y="49.6484"/><text fill="#000000" font-family="sans-serif" font-size="14" lengthAdjust="spacing" textLength="93" x="509.3811" y="55.9951">Board board;</text><rect fill="none" height="6" style="stroke:#C82930;stroke-width:1.0;" width="6" x="497.3811" y="65.9453"/><text fill="#000000" font-family="sans-serif" font-size="14" lengthAdjust="spacing" textLength="71" x="509.3811" y="72.292">Turn turn;</text><line style="stroke:#181818;stroke-width:0.5;" x1="490.3811" x2="691.3811" y1="79.5938" y2="79.5938"/><ellipse cx="500.3811" cy="93.2422" fill="#84BE84" rx="3" ry="3" style="stroke:#038048;stroke-width:1.0;"/><text fill="#000000" font-family="sans-serif" font-size="14" lengthAdjust="spacing" textLength="107" x="509.3811" y="96.5889">ConnectFour();</text><ellipse cx="500.3811" cy="109.5391" fill="#84BE84" rx="3" ry="3" style="stroke:#038048;stroke-width:1.0;"/><text fill="#000000" font-family="sans-serif" font-size="14" lengthAdjust="spacing" textLength="128" x="509.3811" y="112.8857">void GameStart();</text><rect fill="#F24D5C" height="6" style="stroke:#C82930;stroke-width:1.0;" width="6" x="497.3811" y="122.8359"/><text fill="#000000" font-family="sans-serif" font-size="14" lengthAdjust="spacing" textLength="120" x="509.3811" y="129.1826">void PlayGame();</text><ellipse cx="500.3811" cy="142.1328" fill="#84BE84" rx="3" ry="3" style="stroke:#038048;stroke-width:1.0;"/><text fill="#000000" font-family="sans-serif" font-size="14" lengthAdjust="spacing" textLength="177" x="509.3811" y="145.4795">bool GameHasFinished();</text><rect fill="#F24D5C" height="6" style="stroke:#C82930;stroke-width:1.0;" width="6" x="497.3811" y="155.4297"/><text fill="#000000" font-family="sans-serif" font-size="14" lengthAdjust="spacing" textLength="166" x="509.3811" y="161.7764">void PrintGameTable();</text></g><!--class Turn--><g id="elem_Turn"><rect codeLine="10" fill="#F1F1F1" height="145.7813" id="Turn" rx="2.5" ry="2.5" style="stroke:#181818;stroke-width:0.5;" width="348" x="155.8811" y="229"/><ellipse cx="309.6311" cy="245" fill="#ADD1B2" rx="11" ry="11" style="stroke:#181818;stroke-width:1.0;"/><path d="M311.9749,240.6719 C311.0374,240.2344 310.4436,240.0938 309.5686,240.0938 C306.9436,240.0938 304.9436,242.1719 304.9436,244.8906 L304.9436,246.0156 C304.9436,248.5938 307.053,250.4844 309.9436,250.4844 C311.1624,250.4844 312.3186,250.1875 313.0686,249.6406 C313.6467,249.2344 313.9749,248.7813 313.9749,248.3906 C313.9749,247.9375 313.5842,247.5469 313.1155,247.5469 C312.8967,247.5469 312.6936,247.625 312.5061,247.8125 C312.053,248.2969 312.053,248.2969 311.8655,248.3906 C311.4436,248.6563 310.7561,248.7813 309.9905,248.7813 C307.9436,248.7813 306.6467,247.6875 306.6467,245.9844 L306.6467,244.8906 C306.6467,243.1094 307.8967,241.7969 309.6311,241.7969 C310.2092,241.7969 310.8186,241.9531 311.2874,242.2031 C311.7717,242.4844 311.9436,242.7031 312.0374,243.1094 C312.0999,243.5156 312.1311,243.6406 312.2717,243.7656 C312.4124,243.9063 312.6467,244.0156 312.8655,244.0156 C313.1311,244.0156 313.3967,243.875 313.5686,243.6563 C313.678,243.5 313.7092,243.3125 313.7092,242.8906 L313.7092,241.4688 C313.7092,241.0313 313.6936,240.9063 313.5999,240.75 C313.4436,240.4844 313.1624,240.3438 312.8655,240.3438 C312.5686,240.3438 312.3655,240.4375 312.1467,240.75 L311.9749,240.6719 Z " fill="#000000"/><text fill="#000000" font-family="sans-serif" font-size="14" lengthAdjust="spacing" textLength="32" x="330.1311" y="249.8467">Turn</text><line style="stroke:#181818;stroke-width:0.5;" x1="156.8811" x2="502.8811" y1="261" y2="261"/><rect fill="none" height="6" style="stroke:#C82930;stroke-width:1.0;" width="6" x="163.8811" y="271.6484"/><text fill="#000000" font-family="sans-serif" font-size="14" lengthAdjust="spacing" textLength="322" x="175.8811" y="277.9951">Player players[MAXIMUM_PLAYERS_NUMBER];</text><rect fill="none" height="6" style="stroke:#C82930;stroke-width:1.0;" width="6" x="163.8811" y="287.9453"/><text fill="#000000" font-family="sans-serif" font-size="14" lengthAdjust="spacing" textLength="126" x="175.8811" y="294.292">int currentPlayer;</text><line style="stroke:#181818;stroke-width:0.5;" x1="156.8811" x2="502.8811" y1="301.5938" y2="301.5938"/><ellipse cx="166.8811" cy="315.2422" fill="#84BE84" rx="3" ry="3" style="stroke:#038048;stroke-width:1.0;"/><text fill="#000000" font-family="sans-serif" font-size="14" lengthAdjust="spacing" textLength="84" x="175.8811" y="318.5889">Turn(Board)</text><ellipse cx="166.8811" cy="331.5391" fill="#84BE84" rx="3" ry="3" style="stroke:#038048;stroke-width:1.0;"/><text fill="#000000" font-family="sans-serif" font-size="14" lengthAdjust="spacing" textLength="135" x="175.8811" y="334.8857">void ChangeTurn();</text><ellipse cx="166.8811" cy="347.8359" fill="#84BE84" rx="3" ry="3" style="stroke:#038048;stroke-width:1.0;"/><text fill="#000000" font-family="sans-serif" font-size="14" lengthAdjust="spacing" textLength="179" x="175.8811" y="351.1826">void WriteActivePlayer();</text><ellipse cx="166.8811" cy="364.1328" fill="#84BE84" rx="3" ry="3" style="stroke:#038048;stroke-width:1.0;"/><text fill="#000000" font-family="sans-serif" font-size="14" lengthAdjust="spacing" textLength="78" x="175.8811" y="367.4795">void Play();</text></g><!--class Player--><g id="elem_Player"><rect codeLine="18" fill="#F1F1F1" height="162.0781" id="Player" rx="2.5" ry="2.5" style="stroke:#181818;stroke-width:0.5;" width="243" x="555.3811" y="435"/><ellipse cx="650.6311" cy="451" fill="#ADD1B2" rx="11" ry="11" style="stroke:#181818;stroke-width:1.0;"/><path d="M652.9749,446.6719 C652.0374,446.2344 651.4436,446.0938 650.5686,446.0938 C647.9436,446.0938 645.9436,448.1719 645.9436,450.8906 L645.9436,452.0156 C645.9436,454.5938 648.053,456.4844 650.9436,456.4844 C652.1624,456.4844 653.3186,456.1875 654.0686,455.6406 C654.6467,455.2344 654.9749,454.7813 654.9749,454.3906 C654.9749,453.9375 654.5842,453.5469 654.1155,453.5469 C653.8967,453.5469 653.6936,453.625 653.5061,453.8125 C653.053,454.2969 653.053,454.2969 652.8655,454.3906 C652.4436,454.6563 651.7561,454.7813 650.9905,454.7813 C648.9436,454.7813 647.6467,453.6875 647.6467,451.9844 L647.6467,450.8906 C647.6467,449.1094 648.8967,447.7969 650.6311,447.7969 C651.2092,447.7969 651.8186,447.9531 652.2874,448.2031 C652.7717,448.4844 652.9436,448.7031 653.0374,449.1094 C653.0999,449.5156 653.1311,449.6406 653.2717,449.7656 C653.4124,449.9063 653.6467,450.0156 653.8655,450.0156 C654.1311,450.0156 654.3967,449.875 654.5686,449.6563 C654.678,449.5 654.7092,449.3125 654.7092,448.8906 L654.7092,447.4688 C654.7092,447.0313 654.6936,446.9063 654.5999,446.75 C654.4436,446.4844 654.1624,446.3438 653.8655,446.3438 C653.5686,446.3438 653.3655,446.4375 653.1467,446.75 L652.9749,446.6719 Z " fill="#000000"/><text fill="#000000" font-family="sans-serif" font-size="14" lengthAdjust="spacing" textLength="44" x="671.1311" y="455.8467">Player</text><line style="stroke:#181818;stroke-width:0.5;" x1="556.3811" x2="797.3811" y1="467" y2="467"/><rect fill="none" height="6" style="stroke:#C82930;stroke-width:1.0;" width="6" x="563.3811" y="477.6484"/><text fill="#000000" font-family="sans-serif" font-size="14" lengthAdjust="spacing" textLength="97" x="575.3811" y="483.9951">Token token;</text><rect fill="none" height="6" style="stroke:#C82930;stroke-width:1.0;" width="6" x="563.3811" y="493.9453"/><text fill="#000000" font-family="sans-serif" font-size="14" lengthAdjust="spacing" textLength="152" x="575.3811" y="500.292">int tokensLeftCount;</text><rect fill="none" height="6" style="stroke:#C82930;stroke-width:1.0;" width="6" x="563.3811" y="510.2422"/><text fill="#000000" font-family="sans-serif" font-size="14" lengthAdjust="spacing" textLength="93" x="575.3811" y="516.5889">Board board;</text><line style="stroke:#181818;stroke-width:0.5;" x1="556.3811" x2="797.3811" y1="523.8906" y2="523.8906"/><ellipse cx="566.3811" cy="537.5391" fill="#84BE84" rx="3" ry="3" style="stroke:#038048;stroke-width:1.0;"/><text fill="#000000" font-family="sans-serif" font-size="14" lengthAdjust="spacing" textLength="154" x="575.3811" y="540.8857">Player(Token, Board);</text><rect fill="#F24D5C" height="6" style="stroke:#C82930;stroke-width:1.0;" width="6" x="563.3811" y="550.8359"/><text fill="#000000" font-family="sans-serif" font-size="14" lengthAdjust="spacing" textLength="217" x="575.3811" y="557.1826">PutToken(int columnNumber);</text><ellipse cx="566.3811" cy="570.1328" fill="#84BE84" rx="3" ry="3" style="stroke:#038048;stroke-width:1.0;"/><text fill="#000000" font-family="sans-serif" font-size="14" lengthAdjust="spacing" textLength="44" x="575.3811" y="573.4795">Play();</text><ellipse cx="566.3811" cy="586.4297" fill="#84BE84" rx="3" ry="3" style="stroke:#038048;stroke-width:1.0;"/><text fill="#000000" font-family="sans-serif" font-size="14" lengthAdjust="spacing" textLength="99" x="575.3811" y="589.7764">WritePlayer();</text></g><!--class Board--><g id="elem_Board"><rect codeLine="27" fill="#F1F1F1" height="325.0469" id="Board" rx="2.5" ry="2.5" style="stroke:#181818;stroke-width:0.5;" width="514" x="565.8811" y="657"/><ellipse cx="797.6311" cy="673" fill="#ADD1B2" rx="11" ry="11" style="stroke:#181818;stroke-width:1.0;"/><path d="M799.9749,668.6719 C799.0374,668.2344 798.4436,668.0938 797.5686,668.0938 C794.9436,668.0938 792.9436,670.1719 792.9436,672.8906 L792.9436,674.0156 C792.9436,676.5938 795.053,678.4844 797.9436,678.4844 C799.1624,678.4844 800.3186,678.1875 801.0686,677.6406 C801.6467,677.2344 801.9749,676.7813 801.9749,676.3906 C801.9749,675.9375 801.5842,675.5469 801.1155,675.5469 C800.8967,675.5469 800.6936,675.625 800.5061,675.8125 C800.053,676.2969 800.053,676.2969 799.8655,676.3906 C799.4436,676.6563 798.7561,676.7813 797.9905,676.7813 C795.9436,676.7813 794.6467,675.6875 794.6467,673.9844 L794.6467,672.8906 C794.6467,671.1094 795.8967,669.7969 797.6311,669.7969 C798.2092,669.7969 798.8186,669.9531 799.2874,670.2031 C799.7717,670.4844 799.9436,670.7031 800.0374,671.1094 C800.0999,671.5156 800.1311,671.6406 800.2717,671.7656 C800.4124,671.9063 800.6467,672.0156 800.8655,672.0156 C801.1311,672.0156 801.3967,671.875 801.5686,671.6563 C801.678,671.5 801.7092,671.3125 801.7092,670.8906 L801.7092,669.4688 C801.7092,669.0313 801.6936,668.9063 801.5999,668.75 C801.4436,668.4844 801.1624,668.3438 800.8655,668.3438 C800.5686,668.3438 800.3655,668.4375 800.1467,668.75 L799.9749,668.6719 Z " fill="#000000"/><text fill="#000000" font-family="sans-serif" font-size="14" lengthAdjust="spacing" textLength="42" x="818.1311" y="677.8467">Board</text><line style="stroke:#181818;stroke-width:0.5;" x1="566.8811" x2="1078.8811" y1="689" y2="689"/><rect fill="none" height="6" style="stroke:#C82930;stroke-width:1.0;" width="6" x="573.8811" y="699.6484"/><text fill="#000000" font-family="sans-serif" font-size="14" lengthAdjust="spacing" textLength="124" x="585.8811" y="705.9951">Token[][] tokens;</text><line style="stroke:#181818;stroke-width:0.5;" x1="566.8811" x2="1078.8811" y1="713.2969" y2="713.2969"/><ellipse cx="576.8811" cy="726.9453" fill="#84BE84" rx="3" ry="3" style="stroke:#038048;stroke-width:1.0;"/><text fill="#000000" font-family="sans-serif" font-size="14" lengthAdjust="spacing" textLength="57" x="585.8811" y="730.292">Board();</text><rect fill="#F24D5C" height="6" style="stroke:#C82930;stroke-width:1.0;" width="6" x="573.8811" y="740.2422"/><text fill="#000000" font-family="sans-serif" font-size="14" lengthAdjust="spacing" textLength="204" x="585.8811" y="746.5889">void InitializeBoardTokens();</text><ellipse cx="576.8811" cy="759.5391" fill="#84BE84" rx="3" ry="3" style="stroke:#038048;stroke-width:1.0;"/><text fill="#000000" font-family="sans-serif" font-size="14" lengthAdjust="spacing" textLength="306" x="585.8811" y="762.8857">bool PutToken(Token, int columnNumber);</text><rect fill="#F24D5C" height="6" style="stroke:#C82930;stroke-width:1.0;" width="6" x="573.8811" y="772.8359"/><text fill="#000000" font-family="sans-serif" font-size="14" lengthAdjust="spacing" textLength="336" x="585.8811" y="779.1826">bool CanInsertIntoColumn(int columnNumber);</text><rect fill="#F24D5C" height="6" style="stroke:#C82930;stroke-width:1.0;" width="6" x="573.8811" y="789.1328"/><text fill="#000000" font-family="sans-serif" font-size="14" lengthAdjust="spacing" textLength="376" x="585.8811" y="795.4795">int GetFirstEmptyRowInColumn(int columnNumber);</text><rect fill="#F24D5C" height="6" style="stroke:#C82930;stroke-width:1.0;" width="6" x="573.8811" y="805.4297"/><text fill="#000000" font-family="sans-serif" font-size="14" lengthAdjust="spacing" textLength="246" x="585.8811" y="811.7764">bool IsHorizontalConnectedFour();</text><rect fill="#F24D5C" height="6" style="stroke:#C82930;stroke-width:1.0;" width="6" x="573.8811" y="821.7266"/><text fill="#000000" font-family="sans-serif" font-size="14" lengthAdjust="spacing" textLength="395" x="585.8811" y="828.0732">bool CheckRowHasConnectedFour(int row, int column);</text><rect fill="#F24D5C" height="6" style="stroke:#C82930;stroke-width:1.0;" width="6" x="573.8811" y="838.0234"/><text fill="#000000" font-family="sans-serif" font-size="14" lengthAdjust="spacing" textLength="228" x="585.8811" y="844.3701">bool IsVerticalConnectedFour();</text><rect fill="#F24D5C" height="6" style="stroke:#C82930;stroke-width:1.0;" width="6" x="573.8811" y="854.3203"/><text fill="#000000" font-family="sans-serif" font-size="14" lengthAdjust="spacing" textLength="419" x="585.8811" y="860.667">bool CheckColumnHasConnectedFour(int row, int column);</text><rect fill="#F24D5C" height="6" style="stroke:#C82930;stroke-width:1.0;" width="6" x="573.8811" y="870.6172"/><text fill="#000000" font-family="sans-serif" font-size="14" lengthAdjust="spacing" textLength="234" x="585.8811" y="876.9639">bool IsDiagonalConnectedFour();</text><rect fill="#F24D5C" height="6" style="stroke:#C82930;stroke-width:1.0;" width="6" x="573.8811" y="886.9141"/><text fill="#000000" font-family="sans-serif" font-size="14" lengthAdjust="spacing" textLength="427" x="585.8811" y="893.2607">bool CheckDiagonalHasConnectedFour(int row, int column);</text><rect fill="#F24D5C" height="6" style="stroke:#C82930;stroke-width:1.0;" width="6" x="573.8811" y="903.2109"/><text fill="#000000" font-family="sans-serif" font-size="14" lengthAdjust="spacing" textLength="295" x="585.8811" y="909.5576">bool IsInvertedDiagonalConnectedFour();</text><rect fill="#F24D5C" height="6" style="stroke:#C82930;stroke-width:1.0;" width="6" x="573.8811" y="919.5078"/><text fill="#000000" font-family="sans-serif" font-size="14" lengthAdjust="spacing" textLength="488" x="585.8811" y="925.8545">bool CheckInvertedDiagonalHasConnectedFour(int row, int column);</text><ellipse cx="576.8811" cy="938.8047" fill="#84BE84" rx="3" ry="3" style="stroke:#038048;stroke-width:1.0;"/><text fill="#000000" font-family="sans-serif" font-size="14" lengthAdjust="spacing" textLength="172" x="585.8811" y="942.1514">bool IsConnectedFour();</text><ellipse cx="576.8811" cy="955.1016" fill="#84BE84" rx="3" ry="3" style="stroke:#038048;stroke-width:1.0;"/><text fill="#000000" font-family="sans-serif" font-size="14" lengthAdjust="spacing" textLength="176" x="585.8811" y="958.4482">bool IsBoardComplete();</text><ellipse cx="576.8811" cy="971.3984" fill="#84BE84" rx="3" ry="3" style="stroke:#038048;stroke-width:1.0;"/><text fill="#000000" font-family="sans-serif" font-size="14" lengthAdjust="spacing" textLength="126" x="585.8811" y="974.7451">void PrintBoard();</text></g><!--class BoardConstant--><g id="elem_BoardConstant"><rect codeLine="46" fill="#F1F1F1" height="129.4844" id="BoardConstant" rx="2.5" ry="2.5" style="stroke:#181818;stroke-width:0.5;" width="281" x="682.3811" y="1042"/><ellipse cx="764.6311" cy="1058" fill="#ADD1B2" rx="11" ry="11" style="stroke:#181818;stroke-width:1.0;"/><path d="M766.9749,1053.6719 C766.0374,1053.2344 765.4436,1053.0938 764.5686,1053.0938 C761.9436,1053.0938 759.9436,1055.1719 759.9436,1057.8906 L759.9436,1059.0156 C759.9436,1061.5938 762.053,1063.4844 764.9436,1063.4844 C766.1624,1063.4844 767.3186,1063.1875 768.0686,1062.6406 C768.6467,1062.2344 768.9749,1061.7813 768.9749,1061.3906 C768.9749,1060.9375 768.5842,1060.5469 768.1155,1060.5469 C767.8967,1060.5469 767.6936,1060.625 767.5061,1060.8125 C767.053,1061.2969 767.053,1061.2969 766.8655,1061.3906 C766.4436,1061.6563 765.7561,1061.7813 764.9905,1061.7813 C762.9436,1061.7813 761.6467,1060.6875 761.6467,1058.9844 L761.6467,1057.8906 C761.6467,1056.1094 762.8967,1054.7969 764.6311,1054.7969 C765.2092,1054.7969 765.8186,1054.9531 766.2874,1055.2031 C766.7717,1055.4844 766.9436,1055.7031 767.0374,1056.1094 C767.0999,1056.5156 767.1311,1056.6406 767.2717,1056.7656 C767.4124,1056.9063 767.6467,1057.0156 767.8655,1057.0156 C768.1311,1057.0156 768.3967,1056.875 768.5686,1056.6563 C768.678,1056.5 768.7092,1056.3125 768.7092,1055.8906 L768.7092,1054.4688 C768.7092,1054.0313 768.6936,1053.9063 768.5999,1053.75 C768.4436,1053.4844 768.1624,1053.3438 767.8655,1053.3438 C767.5686,1053.3438 767.3655,1053.4375 767.1467,1053.75 L766.9749,1053.6719 Z " fill="#000000"/><text fill="#000000" font-family="sans-serif" font-size="14" lengthAdjust="spacing" textLength="108" x="785.1311" y="1062.8467">BoardConstant</text><line style="stroke:#181818;stroke-width:0.5;" x1="683.3811" x2="962.3811" y1="1074" y2="1074"/><polygon fill="none" points="693.3811,1083.6484,689.3811,1089.6484,697.3811,1089.6484" style="stroke:#1963A0;stroke-width:1.0;"/><text fill="#000000" font-family="sans-serif" font-size="14" lengthAdjust="spacing" textLength="201" x="702.3811" y="1090.9951">const int BOARD_COLUMNS;</text><polygon fill="none" points="693.3811,1099.9453,689.3811,1105.9453,697.3811,1105.9453" style="stroke:#1963A0;stroke-width:1.0;"/><text fill="#000000" font-family="sans-serif" font-size="14" lengthAdjust="spacing" textLength="176" x="702.3811" y="1107.292">const int BOARD_ROWS;</text><polygon fill="none" points="693.3811,1116.2422,689.3811,1122.2422,697.3811,1122.2422" style="stroke:#1963A0;stroke-width:1.0;"/><text fill="#000000" font-family="sans-serif" font-size="14" lengthAdjust="spacing" textLength="168" x="702.3811" y="1123.5889">const int WIN_NUMBER;</text><polygon fill="none" points="693.3811,1132.5391,689.3811,1138.5391,697.3811,1138.5391" style="stroke:#1963A0;stroke-width:1.0;"/><text fill="#000000" font-family="sans-serif" font-size="14" lengthAdjust="spacing" textLength="255" x="702.3811" y="1139.8857">const int MAX_COLUMN_TO_CHECK;</text><polygon fill="none" points="693.3811,1148.8359,689.3811,1154.8359,697.3811,1154.8359" style="stroke:#1963A0;stroke-width:1.0;"/><text fill="#000000" font-family="sans-serif" font-size="14" lengthAdjust="spacing" textLength="230" x="702.3811" y="1156.1826">const int MAX_ROW_TO_CHECK;</text><line style="stroke:#181818;stroke-width:0.5;" x1="683.3811" x2="962.3811" y1="1163.4844" y2="1163.4844"/></g><!--class PlayerConstant--><g id="elem_PlayerConstant"><rect codeLine="53" fill="#F1F1F1" height="80.5938" id="PlayerConstant" rx="2.5" ry="2.5" style="stroke:#181818;stroke-width:0.5;" width="306" x="124.8812" y="779"/><ellipse cx="218.6312" cy="795" fill="#ADD1B2" rx="11" ry="11" style="stroke:#181818;stroke-width:1.0;"/><path d="M220.975,790.6719 C220.0375,790.2344 219.4437,790.0938 218.5687,790.0938 C215.9437,790.0938 213.9437,792.1719 213.9437,794.8906 L213.9437,796.0156 C213.9437,798.5938 216.0531,800.4844 218.9437,800.4844 C220.1625,800.4844 221.3187,800.1875 222.0687,799.6406 C222.6468,799.2344 222.975,798.7813 222.975,798.3906 C222.975,797.9375 222.5843,797.5469 222.1156,797.5469 C221.8968,797.5469 221.6937,797.625 221.5062,797.8125 C221.0531,798.2969 221.0531,798.2969 220.8656,798.3906 C220.4437,798.6563 219.7562,798.7813 218.9906,798.7813 C216.9437,798.7813 215.6468,797.6875 215.6468,795.9844 L215.6468,794.8906 C215.6468,793.1094 216.8968,791.7969 218.6312,791.7969 C219.2093,791.7969 219.8187,791.9531 220.2875,792.2031 C220.7718,792.4844 220.9437,792.7031 221.0375,793.1094 C221.1,793.5156 221.1312,793.6406 221.2718,793.7656 C221.4125,793.9063 221.6468,794.0156 221.8656,794.0156 C222.1312,794.0156 222.3968,793.875 222.5687,793.6563 C222.6781,793.5 222.7093,793.3125 222.7093,792.8906 L222.7093,791.4688 C222.7093,791.0313 222.6937,790.9063 222.6,790.75 C222.4437,790.4844 222.1625,790.3438 221.8656,790.3438 C221.5687,790.3438 221.3656,790.4375 221.1468,790.75 L220.975,790.6719 Z " fill="#000000"/><text fill="#000000" font-family="sans-serif" font-size="14" lengthAdjust="spacing" textLength="110" x="239.1312" y="799.8467">PlayerConstant</text><line style="stroke:#181818;stroke-width:0.5;" x1="125.8812" x2="429.8812" y1="811" y2="811"/><polygon fill="none" points="135.8812,820.6484,131.8812,826.6484,139.8812,826.6484" style="stroke:#1963A0;stroke-width:1.0;"/><text fill="#000000" font-family="sans-serif" font-size="14" lengthAdjust="spacing" textLength="265" x="144.8812" y="827.9951">const int MAXIMUM_TOKEN_NUMBER;</text><polygon fill="none" points="135.8812,836.9453,131.8812,842.9453,139.8812,842.9453" style="stroke:#1963A0;stroke-width:1.0;"/><text fill="#000000" font-family="sans-serif" font-size="14" lengthAdjust="spacing" textLength="280" x="144.8812" y="844.292">const int MAXIMUM_PLAYERS_NUMBER;</text><line style="stroke:#181818;stroke-width:0.5;" x1="125.8812" x2="429.8812" y1="851.5938" y2="851.5938"/></g><!--class Token--><g id="elem_Token"><rect codeLine="57" fill="#F1F1F1" height="80.5938" id="Token" rx="2.5" ry="2.5" style="stroke:#181818;stroke-width:0.5;" width="90" x="467.8811" y="1066"/><ellipse cx="488.7311" cy="1082" fill="#EB937F" rx="11" ry="11" style="stroke:#181818;stroke-width:1.0;"/><path d="M487.528,1082.875 L488.9811,1082.875 L488.9811,1082.9844 C488.9811,1083.3906 489.0124,1083.5469 489.0905,1083.7031 C489.2467,1083.9531 489.528,1084.1094 489.8249,1084.1094 C490.0749,1084.1094 490.3405,1083.9688 490.4967,1083.75 C490.6217,1083.5938 490.653,1083.4375 490.653,1082.9844 L490.653,1081.0625 C490.653,1080.9063 490.653,1080.8594 490.6374,1080.7031 C490.5749,1080.2344 490.2624,1079.9219 489.8092,1079.9219 C489.5592,1079.9219 489.2936,1080.0625 489.1217,1080.2813 C489.0124,1080.4531 488.9811,1080.6094 488.9811,1081.0625 L488.9811,1081.1875 L487.528,1081.1875 L487.528,1078.7813 L491.5124,1078.7813 L491.5124,1079.6406 C491.5124,1080.0469 491.5436,1080.2188 491.6217,1080.375 C491.7936,1080.625 492.0749,1080.7813 492.3561,1080.7813 C492.6217,1080.7813 492.8874,1080.6406 493.0592,1080.4219 C493.1686,1080.25 493.1999,1080.1094 493.1999,1079.6406 L493.1999,1077.0938 L485.5749,1077.0938 C485.1374,1077.0938 485.0124,1077.1094 484.8561,1077.2031 C484.6061,1077.3594 484.4499,1077.6563 484.4499,1077.9375 C484.4499,1078.2188 484.5905,1078.4688 484.8092,1078.6406 C484.9655,1078.75 485.153,1078.7813 485.5749,1078.7813 L485.8249,1078.7813 L485.8249,1085.2969 L485.5749,1085.2969 C485.1686,1085.2969 485.0124,1085.3125 484.8561,1085.4219 C484.6061,1085.5938 484.4499,1085.8594 484.4499,1086.1563 C484.4499,1086.4219 484.5905,1086.6719 484.8092,1086.8281 C484.9499,1086.9531 485.1842,1087 485.5749,1087 L493.5749,1087 L493.5749,1084.4219 C493.5749,1083.9844 493.5436,1083.8438 493.4655,1083.6875 C493.2936,1083.4375 493.0124,1083.2813 492.7311,1083.2813 C492.4655,1083.2813 492.1999,1083.3906 492.028,1083.6406 C491.9186,1083.7969 491.8874,1083.9375 491.8874,1084.4219 L491.8874,1085.2969 L487.528,1085.2969 L487.528,1082.875 Z " fill="#000000"/><text fill="#000000" font-family="sans-serif" font-size="14" lengthAdjust="spacing" textLength="45" x="504.0311" y="1086.8467">Token</text><line style="stroke:#181818;stroke-width:0.5;" x1="468.8811" x2="556.8811" y1="1098" y2="1098"/><ellipse cx="478.8811" cy="1111.6484" fill="none" rx="3" ry="3" style="stroke:#038048;stroke-width:1.0;"/><text fill="#000000" font-family="sans-serif" font-size="14" lengthAdjust="spacing" textLength="35" x="487.8811" y="1114.9951">RED;</text><ellipse cx="478.8811" cy="1127.9453" fill="none" rx="3" ry="3" style="stroke:#038048;stroke-width:1.0;"/><text fill="#000000" font-family="sans-serif" font-size="14" lengthAdjust="spacing" textLength="64" x="487.8811" y="1131.292">YELLOW;</text><line style="stroke:#181818;stroke-width:0.5;" x1="468.8811" x2="556.8811" y1="1138.5938" y2="1138.5938"/></g><!--class TokenMethod--><g id="elem_TokenMethod"><rect codeLine="61" fill="#F1F1F1" height="64.2969" id="TokenMethod" rx="2.5" ry="2.5" style="stroke:#181818;stroke-width:0.5;" width="381" x="139.3812" y="484"/><ellipse cx="275.6312" cy="500" fill="#ADD1B2" rx="11" ry="11" style="stroke:#181818;stroke-width:1.0;"/><path d="M277.975,495.6719 C277.0375,495.2344 276.4437,495.0938 275.5687,495.0938 C272.9437,495.0938 270.9437,497.1719 270.9437,499.8906 L270.9437,501.0156 C270.9437,503.5938 273.0531,505.4844 275.9437,505.4844 C277.1625,505.4844 278.3187,505.1875 279.0687,504.6406 C279.6468,504.2344 279.975,503.7813 279.975,503.3906 C279.975,502.9375 279.5843,502.5469 279.1156,502.5469 C278.8968,502.5469 278.6937,502.625 278.5062,502.8125 C278.0531,503.2969 278.0531,503.2969 277.8656,503.3906 C277.4437,503.6563 276.7562,503.7813 275.9906,503.7813 C273.9437,503.7813 272.6468,502.6875 272.6468,500.9844 L272.6468,499.8906 C272.6468,498.1094 273.8968,496.7969 275.6312,496.7969 C276.2093,496.7969 276.8187,496.9531 277.2875,497.2031 C277.7718,497.4844 277.9437,497.7031 278.0375,498.1094 C278.1,498.5156 278.1312,498.6406 278.2718,498.7656 C278.4125,498.9063 278.6468,499.0156 278.8656,499.0156 C279.1312,499.0156 279.3968,498.875 279.5687,498.6563 C279.6781,498.5 279.7093,498.3125 279.7093,497.8906 L279.7093,496.4688 C279.7093,496.0313 279.6937,495.9063 279.6,495.75 C279.4437,495.4844 279.1625,495.3438 278.8656,495.3438 C278.5687,495.3438 278.3656,495.4375 278.1468,495.75 L277.975,495.6719 Z " fill="#000000"/><text fill="#000000" font-family="sans-serif" font-size="14" lengthAdjust="spacing" textLength="100" x="296.1312" y="504.8467">TokenMethod</text><line style="stroke:#181818;stroke-width:0.5;" x1="140.3812" x2="519.3812" y1="516" y2="516"/><line style="stroke:#181818;stroke-width:0.5;" x1="140.3812" x2="519.3812" y1="524" y2="524"/><polygon fill="#4177AF" points="150.3812,533.6484,146.3812,539.6484,154.3812,539.6484" style="stroke:#1963A0;stroke-width:1.0;"/><text fill="#000000" font-family="sans-serif" font-size="14" lengthAdjust="spacing" textLength="355" x="159.3812" y="540.9951">static Token GetTokenFromNumber(int number);</text></g><!--link ConnectFour to Board--><g id="link_ConnectFour_Board"><path codeLine="64" d="M669.5603,178.6514 C723.2013,244.8154 785.0671,334.465 815.8811,435 C837.5421,505.671 841.9245,581.159 839.7255,650.794 " fill="none" id="ConnectFour-Board" style="stroke:#181818;stroke-width:1.0;"/><polygon fill="#181818" points="662.0031,169.33,662.6745,176.5098,669.5603,178.6514,668.8888,171.4717,662.0031,169.33" style="stroke:#181818;stroke-width:1.0;"/><polygon fill="#181818" points="839.5361,656.791,843.8182,647.9217,839.6939,651.7935,835.8222,647.6692,839.5361,656.791" style="stroke:#181818;stroke-width:1.0;"/></g><!--link ConnectFour to Turn--><g id="link_ConnectFour_Turn"><path codeLine="65" d="M482.8934,176.7155 C458.7864,196.2955 447.1073,205.7821 423.4843,224.9701 " fill="none" id="ConnectFour-Turn" style="stroke:#181818;stroke-width:1.0;"/><polygon fill="#181818" points="492.2081,169.15,485.0289,169.8279,482.8934,176.7155,490.0726,176.0376,492.2081,169.15" style="stroke:#181818;stroke-width:1.0;"/><polygon fill="#181818" points="418.8271,228.753,428.3349,226.1835,422.7081,225.6006,423.291,219.9739,418.8271,228.753" style="stroke:#181818;stroke-width:1.0;"/></g><!--link Turn to Player--><g id="link_Turn_Player"><path codeLine="66" d="M447.8441,375.069 C482.4241,396.196 515.174,416.2049 549.986,437.4729 " fill="none" id="Turn-to-Player" style="stroke:#181818;stroke-width:1.0;"/><polygon fill="#181818" points="555.1061,440.601,549.5113,432.4955,550.8394,437.9943,545.3406,439.3223,555.1061,440.601" style="stroke:#181818;stroke-width:1.0;"/><text fill="#000000" font-family="sans-serif" font-size="13" lengthAdjust="spacing" textLength="8" x="539.4417" y="432.6179">2</text></g><!--link Turn to Token--><g id="link_Turn_Token"><path codeLine="67" d="M155.6731,371.772 C131.3929,388.808 109.7129,409.658 94.8812,435 C44.7805,520.605 6,850.211 106.8812,982 C151.3831,1040.137 365.5815,1081.4568 461.8065,1097.4708 " fill="none" id="Turn-to-Token" style="stroke:#181818;stroke-width:1.0;stroke-dasharray:7.0,7.0;"/><polygon fill="#181818" points="467.7251,1098.4558,459.5039,1093.0326,462.7929,1097.635,458.1905,1100.9241,467.7251,1098.4558" style="stroke:#181818;stroke-width:1.0;"/></g><!--link Player to Token--><g id="link_Player_Token"><path codeLine="68" d="M578.7458,606.4991 C563.3948,624.5771 557.1951,635.642 547.8811,657 C486.7721,797.139 497.9902,979.2327 506.9672,1059.9897 " fill="none" id="Player-Token" style="stroke:#181818;stroke-width:1.0;"/><polygon fill="#181818" points="586.5131,597.352,579.5804,599.3365,578.7458,606.4991,585.6785,604.5146,586.5131,597.352" style="stroke:#181818;stroke-width:1.0;"/><polygon fill="#181818" points="507.6301,1065.953,510.6113,1056.5662,507.0777,1060.9836,502.6603,1057.45,507.6301,1065.953" style="stroke:#181818;stroke-width:1.0;"/><text fill="#000000" font-family="sans-serif" font-size="13" lengthAdjust="spacing" textLength="16" x="489.3526" y="1054.8081">21</text></g><!--link Player to Board--><g id="link_Player_Board"><path codeLine="69" d="M715.6231,597.005 C724.6201,615.584 731.9,630.6179 741.93,651.3299 " fill="none" id="Player-to-Board" style="stroke:#181818;stroke-width:1.0;"/><polygon fill="#181818" points="744.5451,656.73,744.2226,646.8864,742.3659,652.2299,737.0224,650.3732,744.5451,656.73" style="stroke:#181818;stroke-width:1.0;"/></g><!--link Board to Token--><g id="link_Board_Token"><path codeLine="70" d="M647.0491,982.152 C613.1581,1013.31 585.0381,1039.1622 560.4941,1061.7272 " fill="none" id="Board-to-Token" style="stroke:#181818;stroke-width:1.0;stroke-dasharray:7.0,7.0;"/><polygon fill="#181818" points="556.0771,1065.788,565.4098,1062.6414,559.7579,1062.404,559.9953,1056.7521,556.0771,1065.788" style="stroke:#181818;stroke-width:1.0;"/></g><!--link Board to BoardConstant--><g id="link_Board_BoardConstant"><path codeLine="71" d="M822.8811,982.152 C822.8811,1003.259 822.8811,1017.795 822.8811,1035.862 " fill="none" id="Board-to-BoardConstant" style="stroke:#181818;stroke-width:1.0;stroke-dasharray:7.0,7.0;"/><polygon fill="#181818" points="822.8811,1041.862,826.8811,1032.862,822.8811,1036.862,818.8811,1032.862,822.8811,1041.862" style="stroke:#181818;stroke-width:1.0;"/></g><!--link Player to PlayerConstant--><g id="link_Player_PlayerConstant"><path codeLine="72" d="M567.3001,597.085 C540.8811,616.574 512.8011,637.44 486.8811,657 C432.5261,698.018 375.6362,742.1019 333.4682,774.9919 " fill="none" id="Player-to-PlayerConstant" style="stroke:#181818;stroke-width:1.0;stroke-dasharray:7.0,7.0;"/><polygon fill="#181818" points="328.7371,778.682,338.2938,776.3009,332.6797,775.6069,333.3736,769.9928,328.7371,778.682" style="stroke:#181818;stroke-width:1.0;"/></g><!--link Turn to PlayerConstant--><g id="link_Turn_PlayerConstant"><path codeLine="73" d="M175.0931,375.09 C153.7461,391.721 134.7588,411.576 121.8812,435 C56.1758,554.517 169.5282,703.1259 234.6942,774.3289 " fill="none" id="Turn-to-PlayerConstant" style="stroke:#181818;stroke-width:1.0;stroke-dasharray:7.0,7.0;"/><polygon fill="#181818" points="238.7451,778.755,235.6196,769.4152,235.3694,775.0666,229.7181,774.8164,238.7451,778.755" style="stroke:#181818;stroke-width:1.0;"/></g><!--link Turn to TokenMethod--><g id="link_Turn_TokenMethod"><path codeLine="74" d="M329.8811,375.069 C329.8811,412.161 329.8811,449.449 329.8811,477.944 " fill="none" id="Turn-to-TokenMethod" style="stroke:#181818;stroke-width:1.0;stroke-dasharray:7.0,7.0;"/><polygon fill="#181818" points="329.8811,483.944,333.8811,474.944,329.8811,478.944,325.8811,474.944,329.8811,483.944" style="stroke:#181818;stroke-width:1.0;"/></g><!--SRC=[bLLTR-8m47pdLqGymVM2T7r5Ge8GIbH2K83ZAeIGINp5Qc8Znm6rLVlRpryXCPVIzYMjTtPdnlPwYHAGPPP3C8OH6v6SlZOioxO61D3OseblLmOMESKMun-nlAaMjDegT2Gejkv02kSCKAQYjehE4l0ia29rHqWYKySW6o6CiZsCpGAAC1C92x1BPDbR8v9EXGzbKP12QXtadspjz_zu_jBVpYRz1pUSRwTBV-266qNAsQmefnHYfigK3q7MabjjbrjmzW0_GWbLTxQYYC5-nD0HAWe35Q6gJPMYZ2x84-Hd9xwb6xdC9l0lSqYEMRVkr6yqJKio_5ImFgPPpcIq9RT6aZp5qppTGTekAmk7qdffkl0ewIeMrvlrHljITJB1k1SF8uP0WbwWn6HPPjpgsPVsN6lFLhaEm1xE86KUPiIHIQqFyaNu3h8HeXbpqmDx3id9mzThf8QNZGb5BmGpaEYcXN7PjeMJFOoUE2NlHpD9K5Dogkx3PF_DxQFeKsxbzFlqGmGU2VwKlaZxle27Ztm7CFwYq6NwbmLl2i4QWJCccyeXwI6139hlImo4SpyQ7Sm9CmOm4vtypYNvIeeFWduut3h1PEbFvzrQC0nM_o4hRwfdnoN29uocsow2hJDsdVkw54vQmSs1y97NOdWjWdltYdpDW1CA4EUfUiAlyiH2TwYExi6TJ8ALIE6gl4qjFKD5gW_PdiJAY4RLeEBFJFupeYHLxqbUAYwUrbkZClmjwuSTanEsUtfu6U0P4zEq8Nz2YaZpjgdFHCKx8jxfAGyDFTjBWkRjhwQ9sOLaGmbtEZs5dvT6TnHbF7vn5rh_IhnoNly0]--></g></svg>