<?xml version="1.0" encoding="us-ascii" standalone="no"?><svg xmlns="http://www.w3.org/2000/svg" xmlns:xlink="http://www.w3.org/1999/xlink" contentStyleType="text/css" height="1162px" preserveAspectRatio="none" style="width:709px;height:1162px;background:#FFFFFF;" version="1.1" viewBox="0 0 709 1162" width="709px" zoomAndPan="magnify"><defs/><g><!--class ConnectFour--><g id="elem_ConnectFour"><rect codeLine="1" fill="#F1F1F1" height="145.7813" id="ConnectFour" rx="2.5" ry="2.5" style="stroke:#181818;stroke-width:0.5;" width="162" x="267.3612" y="7"/><ellipse cx="299.4612" cy="23" fill="#ADD1B2" rx="11" ry="11" style="stroke:#181818;stroke-width:1.0;"/><path d="M301.805,18.6719 C300.8675,18.2344 300.2737,18.0938 299.3987,18.0938 C296.7737,18.0938 294.7737,20.1719 294.7737,22.8906 L294.7737,24.0156 C294.7737,26.5938 296.8831,28.4844 299.7737,28.4844 C300.9925,28.4844 302.1487,28.1875 302.8987,27.6406 C303.4768,27.2344 303.805,26.7813 303.805,26.3906 C303.805,25.9375 303.4143,25.5469 302.9456,25.5469 C302.7268,25.5469 302.5237,25.625 302.3362,25.8125 C301.8831,26.2969 301.8831,26.2969 301.6956,26.3906 C301.2737,26.6563 300.5862,26.7813 299.8206,26.7813 C297.7737,26.7813 296.4768,25.6875 296.4768,23.9844 L296.4768,22.8906 C296.4768,21.1094 297.7268,19.7969 299.4612,19.7969 C300.0393,19.7969 300.6487,19.9531 301.1175,20.2031 C301.6018,20.4844 301.7737,20.7031 301.8675,21.1094 C301.93,21.5156 301.9612,21.6406 302.1018,21.7656 C302.2425,21.9063 302.4768,22.0156 302.6956,22.0156 C302.9612,22.0156 303.2268,21.875 303.3987,21.6563 C303.5081,21.5 303.5393,21.3125 303.5393,20.8906 L303.5393,19.4688 C303.5393,19.0313 303.5237,18.9063 303.43,18.75 C303.2737,18.4844 302.9925,18.3438 302.6956,18.3438 C302.3987,18.3438 302.1956,18.4375 301.9768,18.75 L301.805,18.6719 Z " fill="#000000"/><text fill="#000000" font-family="sans-serif" font-size="14" lengthAdjust="spacing" textLength="92" x="317.2612" y="27.8467">ConnectFour</text><line style="stroke:#181818;stroke-width:0.5;" x1="268.3612" x2="428.3612" y1="39" y2="39"/><rect fill="none" height="6" style="stroke:#C82930;stroke-width:1.0;" width="6" x="275.3612" y="49.6484"/><text fill="#000000" font-family="sans-serif" font-size="14" lengthAdjust="spacing" textLength="93" x="287.3612" y="55.9951">Board board;</text><rect fill="none" height="6" style="stroke:#C82930;stroke-width:1.0;" width="6" x="275.3612" y="65.9453"/><text fill="#000000" font-family="sans-serif" font-size="14" lengthAdjust="spacing" textLength="71" x="287.3612" y="72.292">Turn turn;</text><line style="stroke:#181818;stroke-width:0.5;" x1="268.3612" x2="428.3612" y1="79.5938" y2="79.5938"/><ellipse cx="278.3612" cy="93.2422" fill="#84BE84" rx="3" ry="3" style="stroke:#038048;stroke-width:1.0;"/><text fill="#000000" font-family="sans-serif" font-size="14" lengthAdjust="spacing" textLength="107" x="287.3612" y="96.5889">ConnectFour();</text><ellipse cx="278.3612" cy="109.5391" fill="#84BE84" rx="3" ry="3" style="stroke:#038048;stroke-width:1.0;"/><text fill="#000000" font-family="sans-serif" font-size="14" lengthAdjust="spacing" textLength="94" x="287.3612" y="112.8857">GameStart();</text><rect fill="#F24D5C" height="6" style="stroke:#C82930;stroke-width:1.0;" width="6" x="275.3612" y="122.8359"/><text fill="#000000" font-family="sans-serif" font-size="14" lengthAdjust="spacing" textLength="86" x="287.3612" y="129.1826">PlayGame();</text><ellipse cx="278.3612" cy="142.1328" fill="#84BE84" rx="3" ry="3" style="stroke:#038048;stroke-width:1.0;"/><text fill="#000000" font-family="sans-serif" font-size="14" lengthAdjust="spacing" textLength="136" x="287.3612" y="145.4795">GameHasFinished()</text></g><!--class Turn--><g id="elem_Turn"><rect codeLine="9" fill="#F1F1F1" height="162.0781" id="Turn" rx="2.5" ry="2.5" style="stroke:#181818;stroke-width:0.5;" width="275" x="114.8612" y="213"/><ellipse cx="232.1112" cy="229" fill="#ADD1B2" rx="11" ry="11" style="stroke:#181818;stroke-width:1.0;"/><path d="M234.455,224.6719 C233.5175,224.2344 232.9237,224.0938 232.0487,224.0938 C229.4237,224.0938 227.4237,226.1719 227.4237,228.8906 L227.4237,230.0156 C227.4237,232.5938 229.5331,234.4844 232.4237,234.4844 C233.6425,234.4844 234.7987,234.1875 235.5487,233.6406 C236.1268,233.2344 236.455,232.7813 236.455,232.3906 C236.455,231.9375 236.0643,231.5469 235.5956,231.5469 C235.3768,231.5469 235.1737,231.625 234.9862,231.8125 C234.5331,232.2969 234.5331,232.2969 234.3456,232.3906 C233.9237,232.6563 233.2362,232.7813 232.4706,232.7813 C230.4237,232.7813 229.1268,231.6875 229.1268,229.9844 L229.1268,228.8906 C229.1268,227.1094 230.3768,225.7969 232.1112,225.7969 C232.6893,225.7969 233.2987,225.9531 233.7675,226.2031 C234.2518,226.4844 234.4237,226.7031 234.5175,227.1094 C234.58,227.5156 234.6112,227.6406 234.7518,227.7656 C234.8925,227.9063 235.1268,228.0156 235.3456,228.0156 C235.6112,228.0156 235.8768,227.875 236.0487,227.6563 C236.1581,227.5 236.1893,227.3125 236.1893,226.8906 L236.1893,225.4688 C236.1893,225.0313 236.1737,224.9063 236.08,224.75 C235.9237,224.4844 235.6425,224.3438 235.3456,224.3438 C235.0487,224.3438 234.8456,224.4375 234.6268,224.75 L234.455,224.6719 Z " fill="#000000"/><text fill="#000000" font-family="sans-serif" font-size="14" lengthAdjust="spacing" textLength="32" x="252.6112" y="233.8467">Turn</text><line style="stroke:#181818;stroke-width:0.5;" x1="115.8612" x2="388.8612" y1="245" y2="245"/><rect fill="none" height="6" style="stroke:#C82930;stroke-width:1.0;" width="6" x="122.8612" y="255.6484"/><text fill="#000000" font-family="sans-serif" font-size="14" lengthAdjust="spacing" textLength="249" x="134.8612" y="261.9951">static const int PLAYERS_NUMBER;</text><rect fill="none" height="6" style="stroke:#C82930;stroke-width:1.0;" width="6" x="122.8612" y="271.9453"/><text fill="#000000" font-family="sans-serif" font-size="14" lengthAdjust="spacing" textLength="246" x="134.8612" y="278.292">Player players[PLAYERS_NUMBER];</text><rect fill="none" height="6" style="stroke:#C82930;stroke-width:1.0;" width="6" x="122.8612" y="288.2422"/><text fill="#000000" font-family="sans-serif" font-size="14" lengthAdjust="spacing" textLength="126" x="134.8612" y="294.5889">int currentPlayer;</text><line style="stroke:#181818;stroke-width:0.5;" x1="115.8612" x2="388.8612" y1="301.8906" y2="301.8906"/><ellipse cx="125.8612" cy="315.5391" fill="#84BE84" rx="3" ry="3" style="stroke:#038048;stroke-width:1.0;"/><text fill="#000000" font-family="sans-serif" font-size="14" lengthAdjust="spacing" textLength="84" x="134.8612" y="318.8857">Turn(Board)</text><ellipse cx="125.8612" cy="331.8359" fill="#84BE84" rx="3" ry="3" style="stroke:#038048;stroke-width:1.0;"/><text fill="#000000" font-family="sans-serif" font-size="14" lengthAdjust="spacing" textLength="135" x="134.8612" y="335.1826">void ChangeTurn();</text><ellipse cx="125.8612" cy="348.1328" fill="#84BE84" rx="3" ry="3" style="stroke:#038048;stroke-width:1.0;"/><text fill="#000000" font-family="sans-serif" font-size="14" lengthAdjust="spacing" textLength="179" x="134.8612" y="351.4795">void WriteActivePlayer();</text><ellipse cx="125.8612" cy="364.4297" fill="#84BE84" rx="3" ry="3" style="stroke:#038048;stroke-width:1.0;"/><text fill="#000000" font-family="sans-serif" font-size="14" lengthAdjust="spacing" textLength="78" x="134.8612" y="367.7764">void Play();</text></g><!--class Player--><g id="elem_Player"><rect codeLine="18" fill="#F1F1F1" height="162.0781" id="Player" rx="2.5" ry="2.5" style="stroke:#181818;stroke-width:0.5;" width="269" x="117.8612" y="435"/><ellipse cx="226.1112" cy="451" fill="#ADD1B2" rx="11" ry="11" style="stroke:#181818;stroke-width:1.0;"/><path d="M228.455,446.6719 C227.5175,446.2344 226.9237,446.0938 226.0487,446.0938 C223.4237,446.0938 221.4237,448.1719 221.4237,450.8906 L221.4237,452.0156 C221.4237,454.5938 223.5331,456.4844 226.4237,456.4844 C227.6425,456.4844 228.7987,456.1875 229.5487,455.6406 C230.1268,455.2344 230.455,454.7813 230.455,454.3906 C230.455,453.9375 230.0643,453.5469 229.5956,453.5469 C229.3768,453.5469 229.1737,453.625 228.9862,453.8125 C228.5331,454.2969 228.5331,454.2969 228.3456,454.3906 C227.9237,454.6563 227.2362,454.7813 226.4706,454.7813 C224.4237,454.7813 223.1268,453.6875 223.1268,451.9844 L223.1268,450.8906 C223.1268,449.1094 224.3768,447.7969 226.1112,447.7969 C226.6893,447.7969 227.2987,447.9531 227.7675,448.2031 C228.2518,448.4844 228.4237,448.7031 228.5175,449.1094 C228.58,449.5156 228.6112,449.6406 228.7518,449.7656 C228.8925,449.9063 229.1268,450.0156 229.3456,450.0156 C229.6112,450.0156 229.8768,449.875 230.0487,449.6563 C230.1581,449.5 230.1893,449.3125 230.1893,448.8906 L230.1893,447.4688 C230.1893,447.0313 230.1737,446.9063 230.08,446.75 C229.9237,446.4844 229.6425,446.3438 229.3456,446.3438 C229.0487,446.3438 228.8456,446.4375 228.6268,446.75 L228.455,446.6719 Z " fill="#000000"/><text fill="#000000" font-family="sans-serif" font-size="14" lengthAdjust="spacing" textLength="44" x="246.6112" y="455.8467">Player</text><line style="stroke:#181818;stroke-width:0.5;" x1="118.8612" x2="385.8612" y1="467" y2="467"/><rect fill="none" height="6" style="stroke:#C82930;stroke-width:1.0;" width="6" x="125.8612" y="477.6484"/><text fill="#000000" font-family="sans-serif" font-size="14" lengthAdjust="spacing" textLength="243" x="137.8612" y="483.9951">static const int TOKENS_NUMBER;</text><rect fill="none" height="6" style="stroke:#C82930;stroke-width:1.0;" width="6" x="125.8612" y="493.9453"/><text fill="#000000" font-family="sans-serif" font-size="14" lengthAdjust="spacing" textLength="114" x="137.8612" y="500.292">Token tokens[];</text><rect fill="none" height="6" style="stroke:#C82930;stroke-width:1.0;" width="6" x="125.8612" y="510.2422"/><text fill="#000000" font-family="sans-serif" font-size="14" lengthAdjust="spacing" textLength="93" x="137.8612" y="516.5889">Board board;</text><line style="stroke:#181818;stroke-width:0.5;" x1="118.8612" x2="385.8612" y1="523.8906" y2="523.8906"/><ellipse cx="128.8612" cy="537.5391" fill="#84BE84" rx="3" ry="3" style="stroke:#038048;stroke-width:1.0;"/><text fill="#000000" font-family="sans-serif" font-size="14" lengthAdjust="spacing" textLength="154" x="137.8612" y="540.8857">Player(Token, Board);</text><rect fill="#F24D5C" height="6" style="stroke:#C82930;stroke-width:1.0;" width="6" x="125.8612" y="550.8359"/><text fill="#000000" font-family="sans-serif" font-size="14" lengthAdjust="spacing" textLength="84" x="137.8612" y="557.1826">PutToken();</text><ellipse cx="128.8612" cy="570.1328" fill="#84BE84" rx="3" ry="3" style="stroke:#038048;stroke-width:1.0;"/><text fill="#000000" font-family="sans-serif" font-size="14" lengthAdjust="spacing" textLength="44" x="137.8612" y="573.4795">Play();</text><ellipse cx="128.8612" cy="586.4297" fill="#84BE84" rx="3" ry="3" style="stroke:#038048;stroke-width:1.0;"/><text fill="#000000" font-family="sans-serif" font-size="14" lengthAdjust="spacing" textLength="99" x="137.8612" y="589.7764">WritePlayer();</text></g><!--class Board--><g id="elem_Board"><rect codeLine="27" fill="#F1F1F1" height="308.75" id="Board" rx="2.5" ry="2.5" style="stroke:#181818;stroke-width:0.5;" width="514" x="188.3612" y="657"/><ellipse cx="420.1112" cy="673" fill="#ADD1B2" rx="11" ry="11" style="stroke:#181818;stroke-width:1.0;"/><path d="M422.455,668.6719 C421.5175,668.2344 420.9237,668.0938 420.0487,668.0938 C417.4237,668.0938 415.4237,670.1719 415.4237,672.8906 L415.4237,674.0156 C415.4237,676.5938 417.5331,678.4844 420.4237,678.4844 C421.6425,678.4844 422.7987,678.1875 423.5487,677.6406 C424.1268,677.2344 424.455,676.7813 424.455,676.3906 C424.455,675.9375 424.0643,675.5469 423.5956,675.5469 C423.3768,675.5469 423.1737,675.625 422.9862,675.8125 C422.5331,676.2969 422.5331,676.2969 422.3456,676.3906 C421.9237,676.6563 421.2362,676.7813 420.4706,676.7813 C418.4237,676.7813 417.1268,675.6875 417.1268,673.9844 L417.1268,672.8906 C417.1268,671.1094 418.3768,669.7969 420.1112,669.7969 C420.6893,669.7969 421.2987,669.9531 421.7675,670.2031 C422.2518,670.4844 422.4237,670.7031 422.5175,671.1094 C422.58,671.5156 422.6112,671.6406 422.7518,671.7656 C422.8925,671.9063 423.1268,672.0156 423.3456,672.0156 C423.6112,672.0156 423.8768,671.875 424.0487,671.6563 C424.1581,671.5 424.1893,671.3125 424.1893,670.8906 L424.1893,669.4688 C424.1893,669.0313 424.1737,668.9063 424.08,668.75 C423.9237,668.4844 423.6425,668.3438 423.3456,668.3438 C423.0487,668.3438 422.8456,668.4375 422.6268,668.75 L422.455,668.6719 Z " fill="#000000"/><text fill="#000000" font-family="sans-serif" font-size="14" lengthAdjust="spacing" textLength="42" x="440.6112" y="677.8467">Board</text><line style="stroke:#181818;stroke-width:0.5;" x1="189.3612" x2="701.3612" y1="689" y2="689"/><rect fill="none" height="6" style="stroke:#C82930;stroke-width:1.0;" width="6" x="196.3612" y="699.6484"/><text fill="#000000" font-family="sans-serif" font-size="14" lengthAdjust="spacing" textLength="124" x="208.3612" y="705.9951">Token[][] tokens;</text><line style="stroke:#181818;stroke-width:0.5;" x1="189.3612" x2="701.3612" y1="713.2969" y2="713.2969"/><ellipse cx="199.3612" cy="726.9453" fill="#84BE84" rx="3" ry="3" style="stroke:#038048;stroke-width:1.0;"/><text fill="#000000" font-family="sans-serif" font-size="14" lengthAdjust="spacing" textLength="57" x="208.3612" y="730.292">Board();</text><rect fill="#F24D5C" height="6" style="stroke:#C82930;stroke-width:1.0;" width="6" x="196.3612" y="740.2422"/><text fill="#000000" font-family="sans-serif" font-size="14" lengthAdjust="spacing" textLength="204" x="208.3612" y="746.5889">void InitializeBoardTokens();</text><ellipse cx="199.3612" cy="759.5391" fill="#84BE84" rx="3" ry="3" style="stroke:#038048;stroke-width:1.0;"/><text fill="#000000" font-family="sans-serif" font-size="14" lengthAdjust="spacing" textLength="304" x="208.3612" y="762.8857">void PutToken(Token, int columnNumber);</text><rect fill="#F24D5C" height="6" style="stroke:#C82930;stroke-width:1.0;" width="6" x="196.3612" y="772.8359"/><text fill="#000000" font-family="sans-serif" font-size="14" lengthAdjust="spacing" textLength="336" x="208.3612" y="779.1826">bool CanInsertIntoColumn(int columnNumber);</text><rect fill="#F24D5C" height="6" style="stroke:#C82930;stroke-width:1.0;" width="6" x="196.3612" y="789.1328"/><text fill="#000000" font-family="sans-serif" font-size="14" lengthAdjust="spacing" textLength="376" x="208.3612" y="795.4795">int GetFirstEmptyRowInColumn(int columnNumber);</text><rect fill="#F24D5C" height="6" style="stroke:#C82930;stroke-width:1.0;" width="6" x="196.3612" y="805.4297"/><text fill="#000000" font-family="sans-serif" font-size="14" lengthAdjust="spacing" textLength="246" x="208.3612" y="811.7764">bool IsHorizontalConnectedFour();</text><rect fill="#F24D5C" height="6" style="stroke:#C82930;stroke-width:1.0;" width="6" x="196.3612" y="821.7266"/><text fill="#000000" font-family="sans-serif" font-size="14" lengthAdjust="spacing" textLength="395" x="208.3612" y="828.0732">bool CheckRowHasConnectedFour(int row, int column);</text><rect fill="#F24D5C" height="6" style="stroke:#C82930;stroke-width:1.0;" width="6" x="196.3612" y="838.0234"/><text fill="#000000" font-family="sans-serif" font-size="14" lengthAdjust="spacing" textLength="228" x="208.3612" y="844.3701">bool IsVerticalConnectedFour();</text><rect fill="#F24D5C" height="6" style="stroke:#C82930;stroke-width:1.0;" width="6" x="196.3612" y="854.3203"/><text fill="#000000" font-family="sans-serif" font-size="14" lengthAdjust="spacing" textLength="419" x="208.3612" y="860.667">bool CheckColumnHasConnectedFour(int row, int column);</text><rect fill="#F24D5C" height="6" style="stroke:#C82930;stroke-width:1.0;" width="6" x="196.3612" y="870.6172"/><text fill="#000000" font-family="sans-serif" font-size="14" lengthAdjust="spacing" textLength="234" x="208.3612" y="876.9639">bool IsDiagonalConnectedFour();</text><rect fill="#F24D5C" height="6" style="stroke:#C82930;stroke-width:1.0;" width="6" x="196.3612" y="886.9141"/><text fill="#000000" font-family="sans-serif" font-size="14" lengthAdjust="spacing" textLength="427" x="208.3612" y="893.2607">bool CheckDiagonalHasConnectedFour(int row, int column);</text><rect fill="#F24D5C" height="6" style="stroke:#C82930;stroke-width:1.0;" width="6" x="196.3612" y="903.2109"/><text fill="#000000" font-family="sans-serif" font-size="14" lengthAdjust="spacing" textLength="295" x="208.3612" y="909.5576">bool IsInvertedDiagonalConnectedFour();</text><rect fill="#F24D5C" height="6" style="stroke:#C82930;stroke-width:1.0;" width="6" x="196.3612" y="919.5078"/><text fill="#000000" font-family="sans-serif" font-size="14" lengthAdjust="spacing" textLength="488" x="208.3612" y="925.8545">bool CheckInvertedDiagonalHasConnectedFour(int row, int column);</text><ellipse cx="199.3612" cy="938.8047" fill="#84BE84" rx="3" ry="3" style="stroke:#038048;stroke-width:1.0;"/><text fill="#000000" font-family="sans-serif" font-size="14" lengthAdjust="spacing" textLength="172" x="208.3612" y="942.1514">bool IsConnectedFour();</text><ellipse cx="199.3612" cy="955.1016" fill="#84BE84" rx="3" ry="3" style="stroke:#038048;stroke-width:1.0;"/><text fill="#000000" font-family="sans-serif" font-size="14" lengthAdjust="spacing" textLength="176" x="208.3612" y="958.4482">bool IsBoardComplete();</text></g><!--class BoardConstant--><g id="elem_BoardConstant"><rect codeLine="45" fill="#F1F1F1" height="129.4844" id="BoardConstant" rx="2.5" ry="2.5" style="stroke:#181818;stroke-width:0.5;" width="281" x="304.8612" y="1026"/><ellipse cx="387.1112" cy="1042" fill="#ADD1B2" rx="11" ry="11" style="stroke:#181818;stroke-width:1.0;"/><path d="M389.455,1037.6719 C388.5175,1037.2344 387.9237,1037.0938 387.0487,1037.0938 C384.4237,1037.0938 382.4237,1039.1719 382.4237,1041.8906 L382.4237,1043.0156 C382.4237,1045.5938 384.5331,1047.4844 387.4237,1047.4844 C388.6425,1047.4844 389.7987,1047.1875 390.5487,1046.6406 C391.1268,1046.2344 391.455,1045.7813 391.455,1045.3906 C391.455,1044.9375 391.0643,1044.5469 390.5956,1044.5469 C390.3768,1044.5469 390.1737,1044.625 389.9862,1044.8125 C389.5331,1045.2969 389.5331,1045.2969 389.3456,1045.3906 C388.9237,1045.6563 388.2362,1045.7813 387.4706,1045.7813 C385.4237,1045.7813 384.1268,1044.6875 384.1268,1042.9844 L384.1268,1041.8906 C384.1268,1040.1094 385.3768,1038.7969 387.1112,1038.7969 C387.6893,1038.7969 388.2987,1038.9531 388.7675,1039.2031 C389.2518,1039.4844 389.4237,1039.7031 389.5175,1040.1094 C389.58,1040.5156 389.6112,1040.6406 389.7518,1040.7656 C389.8925,1040.9063 390.1268,1041.0156 390.3456,1041.0156 C390.6112,1041.0156 390.8768,1040.875 391.0487,1040.6563 C391.1581,1040.5 391.1893,1040.3125 391.1893,1039.8906 L391.1893,1038.4688 C391.1893,1038.0313 391.1737,1037.9063 391.08,1037.75 C390.9237,1037.4844 390.6425,1037.3438 390.3456,1037.3438 C390.0487,1037.3438 389.8456,1037.4375 389.6268,1037.75 L389.455,1037.6719 Z " fill="#000000"/><text fill="#000000" font-family="sans-serif" font-size="14" lengthAdjust="spacing" textLength="108" x="407.6112" y="1046.8467">BoardConstant</text><line style="stroke:#181818;stroke-width:0.5;" x1="305.8612" x2="584.8612" y1="1058" y2="1058"/><polygon fill="none" points="315.8612,1067.6484,311.8612,1073.6484,319.8612,1073.6484" style="stroke:#1963A0;stroke-width:1.0;"/><text fill="#000000" font-family="sans-serif" font-size="14" lengthAdjust="spacing" textLength="201" x="324.8612" y="1074.9951">const int BOARD_COLUMNS;</text><polygon fill="none" points="315.8612,1083.9453,311.8612,1089.9453,319.8612,1089.9453" style="stroke:#1963A0;stroke-width:1.0;"/><text fill="#000000" font-family="sans-serif" font-size="14" lengthAdjust="spacing" textLength="176" x="324.8612" y="1091.292">const int BOARD_ROWS;</text><polygon fill="none" points="315.8612,1100.2422,311.8612,1106.2422,319.8612,1106.2422" style="stroke:#1963A0;stroke-width:1.0;"/><text fill="#000000" font-family="sans-serif" font-size="14" lengthAdjust="spacing" textLength="168" x="324.8612" y="1107.5889">const int WIN_NUMBER;</text><polygon fill="none" points="315.8612,1116.5391,311.8612,1122.5391,319.8612,1122.5391" style="stroke:#1963A0;stroke-width:1.0;"/><text fill="#000000" font-family="sans-serif" font-size="14" lengthAdjust="spacing" textLength="255" x="324.8612" y="1123.8857">const int MAX_COLUMN_TO_CHECK;</text><polygon fill="none" points="315.8612,1132.8359,311.8612,1138.8359,319.8612,1138.8359" style="stroke:#1963A0;stroke-width:1.0;"/><text fill="#000000" font-family="sans-serif" font-size="14" lengthAdjust="spacing" textLength="230" x="324.8612" y="1140.1826">const int MAX_ROW_TO_CHECK;</text><line style="stroke:#181818;stroke-width:0.5;" x1="305.8612" x2="584.8612" y1="1147.4844" y2="1147.4844"/></g><!--class Token--><g id="elem_Token"><rect codeLine="52" fill="#F1F1F1" height="80.5938" id="Token" rx="2.5" ry="2.5" style="stroke:#181818;stroke-width:0.5;" width="90" x="90.3612" y="1050"/><ellipse cx="111.2112" cy="1066" fill="#EB937F" rx="11" ry="11" style="stroke:#181818;stroke-width:1.0;"/><path d="M110.0081,1066.875 L111.4612,1066.875 L111.4612,1066.9844 C111.4612,1067.3906 111.4924,1067.5469 111.5706,1067.7031 C111.7268,1067.9531 112.0081,1068.1094 112.3049,1068.1094 C112.5549,1068.1094 112.8206,1067.9688 112.9768,1067.75 C113.1018,1067.5938 113.1331,1067.4375 113.1331,1066.9844 L113.1331,1065.0625 C113.1331,1064.9063 113.1331,1064.8594 113.1174,1064.7031 C113.0549,1064.2344 112.7424,1063.9219 112.2893,1063.9219 C112.0393,1063.9219 111.7737,1064.0625 111.6018,1064.2813 C111.4924,1064.4531 111.4612,1064.6094 111.4612,1065.0625 L111.4612,1065.1875 L110.0081,1065.1875 L110.0081,1062.7813 L113.9924,1062.7813 L113.9924,1063.6406 C113.9924,1064.0469 114.0237,1064.2188 114.1018,1064.375 C114.2737,1064.625 114.5549,1064.7813 114.8362,1064.7813 C115.1018,1064.7813 115.3674,1064.6406 115.5393,1064.4219 C115.6487,1064.25 115.6799,1064.1094 115.6799,1063.6406 L115.6799,1061.0938 L108.0549,1061.0938 C107.6174,1061.0938 107.4924,1061.1094 107.3362,1061.2031 C107.0862,1061.3594 106.9299,1061.6563 106.9299,1061.9375 C106.9299,1062.2188 107.0706,1062.4688 107.2893,1062.6406 C107.4456,1062.75 107.6331,1062.7813 108.0549,1062.7813 L108.3049,1062.7813 L108.3049,1069.2969 L108.0549,1069.2969 C107.6487,1069.2969 107.4924,1069.3125 107.3362,1069.4219 C107.0862,1069.5938 106.9299,1069.8594 106.9299,1070.1563 C106.9299,1070.4219 107.0706,1070.6719 107.2893,1070.8281 C107.4299,1070.9531 107.6643,1071 108.0549,1071 L116.0549,1071 L116.0549,1068.4219 C116.0549,1067.9844 116.0237,1067.8438 115.9456,1067.6875 C115.7737,1067.4375 115.4924,1067.2813 115.2112,1067.2813 C114.9456,1067.2813 114.6799,1067.3906 114.5081,1067.6406 C114.3987,1067.7969 114.3674,1067.9375 114.3674,1068.4219 L114.3674,1069.2969 L110.0081,1069.2969 L110.0081,1066.875 Z " fill="#000000"/><text fill="#000000" font-family="sans-serif" font-size="14" lengthAdjust="spacing" textLength="45" x="126.5112" y="1070.8467">Token</text><line style="stroke:#181818;stroke-width:0.5;" x1="91.3612" x2="179.3612" y1="1082" y2="1082"/><ellipse cx="101.3612" cy="1095.6484" fill="none" rx="3" ry="3" style="stroke:#038048;stroke-width:1.0;"/><text fill="#000000" font-family="sans-serif" font-size="14" lengthAdjust="spacing" textLength="35" x="110.3612" y="1098.9951">RED;</text><ellipse cx="101.3612" cy="1111.9453" fill="none" rx="3" ry="3" style="stroke:#038048;stroke-width:1.0;"/><text fill="#000000" font-family="sans-serif" font-size="14" lengthAdjust="spacing" textLength="64" x="110.3612" y="1115.292">YELLOW;</text><line style="stroke:#181818;stroke-width:0.5;" x1="91.3612" x2="179.3612" y1="1122.5938" y2="1122.5938"/></g><!--link ConnectFour to Board--><g id="link_ConnectFour_Board"><path codeLine="57" d="M390.9445,163.9752 C399.3615,183.0132 402.4002,192.894 407.3612,213 C443.8102,360.715 451.027,528.8501 450.502,650.9001 " fill="none" id="ConnectFour-Board" style="stroke:#181818;stroke-width:1.0;"/><polygon fill="#181818" points="386.0922,153,384.86,160.105,390.9445,163.9752,392.1768,156.8702,386.0922,153" style="stroke:#181818;stroke-width:1.0;"/><polygon fill="#181818" points="450.4762,656.9,454.5149,647.9173,450.4977,651.9,446.515,647.8829,450.4762,656.9" style="stroke:#181818;stroke-width:1.0;"/></g><!--link ConnectFour to Turn--><g id="link_ConnectFour_Turn"><path codeLine="58" d="M310.7759,164.0014 C302.0789,183.2064 300.0543,187.6773 291.1723,207.2913 " fill="none" id="ConnectFour-Turn" style="stroke:#181818;stroke-width:1.0;"/><polygon fill="#181818" points="315.7262,153.07,309.6073,156.8856,310.7759,164.0014,316.8948,160.1858,315.7262,153.07" style="stroke:#181818;stroke-width:1.0;"/><polygon fill="#181818" points="288.6972,212.757,296.0536,206.2085,290.7598,208.2022,288.766,202.9084,288.6972,212.757" style="stroke:#181818;stroke-width:1.0;"/></g><!--link Turn to Player--><g id="link_Turn_Player"><path codeLine="59" d="M252.3612,375.047 C252.3612,394.459 252.3612,409.218 252.3612,428.644 " fill="none" id="Turn-to-Player" style="stroke:#181818;stroke-width:1.0;"/><polygon fill="#181818" points="252.3612,434.644,256.3612,425.644,252.3612,429.644,248.3612,425.644,252.3612,434.644" style="stroke:#181818;stroke-width:1.0;"/><text fill="#000000" font-family="sans-serif" font-size="13" lengthAdjust="spacing" textLength="8" x="244.005" y="423.7996">2</text></g><!--link Turn to Token--><g id="link_Turn_Token"><path codeLine="60" d="M141.93,375.254 C125.0257,392.905 110.014,412.986 100.3612,435 C6,650.199 84.7697,938.3841 119.484,1043.9901 " fill="none" id="Turn-to-Token" style="stroke:#181818;stroke-width:1.0;stroke-dasharray:7.0,7.0;"/><polygon fill="#181818" points="121.3577,1049.69,122.3472,1039.891,119.7963,1044.94,114.7472,1042.3892,121.3577,1049.69" style="stroke:#181818;stroke-width:1.0;"/></g><!--link Player to Token--><g id="link_Player_Token"><path codeLine="61" d="M191.406,607.4825 C180.748,626.4045 176.7962,636.582 170.3612,657 C126.4899,796.207 128.6832,966.4432 132.4869,1043.9182 " fill="none" id="Player-Token" style="stroke:#181818;stroke-width:1.0;"/><polygon fill="#181818" points="197.2952,597.027,190.8654,600.2917,191.406,607.4825,197.8358,604.2178,197.2952,597.027" style="stroke:#181818;stroke-width:1.0;"/><polygon fill="#181818" points="132.7811,1049.911,136.335,1040.7257,132.5359,1044.917,128.3446,1041.118,132.7811,1049.911" style="stroke:#181818;stroke-width:1.0;"/><text fill="#000000" font-family="sans-serif" font-size="13" lengthAdjust="spacing" textLength="16" x="115.0288" y="1039.0578">21</text></g><!--link Player to Board--><g id="link_Player_Board"><path codeLine="62" d="M305.0992,597.2 C317.3202,615.785 327.4337,631.1637 340.9637,651.7397 " fill="none" id="Player-to-Board" style="stroke:#181818;stroke-width:1.0;"/><polygon fill="#181818" points="344.2602,656.753,342.6576,647.0354,341.5131,652.5753,335.9732,651.4308,344.2602,656.753" style="stroke:#181818;stroke-width:1.0;"/></g><!--link Board to Token--><g id="link_Board_Token"><path codeLine="63" d="M273.1372,966.391 C238.4362,997.398 209.3753,1023.3652 184.0793,1045.9682 " fill="none" id="Board-to-Token" style="stroke:#181818;stroke-width:1.0;stroke-dasharray:7.0,7.0;"/><polygon fill="#181818" points="179.6052,1049.966,188.9816,1046.952,183.3336,1046.6345,183.6512,1040.9866,179.6052,1049.966" style="stroke:#181818;stroke-width:1.0;"/></g><!--link Board to BoardConstant--><g id="link_Board_BoardConstant"><path codeLine="64" d="M445.3612,966.391 C445.3612,987.311 445.3612,1001.757 445.3612,1019.788 " fill="none" id="Board-to-BoardConstant" style="stroke:#181818;stroke-width:1.0;stroke-dasharray:7.0,7.0;"/><polygon fill="#181818" points="445.3612,1025.788,449.3612,1016.788,445.3612,1020.788,441.3612,1016.788,445.3612,1025.788" style="stroke:#181818;stroke-width:1.0;"/></g><!--SRC=[bLHDR-8m5BpdLrYSmh8WRQ-La2244XMIAj1bAuIGIQnYDR6HxO1QrFxsZRz8qgNRzfAGD-EPUURPIGOv1nub12LYJ0jsSW3eWY65B0LR-RnMXKN1213bGtvswWlSjYxTm1pD1MH25xhWBeFFibWdJ20VOuBv3gLkstbr4cKlnRKl5r3W12IKS04m4U1kEdZmu_acl9yD_RWIHWpirOklcfIrviYrIS4O8aBJTGRfvAhcskhxG74Al1qaZqX19gegBnaMQ908V41Qee7AaYpO7ZJbWouMqQqVDfjOq2TKxgXyyfK9_MxNEqRKLToV6hQRMmXLjPbi7FbR1QyYsuHg-QaoNwrNQnD0hrC4- - -f9WE21OOPVa4AKyjuSnji3fDHxJlDYfo4HRv5pAXjASs01qb0E68Y889wYkH-m9Vb6oJ6c77Xvtln7DDZGFw_Hda4V48PVg54mCmCAKghCRL9TYXvAYNBSMoIf3IZnteVJVNVPNoSVAgjatvVVeJX8oMVoblQzmq2SYWxGEaNZTxJlspOiOON3CwO6YgFvliC2QH7rHwTQc8zUOeW4N9otsfdQXWDuj76YwRtit1-VH6Ce-K_o388Q-UmZim6VupSPX5jl8dltLwYbA8r_DL1fCZrWJgftc9_f9jyyAVJQ2afJksw1E17DwL7qksRuzu0pvYyZHnrwTfAwwfbxWDTxybwhw-j7NCdLWAjgr-j9jQrbeusxlNw6Zz_DlRxBm00]--></g></svg>