<?xml version="1.0" encoding="us-ascii" standalone="no"?><svg xmlns="http://www.w3.org/2000/svg" xmlns:xlink="http://www.w3.org/1999/xlink" contentStyleType="text/css" height="1530px" preserveAspectRatio="none" style="width:1442px;height:1530px;background:#FFFFFF;" version="1.1" viewBox="0 0 1442 1530" width="1442px" zoomAndPan="magnify"><defs/><g><!--class ConnectFour--><g id="elem_ConnectFour"><rect codeLine="1" fill="#F1F1F1" height="162.0781" id="ConnectFour" rx="2.5" ry="2.5" style="stroke:#181818;stroke-width:0.5;" width="203" x="1191.5535" y="7"/><ellipse cx="1242.8035" cy="23" fill="#ADD1B2" rx="11" ry="11" style="stroke:#181818;stroke-width:1.0;"/><path d="M1245.1473,18.6719 C1244.2098,18.2344 1243.616,18.0938 1242.741,18.0938 C1240.116,18.0938 1238.116,20.1719 1238.116,22.8906 L1238.116,24.0156 C1238.116,26.5938 1240.2254,28.4844 1243.116,28.4844 C1244.3348,28.4844 1245.491,28.1875 1246.241,27.6406 C1246.8191,27.2344 1247.1473,26.7813 1247.1473,26.3906 C1247.1473,25.9375 1246.7566,25.5469 1246.2879,25.5469 C1246.0691,25.5469 1245.866,25.625 1245.6785,25.8125 C1245.2254,26.2969 1245.2254,26.2969 1245.0379,26.3906 C1244.616,26.6563 1243.9285,26.7813 1243.1629,26.7813 C1241.116,26.7813 1239.8191,25.6875 1239.8191,23.9844 L1239.8191,22.8906 C1239.8191,21.1094 1241.0691,19.7969 1242.8035,19.7969 C1243.3816,19.7969 1243.991,19.9531 1244.4598,20.2031 C1244.9441,20.4844 1245.116,20.7031 1245.2098,21.1094 C1245.2723,21.5156 1245.3035,21.6406 1245.4441,21.7656 C1245.5848,21.9063 1245.8191,22.0156 1246.0379,22.0156 C1246.3035,22.0156 1246.5691,21.875 1246.741,21.6563 C1246.8504,21.5 1246.8816,21.3125 1246.8816,20.8906 L1246.8816,19.4688 C1246.8816,19.0313 1246.866,18.9063 1246.7723,18.75 C1246.616,18.4844 1246.3348,18.3438 1246.0379,18.3438 C1245.741,18.3438 1245.5379,18.4375 1245.3191,18.75 L1245.1473,18.6719 Z " fill="#000000"/><text fill="#000000" font-family="sans-serif" font-size="14" lengthAdjust="spacing" textLength="92" x="1263.3035" y="27.8467">ConnectFour</text><line style="stroke:#181818;stroke-width:0.5;" x1="1192.5535" x2="1393.5535" y1="39" y2="39"/><rect fill="none" height="6" style="stroke:#C82930;stroke-width:1.0;" width="6" x="1199.5535" y="49.6484"/><text fill="#000000" font-family="sans-serif" font-size="14" lengthAdjust="spacing" textLength="93" x="1211.5535" y="55.9951">Board board;</text><rect fill="none" height="6" style="stroke:#C82930;stroke-width:1.0;" width="6" x="1199.5535" y="65.9453"/><text fill="#000000" font-family="sans-serif" font-size="14" lengthAdjust="spacing" textLength="71" x="1211.5535" y="72.292">Turn turn;</text><line style="stroke:#181818;stroke-width:0.5;" x1="1192.5535" x2="1393.5535" y1="79.5938" y2="79.5938"/><ellipse cx="1202.5535" cy="93.2422" fill="#84BE84" rx="3" ry="3" style="stroke:#038048;stroke-width:1.0;"/><text fill="#000000" font-family="sans-serif" font-size="14" lengthAdjust="spacing" textLength="107" x="1211.5535" y="96.5889">ConnectFour();</text><ellipse cx="1202.5535" cy="109.5391" fill="#84BE84" rx="3" ry="3" style="stroke:#038048;stroke-width:1.0;"/><text fill="#000000" font-family="sans-serif" font-size="14" lengthAdjust="spacing" textLength="128" x="1211.5535" y="112.8857">void GameStart();</text><rect fill="#F24D5C" height="6" style="stroke:#C82930;stroke-width:1.0;" width="6" x="1199.5535" y="122.8359"/><text fill="#000000" font-family="sans-serif" font-size="14" lengthAdjust="spacing" textLength="120" x="1211.5535" y="129.1826">void PlayGame();</text><ellipse cx="1202.5535" cy="142.1328" fill="#84BE84" rx="3" ry="3" style="stroke:#038048;stroke-width:1.0;"/><text fill="#000000" font-family="sans-serif" font-size="14" lengthAdjust="spacing" textLength="177" x="1211.5535" y="145.4795">bool GameHasFinished();</text><rect fill="#F24D5C" height="6" style="stroke:#C82930;stroke-width:1.0;" width="6" x="1199.5535" y="155.4297"/><text fill="#000000" font-family="sans-serif" font-size="14" lengthAdjust="spacing" textLength="166" x="1211.5535" y="161.7764">void PrintGameTable();</text></g><!--class Turn--><g id="elem_Turn"><rect codeLine="10" fill="#F1F1F1" height="145.7813" id="Turn" rx="2.5" ry="2.5" style="stroke:#181818;stroke-width:0.5;" width="348" x="544.0485" y="229"/><ellipse cx="697.7985" cy="245" fill="#ADD1B2" rx="11" ry="11" style="stroke:#181818;stroke-width:1.0;"/><path d="M700.1423,240.6719 C699.2048,240.2344 698.611,240.0938 697.736,240.0938 C695.111,240.0938 693.111,242.1719 693.111,244.8906 L693.111,246.0156 C693.111,248.5938 695.2204,250.4844 698.111,250.4844 C699.3298,250.4844 700.486,250.1875 701.236,249.6406 C701.8141,249.2344 702.1423,248.7813 702.1423,248.3906 C702.1423,247.9375 701.7516,247.5469 701.2829,247.5469 C701.0641,247.5469 700.861,247.625 700.6735,247.8125 C700.2204,248.2969 700.2204,248.2969 700.0329,248.3906 C699.611,248.6563 698.9235,248.7813 698.1579,248.7813 C696.111,248.7813 694.8141,247.6875 694.8141,245.9844 L694.8141,244.8906 C694.8141,243.1094 696.0641,241.7969 697.7985,241.7969 C698.3766,241.7969 698.986,241.9531 699.4548,242.2031 C699.9391,242.4844 700.111,242.7031 700.2048,243.1094 C700.2673,243.5156 700.2985,243.6406 700.4391,243.7656 C700.5798,243.9063 700.8141,244.0156 701.0329,244.0156 C701.2985,244.0156 701.5641,243.875 701.736,243.6563 C701.8454,243.5 701.8766,243.3125 701.8766,242.8906 L701.8766,241.4688 C701.8766,241.0313 701.861,240.9063 701.7673,240.75 C701.611,240.4844 701.3298,240.3438 701.0329,240.3438 C700.736,240.3438 700.5329,240.4375 700.3141,240.75 L700.1423,240.6719 Z " fill="#000000"/><text fill="#000000" font-family="sans-serif" font-size="14" lengthAdjust="spacing" textLength="32" x="718.2985" y="249.8467">Turn</text><line style="stroke:#181818;stroke-width:0.5;" x1="545.0485" x2="891.0485" y1="261" y2="261"/><rect fill="none" height="6" style="stroke:#C82930;stroke-width:1.0;" width="6" x="552.0485" y="271.6484"/><text fill="#000000" font-family="sans-serif" font-size="14" lengthAdjust="spacing" textLength="322" x="564.0485" y="277.9951">Player players[MAXIMUM_PLAYERS_NUMBER];</text><rect fill="none" height="6" style="stroke:#C82930;stroke-width:1.0;" width="6" x="552.0485" y="287.9453"/><text fill="#000000" font-family="sans-serif" font-size="14" lengthAdjust="spacing" textLength="126" x="564.0485" y="294.292">int currentPlayer;</text><line style="stroke:#181818;stroke-width:0.5;" x1="545.0485" x2="891.0485" y1="301.5938" y2="301.5938"/><ellipse cx="555.0485" cy="315.2422" fill="#84BE84" rx="3" ry="3" style="stroke:#038048;stroke-width:1.0;"/><text fill="#000000" font-family="sans-serif" font-size="14" lengthAdjust="spacing" textLength="84" x="564.0485" y="318.5889">Turn(Board)</text><ellipse cx="555.0485" cy="331.5391" fill="#84BE84" rx="3" ry="3" style="stroke:#038048;stroke-width:1.0;"/><text fill="#000000" font-family="sans-serif" font-size="14" lengthAdjust="spacing" textLength="135" x="564.0485" y="334.8857">void ChangeTurn();</text><ellipse cx="555.0485" cy="347.8359" fill="#84BE84" rx="3" ry="3" style="stroke:#038048;stroke-width:1.0;"/><text fill="#000000" font-family="sans-serif" font-size="14" lengthAdjust="spacing" textLength="179" x="564.0485" y="351.1826">void WriteActivePlayer();</text><ellipse cx="555.0485" cy="364.1328" fill="#84BE84" rx="3" ry="3" style="stroke:#038048;stroke-width:1.0;"/><text fill="#000000" font-family="sans-serif" font-size="14" lengthAdjust="spacing" textLength="78" x="564.0485" y="367.4795">void Play();</text></g><!--class Player--><g id="elem_Player"><rect codeLine="18" fill="#F1F1F1" height="162.0781" id="Player" rx="2.5" ry="2.5" style="stroke:#181818;stroke-width:0.5;" width="243" x="508.5485" y="435"/><ellipse cx="603.7985" cy="451" fill="#ADD1B2" rx="11" ry="11" style="stroke:#181818;stroke-width:1.0;"/><path d="M606.1423,446.6719 C605.2048,446.2344 604.611,446.0938 603.736,446.0938 C601.111,446.0938 599.111,448.1719 599.111,450.8906 L599.111,452.0156 C599.111,454.5938 601.2204,456.4844 604.111,456.4844 C605.3298,456.4844 606.486,456.1875 607.236,455.6406 C607.8141,455.2344 608.1423,454.7813 608.1423,454.3906 C608.1423,453.9375 607.7516,453.5469 607.2829,453.5469 C607.0641,453.5469 606.861,453.625 606.6735,453.8125 C606.2204,454.2969 606.2204,454.2969 606.0329,454.3906 C605.611,454.6563 604.9235,454.7813 604.1579,454.7813 C602.111,454.7813 600.8141,453.6875 600.8141,451.9844 L600.8141,450.8906 C600.8141,449.1094 602.0641,447.7969 603.7985,447.7969 C604.3766,447.7969 604.986,447.9531 605.4548,448.2031 C605.9391,448.4844 606.111,448.7031 606.2048,449.1094 C606.2673,449.5156 606.2985,449.6406 606.4391,449.7656 C606.5798,449.9063 606.8141,450.0156 607.0329,450.0156 C607.2985,450.0156 607.5641,449.875 607.736,449.6563 C607.8454,449.5 607.8766,449.3125 607.8766,448.8906 L607.8766,447.4688 C607.8766,447.0313 607.861,446.9063 607.7673,446.75 C607.611,446.4844 607.3298,446.3438 607.0329,446.3438 C606.736,446.3438 606.5329,446.4375 606.3141,446.75 L606.1423,446.6719 Z " fill="#000000"/><text fill="#000000" font-family="sans-serif" font-size="14" lengthAdjust="spacing" textLength="44" x="624.2985" y="455.8467">Player</text><line style="stroke:#181818;stroke-width:0.5;" x1="509.5485" x2="750.5485" y1="467" y2="467"/><rect fill="none" height="6" style="stroke:#C82930;stroke-width:1.0;" width="6" x="516.5485" y="477.6484"/><text fill="#000000" font-family="sans-serif" font-size="14" lengthAdjust="spacing" textLength="97" x="528.5485" y="483.9951">Token token;</text><rect fill="none" height="6" style="stroke:#C82930;stroke-width:1.0;" width="6" x="516.5485" y="493.9453"/><text fill="#000000" font-family="sans-serif" font-size="14" lengthAdjust="spacing" textLength="152" x="528.5485" y="500.292">int tokensLeftCount;</text><rect fill="none" height="6" style="stroke:#C82930;stroke-width:1.0;" width="6" x="516.5485" y="510.2422"/><text fill="#000000" font-family="sans-serif" font-size="14" lengthAdjust="spacing" textLength="93" x="528.5485" y="516.5889">Board board;</text><line style="stroke:#181818;stroke-width:0.5;" x1="509.5485" x2="750.5485" y1="523.8906" y2="523.8906"/><ellipse cx="519.5485" cy="537.5391" fill="#84BE84" rx="3" ry="3" style="stroke:#038048;stroke-width:1.0;"/><text fill="#000000" font-family="sans-serif" font-size="14" lengthAdjust="spacing" textLength="154" x="528.5485" y="540.8857">Player(Token, Board);</text><rect fill="#F24D5C" height="6" style="stroke:#C82930;stroke-width:1.0;" width="6" x="516.5485" y="550.8359"/><text fill="#000000" font-family="sans-serif" font-size="14" lengthAdjust="spacing" textLength="217" x="528.5485" y="557.1826">PutToken(int columnNumber);</text><ellipse cx="519.5485" cy="570.1328" fill="#84BE84" rx="3" ry="3" style="stroke:#038048;stroke-width:1.0;"/><text fill="#000000" font-family="sans-serif" font-size="14" lengthAdjust="spacing" textLength="44" x="528.5485" y="573.4795">Play();</text><ellipse cx="519.5485" cy="586.4297" fill="#84BE84" rx="3" ry="3" style="stroke:#038048;stroke-width:1.0;"/><text fill="#000000" font-family="sans-serif" font-size="14" lengthAdjust="spacing" textLength="99" x="528.5485" y="589.7764">WritePlayer();</text></g><!--class Board--><g id="elem_Board"><rect codeLine="27" fill="#F1F1F1" height="325.0469" id="Board" rx="2.5" ry="2.5" style="stroke:#181818;stroke-width:0.5;" width="514" x="514.0485" y="657"/><ellipse cx="745.7985" cy="673" fill="#ADD1B2" rx="11" ry="11" style="stroke:#181818;stroke-width:1.0;"/><path d="M748.1423,668.6719 C747.2048,668.2344 746.611,668.0938 745.736,668.0938 C743.111,668.0938 741.111,670.1719 741.111,672.8906 L741.111,674.0156 C741.111,676.5938 743.2204,678.4844 746.111,678.4844 C747.3298,678.4844 748.486,678.1875 749.236,677.6406 C749.8141,677.2344 750.1423,676.7813 750.1423,676.3906 C750.1423,675.9375 749.7516,675.5469 749.2829,675.5469 C749.0641,675.5469 748.861,675.625 748.6735,675.8125 C748.2204,676.2969 748.2204,676.2969 748.0329,676.3906 C747.611,676.6563 746.9235,676.7813 746.1579,676.7813 C744.111,676.7813 742.8141,675.6875 742.8141,673.9844 L742.8141,672.8906 C742.8141,671.1094 744.0641,669.7969 745.7985,669.7969 C746.3766,669.7969 746.986,669.9531 747.4548,670.2031 C747.9391,670.4844 748.111,670.7031 748.2048,671.1094 C748.2673,671.5156 748.2985,671.6406 748.4391,671.7656 C748.5798,671.9063 748.8141,672.0156 749.0329,672.0156 C749.2985,672.0156 749.5641,671.875 749.736,671.6563 C749.8454,671.5 749.8766,671.3125 749.8766,670.8906 L749.8766,669.4688 C749.8766,669.0313 749.861,668.9063 749.7673,668.75 C749.611,668.4844 749.3298,668.3438 749.0329,668.3438 C748.736,668.3438 748.5329,668.4375 748.3141,668.75 L748.1423,668.6719 Z " fill="#000000"/><text fill="#000000" font-family="sans-serif" font-size="14" lengthAdjust="spacing" textLength="42" x="766.2985" y="677.8467">Board</text><line style="stroke:#181818;stroke-width:0.5;" x1="515.0485" x2="1027.0485" y1="689" y2="689"/><rect fill="none" height="6" style="stroke:#C82930;stroke-width:1.0;" width="6" x="522.0485" y="699.6484"/><text fill="#000000" font-family="sans-serif" font-size="14" lengthAdjust="spacing" textLength="124" x="534.0485" y="705.9951">Token[][] tokens;</text><line style="stroke:#181818;stroke-width:0.5;" x1="515.0485" x2="1027.0485" y1="713.2969" y2="713.2969"/><ellipse cx="525.0485" cy="726.9453" fill="#84BE84" rx="3" ry="3" style="stroke:#038048;stroke-width:1.0;"/><text fill="#000000" font-family="sans-serif" font-size="14" lengthAdjust="spacing" textLength="57" x="534.0485" y="730.292">Board();</text><rect fill="#F24D5C" height="6" style="stroke:#C82930;stroke-width:1.0;" width="6" x="522.0485" y="740.2422"/><text fill="#000000" font-family="sans-serif" font-size="14" lengthAdjust="spacing" textLength="204" x="534.0485" y="746.5889">void InitializeBoardTokens();</text><ellipse cx="525.0485" cy="759.5391" fill="#84BE84" rx="3" ry="3" style="stroke:#038048;stroke-width:1.0;"/><text fill="#000000" font-family="sans-serif" font-size="14" lengthAdjust="spacing" textLength="306" x="534.0485" y="762.8857">bool PutToken(Token, int columnNumber);</text><rect fill="#F24D5C" height="6" style="stroke:#C82930;stroke-width:1.0;" width="6" x="522.0485" y="772.8359"/><text fill="#000000" font-family="sans-serif" font-size="14" lengthAdjust="spacing" textLength="336" x="534.0485" y="779.1826">bool CanInsertIntoColumn(int columnNumber);</text><rect fill="#F24D5C" height="6" style="stroke:#C82930;stroke-width:1.0;" width="6" x="522.0485" y="789.1328"/><text fill="#000000" font-family="sans-serif" font-size="14" lengthAdjust="spacing" textLength="376" x="534.0485" y="795.4795">int GetFirstEmptyRowInColumn(int columnNumber);</text><rect fill="#F24D5C" height="6" style="stroke:#C82930;stroke-width:1.0;" width="6" x="522.0485" y="805.4297"/><text fill="#000000" font-family="sans-serif" font-size="14" lengthAdjust="spacing" textLength="246" x="534.0485" y="811.7764">bool IsHorizontalConnectedFour();</text><rect fill="#F24D5C" height="6" style="stroke:#C82930;stroke-width:1.0;" width="6" x="522.0485" y="821.7266"/><text fill="#000000" font-family="sans-serif" font-size="14" lengthAdjust="spacing" textLength="395" x="534.0485" y="828.0732">bool CheckRowHasConnectedFour(int row, int column);</text><rect fill="#F24D5C" height="6" style="stroke:#C82930;stroke-width:1.0;" width="6" x="522.0485" y="838.0234"/><text fill="#000000" font-family="sans-serif" font-size="14" lengthAdjust="spacing" textLength="228" x="534.0485" y="844.3701">bool IsVerticalConnectedFour();</text><rect fill="#F24D5C" height="6" style="stroke:#C82930;stroke-width:1.0;" width="6" x="522.0485" y="854.3203"/><text fill="#000000" font-family="sans-serif" font-size="14" lengthAdjust="spacing" textLength="419" x="534.0485" y="860.667">bool CheckColumnHasConnectedFour(int row, int column);</text><rect fill="#F24D5C" height="6" style="stroke:#C82930;stroke-width:1.0;" width="6" x="522.0485" y="870.6172"/><text fill="#000000" font-family="sans-serif" font-size="14" lengthAdjust="spacing" textLength="234" x="534.0485" y="876.9639">bool IsDiagonalConnectedFour();</text><rect fill="#F24D5C" height="6" style="stroke:#C82930;stroke-width:1.0;" width="6" x="522.0485" y="886.9141"/><text fill="#000000" font-family="sans-serif" font-size="14" lengthAdjust="spacing" textLength="427" x="534.0485" y="893.2607">bool CheckDiagonalHasConnectedFour(int row, int column);</text><rect fill="#F24D5C" height="6" style="stroke:#C82930;stroke-width:1.0;" width="6" x="522.0485" y="903.2109"/><text fill="#000000" font-family="sans-serif" font-size="14" lengthAdjust="spacing" textLength="295" x="534.0485" y="909.5576">bool IsInvertedDiagonalConnectedFour();</text><rect fill="#F24D5C" height="6" style="stroke:#C82930;stroke-width:1.0;" width="6" x="522.0485" y="919.5078"/><text fill="#000000" font-family="sans-serif" font-size="14" lengthAdjust="spacing" textLength="488" x="534.0485" y="925.8545">bool CheckInvertedDiagonalHasConnectedFour(int row, int column);</text><ellipse cx="525.0485" cy="938.8047" fill="#84BE84" rx="3" ry="3" style="stroke:#038048;stroke-width:1.0;"/><text fill="#000000" font-family="sans-serif" font-size="14" lengthAdjust="spacing" textLength="172" x="534.0485" y="942.1514">bool IsConnectedFour();</text><ellipse cx="525.0485" cy="955.1016" fill="#84BE84" rx="3" ry="3" style="stroke:#038048;stroke-width:1.0;"/><text fill="#000000" font-family="sans-serif" font-size="14" lengthAdjust="spacing" textLength="176" x="534.0485" y="958.4482">bool IsBoardComplete();</text><ellipse cx="525.0485" cy="971.3984" fill="#84BE84" rx="3" ry="3" style="stroke:#038048;stroke-width:1.0;"/><text fill="#000000" font-family="sans-serif" font-size="14" lengthAdjust="spacing" textLength="126" x="534.0485" y="974.7451">void PrintBoard();</text></g><!--class BoardConstant--><g id="elem_BoardConstant"><rect codeLine="46" fill="#F1F1F1" height="129.4844" id="BoardConstant" rx="2.5" ry="2.5" style="stroke:#181818;stroke-width:0.5;" width="281" x="552.5485" y="1091"/><ellipse cx="634.7985" cy="1107" fill="#ADD1B2" rx="11" ry="11" style="stroke:#181818;stroke-width:1.0;"/><path d="M637.1423,1102.6719 C636.2048,1102.2344 635.611,1102.0938 634.736,1102.0938 C632.111,1102.0938 630.111,1104.1719 630.111,1106.8906 L630.111,1108.0156 C630.111,1110.5938 632.2204,1112.4844 635.111,1112.4844 C636.3298,1112.4844 637.486,1112.1875 638.236,1111.6406 C638.8141,1111.2344 639.1423,1110.7813 639.1423,1110.3906 C639.1423,1109.9375 638.7516,1109.5469 638.2829,1109.5469 C638.0641,1109.5469 637.861,1109.625 637.6735,1109.8125 C637.2204,1110.2969 637.2204,1110.2969 637.0329,1110.3906 C636.611,1110.6563 635.9235,1110.7813 635.1579,1110.7813 C633.111,1110.7813 631.8141,1109.6875 631.8141,1107.9844 L631.8141,1106.8906 C631.8141,1105.1094 633.0641,1103.7969 634.7985,1103.7969 C635.3766,1103.7969 635.986,1103.9531 636.4548,1104.2031 C636.9391,1104.4844 637.111,1104.7031 637.2048,1105.1094 C637.2673,1105.5156 637.2985,1105.6406 637.4391,1105.7656 C637.5798,1105.9063 637.8141,1106.0156 638.0329,1106.0156 C638.2985,1106.0156 638.5641,1105.875 638.736,1105.6563 C638.8454,1105.5 638.8766,1105.3125 638.8766,1104.8906 L638.8766,1103.4688 C638.8766,1103.0313 638.861,1102.9063 638.7673,1102.75 C638.611,1102.4844 638.3298,1102.3438 638.0329,1102.3438 C637.736,1102.3438 637.5329,1102.4375 637.3141,1102.75 L637.1423,1102.6719 Z " fill="#000000"/><text fill="#000000" font-family="sans-serif" font-size="14" lengthAdjust="spacing" textLength="108" x="655.2985" y="1111.8467">BoardConstant</text><line style="stroke:#181818;stroke-width:0.5;" x1="553.5485" x2="832.5485" y1="1123" y2="1123"/><polygon fill="none" points="563.5485,1132.6484,559.5485,1138.6484,567.5485,1138.6484" style="stroke:#1963A0;stroke-width:1.0;"/><text fill="#000000" font-family="sans-serif" font-size="14" lengthAdjust="spacing" textLength="201" x="572.5485" y="1139.9951">const int BOARD_COLUMNS;</text><polygon fill="none" points="563.5485,1148.9453,559.5485,1154.9453,567.5485,1154.9453" style="stroke:#1963A0;stroke-width:1.0;"/><text fill="#000000" font-family="sans-serif" font-size="14" lengthAdjust="spacing" textLength="176" x="572.5485" y="1156.292">const int BOARD_ROWS;</text><polygon fill="none" points="563.5485,1165.2422,559.5485,1171.2422,567.5485,1171.2422" style="stroke:#1963A0;stroke-width:1.0;"/><text fill="#000000" font-family="sans-serif" font-size="14" lengthAdjust="spacing" textLength="168" x="572.5485" y="1172.5889">const int WIN_NUMBER;</text><polygon fill="none" points="563.5485,1181.5391,559.5485,1187.5391,567.5485,1187.5391" style="stroke:#1963A0;stroke-width:1.0;"/><text fill="#000000" font-family="sans-serif" font-size="14" lengthAdjust="spacing" textLength="255" x="572.5485" y="1188.8857">const int MAX_COLUMN_TO_CHECK;</text><polygon fill="none" points="563.5485,1197.8359,559.5485,1203.8359,567.5485,1203.8359" style="stroke:#1963A0;stroke-width:1.0;"/><text fill="#000000" font-family="sans-serif" font-size="14" lengthAdjust="spacing" textLength="230" x="572.5485" y="1205.1826">const int MAX_ROW_TO_CHECK;</text><line style="stroke:#181818;stroke-width:0.5;" x1="553.5485" x2="832.5485" y1="1212.4844" y2="1212.4844"/></g><!--class PlayerConstant--><g id="elem_PlayerConstant"><rect codeLine="53" fill="#F1F1F1" height="80.5938" id="PlayerConstant" rx="2.5" ry="2.5" style="stroke:#181818;stroke-width:0.5;" width="306" x="102.0485" y="779"/><ellipse cx="195.7985" cy="795" fill="#ADD1B2" rx="11" ry="11" style="stroke:#181818;stroke-width:1.0;"/><path d="M198.1423,790.6719 C197.2048,790.2344 196.611,790.0938 195.736,790.0938 C193.111,790.0938 191.111,792.1719 191.111,794.8906 L191.111,796.0156 C191.111,798.5938 193.2204,800.4844 196.111,800.4844 C197.3298,800.4844 198.486,800.1875 199.236,799.6406 C199.8141,799.2344 200.1423,798.7813 200.1423,798.3906 C200.1423,797.9375 199.7516,797.5469 199.2829,797.5469 C199.0641,797.5469 198.861,797.625 198.6735,797.8125 C198.2204,798.2969 198.2204,798.2969 198.0329,798.3906 C197.611,798.6563 196.9235,798.7813 196.1579,798.7813 C194.111,798.7813 192.8141,797.6875 192.8141,795.9844 L192.8141,794.8906 C192.8141,793.1094 194.0641,791.7969 195.7985,791.7969 C196.3766,791.7969 196.986,791.9531 197.4548,792.2031 C197.9391,792.4844 198.111,792.7031 198.2048,793.1094 C198.2673,793.5156 198.2985,793.6406 198.4391,793.7656 C198.5798,793.9063 198.8141,794.0156 199.0329,794.0156 C199.2985,794.0156 199.5641,793.875 199.736,793.6563 C199.8454,793.5 199.8766,793.3125 199.8766,792.8906 L199.8766,791.4688 C199.8766,791.0313 199.861,790.9063 199.7673,790.75 C199.611,790.4844 199.3298,790.3438 199.0329,790.3438 C198.736,790.3438 198.5329,790.4375 198.3141,790.75 L198.1423,790.6719 Z " fill="#000000"/><text fill="#000000" font-family="sans-serif" font-size="14" lengthAdjust="spacing" textLength="110" x="216.2985" y="799.8467">PlayerConstant</text><line style="stroke:#181818;stroke-width:0.5;" x1="103.0485" x2="407.0485" y1="811" y2="811"/><polygon fill="none" points="113.0485,820.6484,109.0485,826.6484,117.0485,826.6484" style="stroke:#1963A0;stroke-width:1.0;"/><text fill="#000000" font-family="sans-serif" font-size="14" lengthAdjust="spacing" textLength="265" x="122.0485" y="827.9951">const int MAXIMUM_TOKEN_NUMBER;</text><polygon fill="none" points="113.0485,836.9453,109.0485,842.9453,117.0485,842.9453" style="stroke:#1963A0;stroke-width:1.0;"/><text fill="#000000" font-family="sans-serif" font-size="14" lengthAdjust="spacing" textLength="280" x="122.0485" y="844.292">const int MAXIMUM_PLAYERS_NUMBER;</text><line style="stroke:#181818;stroke-width:0.5;" x1="103.0485" x2="407.0485" y1="851.5938" y2="851.5938"/></g><!--class Token--><g id="elem_Token"><rect codeLine="57" fill="#F1F1F1" height="80.5938" id="Token" rx="2.5" ry="2.5" style="stroke:#181818;stroke-width:0.5;" width="90" x="416.0485" y="1115"/><ellipse cx="436.8985" cy="1131" fill="#EB937F" rx="11" ry="11" style="stroke:#181818;stroke-width:1.0;"/><path d="M435.6954,1131.875 L437.1485,1131.875 L437.1485,1131.9844 C437.1485,1132.3906 437.1798,1132.5469 437.2579,1132.7031 C437.4141,1132.9531 437.6954,1133.1094 437.9923,1133.1094 C438.2423,1133.1094 438.5079,1132.9688 438.6641,1132.75 C438.7891,1132.5938 438.8204,1132.4375 438.8204,1131.9844 L438.8204,1130.0625 C438.8204,1129.9063 438.8204,1129.8594 438.8048,1129.7031 C438.7423,1129.2344 438.4298,1128.9219 437.9766,1128.9219 C437.7266,1128.9219 437.461,1129.0625 437.2891,1129.2813 C437.1798,1129.4531 437.1485,1129.6094 437.1485,1130.0625 L437.1485,1130.1875 L435.6954,1130.1875 L435.6954,1127.7813 L439.6798,1127.7813 L439.6798,1128.6406 C439.6798,1129.0469 439.711,1129.2188 439.7891,1129.375 C439.961,1129.625 440.2423,1129.7813 440.5235,1129.7813 C440.7891,1129.7813 441.0548,1129.6406 441.2266,1129.4219 C441.336,1129.25 441.3673,1129.1094 441.3673,1128.6406 L441.3673,1126.0938 L433.7423,1126.0938 C433.3048,1126.0938 433.1798,1126.1094 433.0235,1126.2031 C432.7735,1126.3594 432.6173,1126.6563 432.6173,1126.9375 C432.6173,1127.2188 432.7579,1127.4688 432.9766,1127.6406 C433.1329,1127.75 433.3204,1127.7813 433.7423,1127.7813 L433.9923,1127.7813 L433.9923,1134.2969 L433.7423,1134.2969 C433.336,1134.2969 433.1798,1134.3125 433.0235,1134.4219 C432.7735,1134.5938 432.6173,1134.8594 432.6173,1135.1563 C432.6173,1135.4219 432.7579,1135.6719 432.9766,1135.8281 C433.1173,1135.9531 433.3516,1136 433.7423,1136 L441.7423,1136 L441.7423,1133.4219 C441.7423,1132.9844 441.711,1132.8438 441.6329,1132.6875 C441.461,1132.4375 441.1798,1132.2813 440.8985,1132.2813 C440.6329,1132.2813 440.3673,1132.3906 440.1954,1132.6406 C440.086,1132.7969 440.0548,1132.9375 440.0548,1133.4219 L440.0548,1134.2969 L435.6954,1134.2969 L435.6954,1131.875 Z " fill="#000000"/><text fill="#000000" font-family="sans-serif" font-size="14" lengthAdjust="spacing" textLength="45" x="452.1985" y="1135.8467">Token</text><line style="stroke:#181818;stroke-width:0.5;" x1="417.0485" x2="505.0485" y1="1147" y2="1147"/><ellipse cx="427.0485" cy="1160.6484" fill="none" rx="3" ry="3" style="stroke:#038048;stroke-width:1.0;"/><text fill="#000000" font-family="sans-serif" font-size="14" lengthAdjust="spacing" textLength="35" x="436.0485" y="1163.9951">RED;</text><ellipse cx="427.0485" cy="1176.9453" fill="none" rx="3" ry="3" style="stroke:#038048;stroke-width:1.0;"/><text fill="#000000" font-family="sans-serif" font-size="14" lengthAdjust="spacing" textLength="64" x="436.0485" y="1180.292">YELLOW;</text><line style="stroke:#181818;stroke-width:0.5;" x1="417.0485" x2="505.0485" y1="1187.5938" y2="1187.5938"/></g><!--class TokenMethod--><g id="elem_TokenMethod"><rect codeLine="61" fill="#F1F1F1" height="64.2969" id="TokenMethod" rx="2.5" ry="2.5" style="stroke:#181818;stroke-width:0.5;" width="381" x="858.5485" y="484"/><ellipse cx="994.7985" cy="500" fill="#ADD1B2" rx="11" ry="11" style="stroke:#181818;stroke-width:1.0;"/><path d="M997.1423,495.6719 C996.2048,495.2344 995.611,495.0938 994.736,495.0938 C992.111,495.0938 990.111,497.1719 990.111,499.8906 L990.111,501.0156 C990.111,503.5938 992.2204,505.4844 995.111,505.4844 C996.3298,505.4844 997.486,505.1875 998.236,504.6406 C998.8141,504.2344 999.1423,503.7813 999.1423,503.3906 C999.1423,502.9375 998.7516,502.5469 998.2829,502.5469 C998.0641,502.5469 997.861,502.625 997.6735,502.8125 C997.2204,503.2969 997.2204,503.2969 997.0329,503.3906 C996.611,503.6563 995.9235,503.7813 995.1579,503.7813 C993.111,503.7813 991.8141,502.6875 991.8141,500.9844 L991.8141,499.8906 C991.8141,498.1094 993.0641,496.7969 994.7985,496.7969 C995.3766,496.7969 995.986,496.9531 996.4548,497.2031 C996.9391,497.4844 997.111,497.7031 997.2048,498.1094 C997.2673,498.5156 997.2985,498.6406 997.4391,498.7656 C997.5798,498.9063 997.8141,499.0156 998.0329,499.0156 C998.2985,499.0156 998.5641,498.875 998.736,498.6563 C998.8454,498.5 998.8766,498.3125 998.8766,497.8906 L998.8766,496.4688 C998.8766,496.0313 998.861,495.9063 998.7673,495.75 C998.611,495.4844 998.3298,495.3438 998.0329,495.3438 C997.736,495.3438 997.5329,495.4375 997.3141,495.75 L997.1423,495.6719 Z " fill="#000000"/><text fill="#000000" font-family="sans-serif" font-size="14" lengthAdjust="spacing" textLength="100" x="1015.2985" y="504.8467">TokenMethod</text><line style="stroke:#181818;stroke-width:0.5;" x1="859.5485" x2="1238.5485" y1="516" y2="516"/><line style="stroke:#181818;stroke-width:0.5;" x1="859.5485" x2="1238.5485" y1="524" y2="524"/><polygon fill="#4177AF" points="869.5485,533.6484,865.5485,539.6484,873.5485,539.6484" style="stroke:#1963A0;stroke-width:1.0;"/><text fill="#000000" font-family="sans-serif" font-size="14" lengthAdjust="spacing" textLength="355" x="878.5485" y="540.9951">static Token GetTokenFromNumber(int number);</text></g><!--class MessageConstant--><g id="elem_MessageConstant"><rect codeLine="64" fill="#F1F1F1" height="194.6719" id="MessageConstant" rx="2.5" ry="2.5" style="stroke:#181818;stroke-width:0.5;" width="356" x="974.0485" y="1329"/><ellipse cx="1084.2985" cy="1345" fill="#ADD1B2" rx="11" ry="11" style="stroke:#181818;stroke-width:1.0;"/><path d="M1086.6422,1340.6719 C1085.7047,1340.2344 1085.111,1340.0938 1084.236,1340.0938 C1081.611,1340.0938 1079.611,1342.1719 1079.611,1344.8906 L1079.611,1346.0156 C1079.611,1348.5938 1081.7204,1350.4844 1084.611,1350.4844 C1085.8297,1350.4844 1086.986,1350.1875 1087.736,1349.6406 C1088.3141,1349.2344 1088.6422,1348.7813 1088.6422,1348.3906 C1088.6422,1347.9375 1088.2516,1347.5469 1087.7829,1347.5469 C1087.5641,1347.5469 1087.361,1347.625 1087.1735,1347.8125 C1086.7204,1348.2969 1086.7204,1348.2969 1086.5329,1348.3906 C1086.111,1348.6563 1085.4235,1348.7813 1084.6579,1348.7813 C1082.611,1348.7813 1081.3141,1347.6875 1081.3141,1345.9844 L1081.3141,1344.8906 C1081.3141,1343.1094 1082.5641,1341.7969 1084.2985,1341.7969 C1084.8766,1341.7969 1085.486,1341.9531 1085.9547,1342.2031 C1086.4391,1342.4844 1086.611,1342.7031 1086.7047,1343.1094 C1086.7672,1343.5156 1086.7985,1343.6406 1086.9391,1343.7656 C1087.0797,1343.9063 1087.3141,1344.0156 1087.5329,1344.0156 C1087.7985,1344.0156 1088.0641,1343.875 1088.236,1343.6563 C1088.3454,1343.5 1088.3766,1343.3125 1088.3766,1342.8906 L1088.3766,1341.4688 C1088.3766,1341.0313 1088.361,1340.9063 1088.2672,1340.75 C1088.111,1340.4844 1087.8297,1340.3438 1087.5329,1340.3438 C1087.236,1340.3438 1087.0329,1340.4375 1086.8141,1340.75 L1086.6422,1340.6719 Z " fill="#000000"/><text fill="#000000" font-family="sans-serif" font-size="14" lengthAdjust="spacing" textLength="127" x="1104.7985" y="1349.8467">MessageConstant</text><line style="stroke:#181818;stroke-width:0.5;" x1="975.0485" x2="1329.0485" y1="1361" y2="1361"/><polygon fill="none" points="985.0485,1370.6484,981.0485,1376.6484,989.0485,1376.6484" style="stroke:#1963A0;stroke-width:1.0;"/><text fill="#000000" font-family="sans-serif" font-size="14" lengthAdjust="spacing" textLength="191" x="994.0485" y="1377.9951">const string GAME_START;</text><polygon fill="none" points="985.0485,1386.9453,981.0485,1392.9453,989.0485,1392.9453" style="stroke:#1963A0;stroke-width:1.0;"/><text fill="#000000" font-family="sans-serif" font-size="14" lengthAdjust="spacing" textLength="198" x="994.0485" y="1394.292">const string WINNER_TITLE;</text><polygon fill="none" points="985.0485,1403.2422,981.0485,1409.2422,989.0485,1409.2422" style="stroke:#1963A0;stroke-width:1.0;"/><text fill="#000000" font-family="sans-serif" font-size="14" lengthAdjust="spacing" textLength="166" x="994.0485" y="1410.5889">const string GAME_TIE;</text><polygon fill="none" points="985.0485,1419.5391,981.0485,1425.5391,989.0485,1425.5391" style="stroke:#1963A0;stroke-width:1.0;"/><text fill="#000000" font-family="sans-serif" font-size="14" lengthAdjust="spacing" textLength="253" x="994.0485" y="1426.8857">const string PLAYER_DESCRIPTION;</text><polygon fill="none" points="985.0485,1435.8359,981.0485,1441.8359,989.0485,1441.8359" style="stroke:#1963A0;stroke-width:1.0;"/><text fill="#000000" font-family="sans-serif" font-size="14" lengthAdjust="spacing" textLength="292" x="994.0485" y="1443.1826">const string PLAYER_NO_MORE_TOKENS;</text><polygon fill="none" points="985.0485,1452.1328,981.0485,1458.1328,989.0485,1458.1328" style="stroke:#1963A0;stroke-width:1.0;"/><text fill="#000000" font-family="sans-serif" font-size="14" lengthAdjust="spacing" textLength="317" x="994.0485" y="1459.4795">const string COLUMN_X_CAN_NOT_BE_USED;</text><polygon fill="none" points="985.0485,1468.4297,981.0485,1474.4297,989.0485,1474.4297" style="stroke:#1963A0;stroke-width:1.0;"/><text fill="#000000" font-family="sans-serif" font-size="14" lengthAdjust="spacing" textLength="280" x="994.0485" y="1475.7764">const string INSERT_COLUMN_NUMBER;</text><polygon fill="none" points="985.0485,1484.7266,981.0485,1490.7266,989.0485,1490.7266" style="stroke:#1963A0;stroke-width:1.0;"/><text fill="#000000" font-family="sans-serif" font-size="14" lengthAdjust="spacing" textLength="330" x="994.0485" y="1492.0732">const string INSERT_VALID_COLUMN_NUMBER;</text><polygon fill="none" points="985.0485,1501.0234,981.0485,1507.0234,989.0485,1507.0234" style="stroke:#1963A0;stroke-width:1.0;"/><text fill="#000000" font-family="sans-serif" font-size="14" lengthAdjust="spacing" textLength="190" x="994.0485" y="1508.3701">const string PLAYER_INFO;</text><line style="stroke:#181818;stroke-width:0.5;" x1="975.0485" x2="1329.0485" y1="1515.6719" y2="1515.6719"/></g><!--class Message--><g id="elem_Message"><rect codeLine="75" fill="#F1F1F1" height="227.2656" id="Message" rx="2.5" ry="2.5" style="stroke:#181818;stroke-width:0.5;" width="566" x="869.0485" y="1042"/><ellipse cx="1117.2985" cy="1058" fill="#ADD1B2" rx="11" ry="11" style="stroke:#181818;stroke-width:1.0;"/><path d="M1119.6422,1053.6719 C1118.7047,1053.2344 1118.111,1053.0938 1117.236,1053.0938 C1114.611,1053.0938 1112.611,1055.1719 1112.611,1057.8906 L1112.611,1059.0156 C1112.611,1061.5938 1114.7204,1063.4844 1117.611,1063.4844 C1118.8297,1063.4844 1119.986,1063.1875 1120.736,1062.6406 C1121.3141,1062.2344 1121.6422,1061.7813 1121.6422,1061.3906 C1121.6422,1060.9375 1121.2516,1060.5469 1120.7829,1060.5469 C1120.5641,1060.5469 1120.361,1060.625 1120.1735,1060.8125 C1119.7204,1061.2969 1119.7204,1061.2969 1119.5329,1061.3906 C1119.111,1061.6563 1118.4235,1061.7813 1117.6579,1061.7813 C1115.611,1061.7813 1114.3141,1060.6875 1114.3141,1058.9844 L1114.3141,1057.8906 C1114.3141,1056.1094 1115.5641,1054.7969 1117.2985,1054.7969 C1117.8766,1054.7969 1118.486,1054.9531 1118.9547,1055.2031 C1119.4391,1055.4844 1119.611,1055.7031 1119.7047,1056.1094 C1119.7672,1056.5156 1119.7985,1056.6406 1119.9391,1056.7656 C1120.0797,1056.9063 1120.3141,1057.0156 1120.5329,1057.0156 C1120.7985,1057.0156 1121.0641,1056.875 1121.236,1056.6563 C1121.3454,1056.5 1121.3766,1056.3125 1121.3766,1055.8906 L1121.3766,1054.4688 C1121.3766,1054.0313 1121.361,1053.9063 1121.2672,1053.75 C1121.111,1053.4844 1120.8297,1053.3438 1120.5329,1053.3438 C1120.236,1053.3438 1120.0329,1053.4375 1119.8141,1053.75 L1119.6422,1053.6719 Z " fill="#000000"/><text fill="#000000" font-family="sans-serif" font-size="14" lengthAdjust="spacing" textLength="61" x="1137.7985" y="1062.8467">Message</text><line style="stroke:#181818;stroke-width:0.5;" x1="870.0485" x2="1434.0485" y1="1074" y2="1074"/><line style="stroke:#181818;stroke-width:0.5;" x1="870.0485" x2="1434.0485" y1="1082" y2="1082"/><rect fill="#F24D5C" height="6" style="stroke:#C82930;stroke-width:1.0;" width="6" x="877.0485" y="1092.6484"/><text fill="#000000" font-family="sans-serif" font-size="14" lengthAdjust="spacing" textLength="230" x="889.0485" y="1098.9951">static void WriteLine(string str);</text><ellipse cx="880.0485" cy="1111.9453" fill="#84BE84" rx="3" ry="3" style="stroke:#038048;stroke-width:1.0;"/><text fill="#000000" font-family="sans-serif" font-size="14" lengthAdjust="spacing" textLength="231" x="889.0485" y="1115.292">static void WriteGameStarted();</text><ellipse cx="880.0485" cy="1128.2422" fill="#84BE84" rx="3" ry="3" style="stroke:#038048;stroke-width:1.0;"/><text fill="#000000" font-family="sans-serif" font-size="14" lengthAdjust="spacing" textLength="218" x="889.0485" y="1131.5889">static void WriteWinnerTitle();</text><ellipse cx="880.0485" cy="1144.5391" fill="#84BE84" rx="3" ry="3" style="stroke:#038048;stroke-width:1.0;"/><text fill="#000000" font-family="sans-serif" font-size="14" lengthAdjust="spacing" textLength="198" x="889.0485" y="1147.8857">static void WriteGameTie();</text><ellipse cx="880.0485" cy="1160.8359" fill="#84BE84" rx="3" ry="3" style="stroke:#038048;stroke-width:1.0;"/><text fill="#000000" font-family="sans-serif" font-size="14" lengthAdjust="spacing" textLength="426" x="889.0485" y="1164.1826">static void WritePlayerDescription(Player player, int order);</text><ellipse cx="880.0485" cy="1177.1328" fill="#84BE84" rx="3" ry="3" style="stroke:#038048;stroke-width:1.0;"/><text fill="#000000" font-family="sans-serif" font-size="14" lengthAdjust="spacing" textLength="364" x="889.0485" y="1180.4795">static void WritePlayerNoTokenLeft(Token token);</text><ellipse cx="880.0485" cy="1193.4297" fill="#84BE84" rx="3" ry="3" style="stroke:#038048;stroke-width:1.0;"/><text fill="#000000" font-family="sans-serif" font-size="14" lengthAdjust="spacing" textLength="370" x="889.0485" y="1196.7764">static void WriteColumnCanNotBeUsed(int column);</text><ellipse cx="880.0485" cy="1209.7266" fill="#84BE84" rx="3" ry="3" style="stroke:#038048;stroke-width:1.0;"/><text fill="#000000" font-family="sans-serif" font-size="14" lengthAdjust="spacing" textLength="287" x="889.0485" y="1213.0732">static void WriteInsertColumnNumber();</text><ellipse cx="880.0485" cy="1226.0234" fill="#84BE84" rx="3" ry="3" style="stroke:#038048;stroke-width:1.0;"/><text fill="#000000" font-family="sans-serif" font-size="14" lengthAdjust="spacing" textLength="322" x="889.0485" y="1229.3701">static void WriteInsertValidColumnNumber();</text><ellipse cx="880.0485" cy="1242.3203" fill="#84BE84" rx="3" ry="3" style="stroke:#038048;stroke-width:1.0;"/><text fill="#000000" font-family="sans-serif" font-size="14" lengthAdjust="spacing" textLength="271" x="889.0485" y="1245.667">static void WritePlayer(Player player);</text><rect fill="#F24D5C" height="6" style="stroke:#C82930;stroke-width:1.0;" width="6" x="877.0485" y="1255.6172"/><text fill="#000000" font-family="sans-serif" font-size="14" lengthAdjust="spacing" textLength="540" x="889.0485" y="1261.9639">static void WriteStringWithParams(string str, params object[] parameters);</text></g><!--link ConnectFour to Board--><g id="link_ConnectFour_Board"><path codeLine="88" d="M1312.7717,181.2004 C1331.6017,288.8204 1345.8035,469.18 1257.0535,597 C1203.0335,674.782 1120.3763,723.6083 1033.7893,756.7843 " fill="none" id="ConnectFour-Board" style="stroke:#181818;stroke-width:1.0;"/><polygon fill="#181818" points="1310.7035,169.38,1307.7975,175.9796,1312.7717,181.2004,1315.6777,174.6008,1310.7035,169.38" style="stroke:#181818;stroke-width:1.0;"/><polygon fill="#181818" points="1028.1865,758.931,1038.0219,759.4461,1032.8555,757.1421,1035.1596,751.9757,1028.1865,758.931" style="stroke:#181818;stroke-width:1.0;"/></g><!--link ConnectFour to Turn--><g id="link_ConnectFour_Turn"><path codeLine="89" d="M1179.9841,130.6905 C1097.2441,161.1905 995.5362,198.6947 897.7722,234.7347 " fill="none" id="ConnectFour-Turn" style="stroke:#181818;stroke-width:1.0;"/><polygon fill="#181818" points="1191.2435,126.54,1184.2303,124.8621,1179.9841,130.6905,1186.9973,132.3684,1191.2435,126.54" style="stroke:#181818;stroke-width:1.0;"/><polygon fill="#181818" points="892.1425,236.81,901.9705,237.4501,896.8339,235.0806,899.2034,229.9439,892.1425,236.81" style="stroke:#181818;stroke-width:1.0;"/></g><!--link Turn to Player--><g id="link_Turn_Player"><path codeLine="90" d="M688.1325,375.07 C680.1605,394.28 673.7982,409.5982 665.6562,429.2182 " fill="none" id="Turn-to-Player" style="stroke:#181818;stroke-width:1.0;"/><polygon fill="#181818" points="663.3565,434.76,670.5006,427.9805,665.273,430.1419,663.1116,424.9142,663.3565,434.76" style="stroke:#181818;stroke-width:1.0;"/><text fill="#000000" font-family="sans-serif" font-size="13" lengthAdjust="spacing" textLength="8" x="657.9667" y="423.9259">2</text></g><!--link Turn to Token--><g id="link_Turn_Token"><path codeLine="91" d="M544.0105,341.33 C387.6055,386.56 169.7465,479.29 84.0485,657 C21.3058,787.106 6,860.457 84.0485,982 C158.6245,1098.134 327.0569,1136.1966 409.8839,1148.4266 " fill="none" id="Turn-to-Token" style="stroke:#181818;stroke-width:1.0;stroke-dasharray:7.0,7.0;"/><polygon fill="#181818" points="415.8195,1149.303,407.5003,1144.0312,410.8731,1148.5726,406.3317,1151.9454,415.8195,1149.303" style="stroke:#181818;stroke-width:1.0;"/></g><!--link Player to Token--><g id="link_Player_Token"><path codeLine="92" d="M527.8166,606.2403 C512.0126,624.2623 505.5845,635.466 496.0485,657 C426.2825,814.548 443.0617,1021.8286 454.3357,1108.9726 " fill="none" id="Player-Token" style="stroke:#181818;stroke-width:1.0;"/><polygon fill="#181818" points="535.7285,597.218,528.7651,599.0918,527.8166,606.2403,534.78,604.3664,535.7285,597.218" style="stroke:#181818;stroke-width:1.0;"/><polygon fill="#181818" points="455.1055,1114.923,457.9177,1105.4842,454.464,1109.9643,449.9838,1106.5106,455.1055,1114.923" style="stroke:#181818;stroke-width:1.0;"/><text fill="#000000" font-family="sans-serif" font-size="13" lengthAdjust="spacing" textLength="16" x="436.7962" y="1104.0718">21</text></g><!--link Player to Board--><g id="link_Player_Board"><path codeLine="93" d="M667.4635,597.005 C676.1525,615.584 683.1666,630.5831 692.8536,651.2951 " fill="none" id="Player-to-Board" style="stroke:#181818;stroke-width:1.0;"/><polygon fill="#181818" points="695.3955,656.73,695.2059,646.883,693.2772,652.2009,687.9593,650.2722,695.3955,656.73" style="stroke:#181818;stroke-width:1.0;"/></g><!--link Board to Token--><g id="link_Board_Token"><path codeLine="94" d="M589.6835,982.247 C570.5665,1001.752 551.9605,1021.899 535.0485,1042 C515.9345,1064.718 500.7036,1087.4648 487.0526,1109.7788 " fill="none" id="Board-to-Token" style="stroke:#181818;stroke-width:1.0;stroke-dasharray:7.0,7.0;"/><polygon fill="#181818" points="483.9215,1114.897,492.0304,1109.3071,486.5308,1110.6318,485.2061,1105.1323,483.9215,1114.897" style="stroke:#181818;stroke-width:1.0;"/></g><!--link Board to BoardConstant--><g id="link_Board_BoardConstant"><path codeLine="95" d="M733.3055,982.119 C724.2835,1020.75 716.5371,1053.9222 709.2691,1085.0422 " fill="none" id="Board-to-BoardConstant" style="stroke:#181818;stroke-width:1.0;stroke-dasharray:7.0,7.0;"/><polygon fill="#181818" points="707.9045,1090.885,713.8465,1083.0306,709.0416,1086.016,706.0562,1081.2111,707.9045,1090.885" style="stroke:#181818;stroke-width:1.0;"/></g><!--link Player to PlayerConstant--><g id="link_Player_PlayerConstant"><path codeLine="96" d="M514.0485,597.137 C487.6695,616.222 460.0625,636.897 435.0485,657 C385.7965,696.583 336.6202,741.3378 300.8452,774.8858 " fill="none" id="Player-to-PlayerConstant" style="stroke:#181818;stroke-width:1.0;stroke-dasharray:7.0,7.0;"/><polygon fill="#181818" points="296.4685,778.99,305.7697,775.7514,300.1157,775.5698,300.2974,769.9159,296.4685,778.99" style="stroke:#181818;stroke-width:1.0;"/></g><!--link Turn to PlayerConstant--><g id="link_Turn_PlayerConstant"><path codeLine="97" d="M569.4555,375.13 C541.6075,392.47 514.0565,412.56 491.0485,435 C383.3165,540.077 306.56,698.4723 273.92,773.3143 " fill="none" id="Turn-to-PlayerConstant" style="stroke:#181818;stroke-width:1.0;stroke-dasharray:7.0,7.0;"/><polygon fill="#181818" points="271.5215,778.814,278.7858,772.1634,273.5203,774.2309,271.4528,768.9654,271.5215,778.814" style="stroke:#181818;stroke-width:1.0;"/></g><!--link Turn to TokenMethod--><g id="link_Turn_TokenMethod"><path codeLine="98" d="M830.5715,375.07 C888.4835,412.16 951.0177,452.2144 995.5077,480.7044 " fill="none" id="Turn-to-TokenMethod" style="stroke:#181818;stroke-width:1.0;stroke-dasharray:7.0,7.0;"/><polygon fill="#181818" points="1000.5605,483.94,995.1384,475.718,996.3498,481.2436,990.8242,482.4551,1000.5605,483.94" style="stroke:#181818;stroke-width:1.0;"/></g><!--link Message to MessageConstant--><g id="link_Message_MessageConstant"><path codeLine="99" d="M1152.0535,1269.022 C1152.0535,1288.89 1152.0535,1303.415 1152.0535,1322.8 " fill="none" id="Message-to-MessageConstant" style="stroke:#181818;stroke-width:1.0;stroke-dasharray:7.0,7.0;"/><polygon fill="#181818" points="1152.0535,1328.8,1156.0535,1319.8,1152.0535,1323.8,1148.0535,1319.8,1152.0535,1328.8" style="stroke:#181818;stroke-width:1.0;"/></g><!--link ConnectFour to Message--><g id="link_ConnectFour_Message"><path codeLine="100" d="M1326.2935,169.21 C1332.8235,188.47 1338.6835,209.2 1342.0535,229 C1352.9235,292.97 1346.4035,310.26 1342.0535,375 C1325.7235,617.69 1245.1887,886.3073 1194.4187,1036.1683 " fill="none" id="ConnectFour-to-Message" style="stroke:#181818;stroke-width:1.0;stroke-dasharray:7.0,7.0;"/><polygon fill="#181818" points="1192.4935,1041.851,1199.1698,1034.6104,1194.0978,1037.1154,1191.5928,1032.0434,1192.4935,1041.851" style="stroke:#181818;stroke-width:1.0;"/></g><!--link Board to Message--><g id="link_Board_Message"><path codeLine="101" d="M955.4105,982.119 C978.4885,1002.35 997.1757,1018.7318 1019.1377,1037.9848 " fill="none" id="Board-to-Message" style="stroke:#181818;stroke-width:1.0;stroke-dasharray:7.0,7.0;"/><polygon fill="#181818" points="1023.6495,1041.94,1019.5187,1032.9993,1019.8897,1038.644,1014.245,1039.015,1023.6495,1041.94" style="stroke:#181818;stroke-width:1.0;"/></g><!--link Turn to Message--><g id="link_Turn_Message"><path codeLine="102" d="M746.2855,375.09 C779.6885,459.65 831.9375,589.379 841.0485,597 C935.3365,675.873 1030.2535,564.354 1111.0535,657 C1202.4035,761.75 1196.3391,924.5806 1178.3591,1036.0356 " fill="none" id="Turn-to-Message" style="stroke:#181818;stroke-width:1.0;stroke-dasharray:7.0,7.0;"/><polygon fill="#181818" points="1177.4035,1041.959,1182.7858,1033.7109,1178.1998,1037.0228,1174.8879,1032.4368,1177.4035,1041.959" style="stroke:#181818;stroke-width:1.0;"/></g><!--link Player to Message--><g id="link_Player_Message"><path codeLine="103" d="M751.5955,585.641 C760.7585,589.767 769.9715,593.611 779.0485,597 C892.5875,639.386 959.7825,570.876 1045.0535,657 C1072.0435,684.271 1110.7113,897.7753 1133.4013,1035.9583 " fill="none" id="Player-to-Message" style="stroke:#181818;stroke-width:1.0;stroke-dasharray:7.0,7.0;"/><polygon fill="#181818" points="1134.3735,1041.879,1136.8623,1032.3498,1133.5633,1036.9451,1128.9681,1033.6461,1134.3735,1041.879" style="stroke:#181818;stroke-width:1.0;"/></g><!--SRC=[bLRRRk8m47tdAoAUqcr1shvMgWGXj55pGKaeMrLL58WNl4riP9jMRRNxxUjR88P0svT0PiwSEUFBJ1PbJgdbO8J0WetnXdnqBAjd3N5E2cikdbVIa6u8iXX_YDVpPe1zfaml61RMJLw1XEM4AMjFMITb_YOyDNIESIcXjpaTGmJf2XHc08682K2QpqiPzhUpa4g53YLHa09YhUKFVGm6lxnW6cGJV_3WnaaMJeEX6pyfKivcBJQ40CHKcD8Xo6nPwjck16ULeoMGhcPbCm8P62mOV06Aml0AKrEcWYYXANu6VEt4SwT6lb8V_6OEtY1srRRgvvh6bWmNogsNQR9XqchBqd2vgL2ugUQ0dEqYQuLI-avqhL7IDIG-FZq-QLqgJWACVV4GP30luJkGFXb6ZLtTwjAQM-Nr5DR9aOSe8Cn333iIP1_12_CDO6D8A7EhDNkByQk7JiV871wznGI-OyJoKXzQKEoERQra1HRFd9AVHnCag0b-RTPXijzp-N3nARTI-dtw4SoN67rANyE-dy13Bxm2K7mnqJxyomdFwuGj2RO-UQWSNArBm81vlqH3s9v7umHpGifonCH9_iTJyZUPV1WDub7cHFuq29EhLcSSpGuyCo_KlMFVmpkCfilIA7DkNUUk3S996twp8HpJMZUlDBfpJwHlQN0Y0q2RIbtX3xbYiJjII_VW-duq4n2UbHzJI_TG0Gq0M-522T5UrQZuDPD_nWHNwZx9JKNrrTeZ2m2b-H8ObIdHbF5DMretWy3DadGGfysAj9ElTkZ6MUgbljlYbh6fr-PIov2DtCI9lKdgHU5nK1XbGHIxQdcJ5fpULhw_0xxyKPeDtMoQg6NSWtfXuiPfVH0Ejyg4tGzyR_GfMClqmd5qR7rLdzQUtK3o8GAsPk4_-ieSmBPZkPwpBPWPv1UJf92Lm3x5ayBZVdNAHu0k25mpY95jJ6dL5J0f03dD469v1CLuj1lZyrYGwgvyd8IO3S6KyYeFsiz1a1ezJcDksAUXztpm5L_2wrbhrAvRwG4saPitWsmroKbUqSPkNbXhQRBm_0zlcNmwotVU6mcL5x7n5MPPFte5VaMzQ_qLOJYtFl5Pqv7VShMbUzdLpKdP-yBUlrRDeADBs15qBtzsJL-lJjbHYVlzQ-NVlXfjkWxZzhscgFEVi3SQLqVV2sdVwq56wGt_Jj7MigMk3GrrslGV]--></g></svg>