<?xml version="1.0" encoding="us-ascii" standalone="no"?><svg xmlns="http://www.w3.org/2000/svg" xmlns:xlink="http://www.w3.org/1999/xlink" contentStyleType="text/css" height="935px" preserveAspectRatio="none" style="width:883px;height:935px;background:#FFFFFF;" version="1.1" viewBox="0 0 883 935" width="883px" zoomAndPan="magnify"><defs/><g><!--cluster Views--><g id="cluster_Views"><path d="M138.5,6 L186.5,6 A3.75,3.75 0 0 1 189,8.5 L196,28.2969 L739.5,28.2969 A2.5,2.5 0 0 1 742,30.7969 L742,925.5 A2.5,2.5 0 0 1 739.5,928 L138.5,928 A2.5,2.5 0 0 1 136,925.5 L136,8.5 A2.5,2.5 0 0 1 138.5,6 " fill="none" style="stroke:#000000;stroke-width:1.5;"/><line style="stroke:#000000;stroke-width:1.5;" x1="136" x2="196" y1="28.2969" y2="28.2969"/><text fill="#000000" font-family="sans-serif" font-size="14" font-weight="bold" lengthAdjust="spacing" textLength="47" x="140" y="20.9951">Views</text></g><!--cluster Models--><g id="cluster_Models"><path d="M8.5,46.5 L66.5,46.5 A3.75,3.75 0 0 1 69,49 L76,68.7969 L109.5,68.7969 A2.5,2.5 0 0 1 112,71.2969 L112,143 A2.5,2.5 0 0 1 109.5,145.5 L8.5,145.5 A2.5,2.5 0 0 1 6,143 L6,49 A2.5,2.5 0 0 1 8.5,46.5 " fill="none" style="stroke:#000000;stroke-width:1.5;"/><line style="stroke:#000000;stroke-width:1.5;" x1="6" x2="76" y1="68.7969" y2="68.7969"/><text fill="#000000" font-family="sans-serif" font-size="14" font-weight="bold" lengthAdjust="spacing" textLength="57" x="10" y="61.4951">Models</text></g><!--cluster Enums--><g id="cluster_Enums"><path d="M768.5,525.5 L822.5,525.5 A3.75,3.75 0 0 1 825,528 L832,547.7969 L873.5,547.7969 A2.5,2.5 0 0 1 876,550.2969 L876,622 A2.5,2.5 0 0 1 873.5,624.5 L768.5,624.5 A2.5,2.5 0 0 1 766,622 L766,528 A2.5,2.5 0 0 1 768.5,525.5 " fill="none" style="stroke:#000000;stroke-width:1.5;"/><line style="stroke:#000000;stroke-width:1.5;" x1="766" x2="832" y1="547.7969" y2="547.7969"/><text fill="#000000" font-family="sans-serif" font-size="14" font-weight="bold" lengthAdjust="spacing" textLength="53" x="770" y="540.4951">Enums</text></g><!--class View--><g id="elem_View"><rect codeLine="2" fill="#F1F1F1" height="129.4844" id="View" rx="2.5" ry="2.5" style="stroke:#181818;stroke-width:0.5;" width="241" x="469.5" y="41"/><ellipse cx="568.75" cy="57" fill="#ADD1B2" rx="11" ry="11" style="stroke:#181818;stroke-width:1.0;"/><path d="M571.0938,52.6719 C570.1563,52.2344 569.5625,52.0938 568.6875,52.0938 C566.0625,52.0938 564.0625,54.1719 564.0625,56.8906 L564.0625,58.0156 C564.0625,60.5938 566.1719,62.4844 569.0625,62.4844 C570.2813,62.4844 571.4375,62.1875 572.1875,61.6406 C572.7656,61.2344 573.0938,60.7813 573.0938,60.3906 C573.0938,59.9375 572.7031,59.5469 572.2344,59.5469 C572.0156,59.5469 571.8125,59.625 571.625,59.8125 C571.1719,60.2969 571.1719,60.2969 570.9844,60.3906 C570.5625,60.6563 569.875,60.7813 569.1094,60.7813 C567.0625,60.7813 565.7656,59.6875 565.7656,57.9844 L565.7656,56.8906 C565.7656,55.1094 567.0156,53.7969 568.75,53.7969 C569.3281,53.7969 569.9375,53.9531 570.4063,54.2031 C570.8906,54.4844 571.0625,54.7031 571.1563,55.1094 C571.2188,55.5156 571.25,55.6406 571.3906,55.7656 C571.5313,55.9063 571.7656,56.0156 571.9844,56.0156 C572.25,56.0156 572.5156,55.875 572.6875,55.6563 C572.7969,55.5 572.8281,55.3125 572.8281,54.8906 L572.8281,53.4688 C572.8281,53.0313 572.8125,52.9063 572.7188,52.75 C572.5625,52.4844 572.2813,52.3438 571.9844,52.3438 C571.6875,52.3438 571.4844,52.4375 571.2656,52.75 L571.0938,52.6719 Z " fill="#000000"/><text fill="#000000" font-family="sans-serif" font-size="14" lengthAdjust="spacing" textLength="34" x="589.25" y="61.8467">View</text><line style="stroke:#181818;stroke-width:0.5;" x1="470.5" x2="709.5" y1="73" y2="73"/><rect fill="none" height="6" style="stroke:#C82930;stroke-width:1.0;" width="6" x="477.5" y="83.6484"/><text fill="#000000" font-family="sans-serif" font-size="14" lengthAdjust="spacing" textLength="215" x="489.5" y="89.9951">readonly StartView startView;</text><rect fill="none" height="6" style="stroke:#C82930;stroke-width:1.0;" width="6" x="477.5" y="99.9453"/><text fill="#000000" font-family="sans-serif" font-size="14" lengthAdjust="spacing" textLength="202" x="489.5" y="106.292">readonly PlayView playView;</text><line style="stroke:#181818;stroke-width:0.5;" x1="470.5" x2="709.5" y1="113.5938" y2="113.5938"/><ellipse cx="480.5" cy="127.2422" fill="#84BE84" rx="3" ry="3" style="stroke:#038048;stroke-width:1.0;"/><text fill="#000000" font-family="sans-serif" font-size="14" lengthAdjust="spacing" textLength="135" x="489.5" y="130.5889">View(Game game);</text><ellipse cx="480.5" cy="143.5391" fill="#84BE84" rx="3" ry="3" style="stroke:#038048;stroke-width:1.0;"/><text fill="#000000" font-family="sans-serif" font-size="14" lengthAdjust="spacing" textLength="86" x="489.5" y="146.8857">void Start();</text><ellipse cx="480.5" cy="159.8359" fill="#84BE84" rx="3" ry="3" style="stroke:#038048;stroke-width:1.0;"/><text fill="#000000" font-family="sans-serif" font-size="14" lengthAdjust="spacing" textLength="78" x="489.5" y="163.1826">void Play();</text></g><!--class WithGameView--><g id="elem_WithGameView"><rect codeLine="9" fill="#F1F1F1" height="96.8906" id="WithGameView" rx="2.5" ry="2.5" style="stroke:#181818;stroke-width:0.5;" width="237" x="182.5" y="57"/><ellipse cx="242.25" cy="73" fill="#A9DCDF" rx="11" ry="11" style="stroke:#181818;stroke-width:1.0;"/><path d="M244.3281,74.8125 L244.7188,75.7969 L244.3281,75.7969 C243.875,75.7969 243.7656,75.8125 243.6094,75.9219 C243.3594,76.0781 243.2031,76.3594 243.2031,76.6563 C243.2031,76.9219 243.3438,77.1719 243.5625,77.3281 C243.7031,77.4531 243.9063,77.5 244.3281,77.5 L246.6875,77.5 C247.0469,77.5 247.2656,77.4688 247.4063,77.375 C247.6563,77.2344 247.8125,76.9375 247.8125,76.6563 C247.8125,76.375 247.6719,76.125 247.4531,75.9688 C247.2813,75.8281 247.125,75.7969 246.6563,75.7969 L243.2656,67.5938 L239.5938,67.5938 C239.1406,67.5938 239.0156,67.6094 238.8594,67.7031 C238.6094,67.875 238.4531,68.1563 238.4531,68.4375 C238.4531,68.7188 238.5938,68.9688 238.8125,69.1406 C238.9844,69.25 239.1563,69.2813 239.5938,69.2813 L240.6719,69.2813 L238.0313,75.7969 C237.6094,75.7969 237.4531,75.8125 237.2969,75.9219 C237.0469,76.0781 236.8906,76.3594 236.8906,76.6563 C236.8906,77.2188 237.2656,77.5 238.0156,77.5 L240.2813,77.5 C240.6406,77.5 240.8594,77.4688 240.9844,77.375 C241.25,77.2344 241.3906,76.9375 241.3906,76.6563 C241.3906,76.375 241.2656,76.125 241.0469,75.9531 C240.875,75.8281 240.7344,75.7969 240.2813,75.7969 L239.8906,75.7969 L240.2813,74.8125 L244.3281,74.8125 Z M243.625,73.1094 L240.9531,73.1094 L242.2969,69.8438 L243.625,73.1094 Z " fill="#000000"/><text fill="#000000" font-family="sans-serif" font-size="14" font-style="italic" lengthAdjust="spacing" textLength="109" x="262.75" y="77.8467">WithGameView</text><line style="stroke:#181818;stroke-width:0.5;" x1="183.5" x2="418.5" y1="89" y2="89"/><polygon fill="none" points="193.5,98.6484,189.5,104.6484,197.5,104.6484" style="stroke:#1963A0;stroke-width:1.0;"/><text fill="#000000" font-family="sans-serif" font-size="14" lengthAdjust="spacing" textLength="157" x="202.5" y="105.9951">readonly Game game;</text><line style="stroke:#181818;stroke-width:0.5;" x1="183.5" x2="418.5" y1="113.2969" y2="113.2969"/><ellipse cx="193.5" cy="126.9453" fill="#84BE84" rx="3" ry="3" style="stroke:#038048;stroke-width:1.0;"/><text fill="#000000" font-family="sans-serif" font-size="14" lengthAdjust="spacing" textLength="211" x="202.5" y="130.292">WithGameView(Game game);</text><ellipse cx="193.5" cy="143.2422" fill="#84BE84" rx="3" ry="3" style="stroke:#038048;stroke-width:1.0;"/><text fill="#000000" font-family="sans-serif" font-size="14" lengthAdjust="spacing" textLength="172" x="202.5" y="146.5889">abstract void Interact();</text></g><!--class PlayView--><g id="elem_PlayView"><rect codeLine="14" fill="#F1F1F1" height="96.8906" id="PlayView" rx="2.5" ry="2.5" style="stroke:#181818;stroke-width:0.5;" width="304" x="189" y="230"/><ellipse cx="305.25" cy="246" fill="#ADD1B2" rx="11" ry="11" style="stroke:#181818;stroke-width:1.0;"/><path d="M307.5938,241.6719 C306.6563,241.2344 306.0625,241.0938 305.1875,241.0938 C302.5625,241.0938 300.5625,243.1719 300.5625,245.8906 L300.5625,247.0156 C300.5625,249.5938 302.6719,251.4844 305.5625,251.4844 C306.7813,251.4844 307.9375,251.1875 308.6875,250.6406 C309.2656,250.2344 309.5938,249.7813 309.5938,249.3906 C309.5938,248.9375 309.2031,248.5469 308.7344,248.5469 C308.5156,248.5469 308.3125,248.625 308.125,248.8125 C307.6719,249.2969 307.6719,249.2969 307.4844,249.3906 C307.0625,249.6563 306.375,249.7813 305.6094,249.7813 C303.5625,249.7813 302.2656,248.6875 302.2656,246.9844 L302.2656,245.8906 C302.2656,244.1094 303.5156,242.7969 305.25,242.7969 C305.8281,242.7969 306.4375,242.9531 306.9063,243.2031 C307.3906,243.4844 307.5625,243.7031 307.6563,244.1094 C307.7188,244.5156 307.75,244.6406 307.8906,244.7656 C308.0313,244.9063 308.2656,245.0156 308.4844,245.0156 C308.75,245.0156 309.0156,244.875 309.1875,244.6563 C309.2969,244.5 309.3281,244.3125 309.3281,243.8906 L309.3281,242.4688 C309.3281,242.0313 309.3125,241.9063 309.2188,241.75 C309.0625,241.4844 308.7813,241.3438 308.4844,241.3438 C308.1875,241.3438 307.9844,241.4375 307.7656,241.75 L307.5938,241.6719 Z " fill="#000000"/><text fill="#000000" font-family="sans-serif" font-size="14" lengthAdjust="spacing" textLength="63" x="325.75" y="250.8467">PlayView</text><line style="stroke:#181818;stroke-width:0.5;" x1="190" x2="492" y1="262" y2="262"/><line style="stroke:#181818;stroke-width:0.5;" x1="190" x2="492" y1="270" y2="270"/><ellipse cx="200" cy="283.6484" fill="#84BE84" rx="3" ry="3" style="stroke:#038048;stroke-width:1.0;"/><text fill="#000000" font-family="sans-serif" font-size="14" lengthAdjust="spacing" textLength="278" x="209" y="286.9951">PlayView(Game game): base(game) { }</text><ellipse cx="200" cy="299.9453" fill="#84BE84" rx="3" ry="3" style="stroke:#038048;stroke-width:1.0;"/><text fill="#000000" font-family="sans-serif" font-size="14" lengthAdjust="spacing" textLength="171" x="209" y="303.292">override void Interact();</text><rect fill="#F24D5C" height="6" style="stroke:#C82930;stroke-width:1.0;" width="6" x="197" y="313.2422"/><text fill="#000000" font-family="sans-serif" font-size="14" lengthAdjust="spacing" textLength="174" x="209" y="319.5889">void PrintWinnerOrTie();</text></g><!--class StartView--><g id="elem_StartView"><rect codeLine="19" fill="#F1F1F1" height="80.5938" id="StartView" rx="2.5" ry="2.5" style="stroke:#181818;stroke-width:0.5;" width="198" x="528" y="238"/><ellipse cx="587.25" cy="254" fill="#ADD1B2" rx="11" ry="11" style="stroke:#181818;stroke-width:1.0;"/><path d="M589.5938,249.6719 C588.6563,249.2344 588.0625,249.0938 587.1875,249.0938 C584.5625,249.0938 582.5625,251.1719 582.5625,253.8906 L582.5625,255.0156 C582.5625,257.5938 584.6719,259.4844 587.5625,259.4844 C588.7813,259.4844 589.9375,259.1875 590.6875,258.6406 C591.2656,258.2344 591.5938,257.7813 591.5938,257.3906 C591.5938,256.9375 591.2031,256.5469 590.7344,256.5469 C590.5156,256.5469 590.3125,256.625 590.125,256.8125 C589.6719,257.2969 589.6719,257.2969 589.4844,257.3906 C589.0625,257.6563 588.375,257.7813 587.6094,257.7813 C585.5625,257.7813 584.2656,256.6875 584.2656,254.9844 L584.2656,253.8906 C584.2656,252.1094 585.5156,250.7969 587.25,250.7969 C587.8281,250.7969 588.4375,250.9531 588.9063,251.2031 C589.3906,251.4844 589.5625,251.7031 589.6563,252.1094 C589.7188,252.5156 589.75,252.6406 589.8906,252.7656 C590.0313,252.9063 590.2656,253.0156 590.4844,253.0156 C590.75,253.0156 591.0156,252.875 591.1875,252.6563 C591.2969,252.5 591.3281,252.3125 591.3281,251.8906 L591.3281,250.4688 C591.3281,250.0313 591.3125,249.9063 591.2188,249.75 C591.0625,249.4844 590.7813,249.3438 590.4844,249.3438 C590.1875,249.3438 589.9844,249.4375 589.7656,249.75 L589.5938,249.6719 Z " fill="#000000"/><text fill="#000000" font-family="sans-serif" font-size="14" lengthAdjust="spacing" textLength="71" x="607.75" y="258.8467">StartView</text><line style="stroke:#181818;stroke-width:0.5;" x1="529" x2="725" y1="270" y2="270"/><line style="stroke:#181818;stroke-width:0.5;" x1="529" x2="725" y1="278" y2="278"/><ellipse cx="539" cy="291.6484" fill="#84BE84" rx="3" ry="3" style="stroke:#038048;stroke-width:1.0;"/><text fill="#000000" font-family="sans-serif" font-size="14" lengthAdjust="spacing" textLength="172" x="548" y="294.9951">StartView(Game game);</text><ellipse cx="539" cy="307.9453" fill="#84BE84" rx="3" ry="3" style="stroke:#038048;stroke-width:1.0;"/><text fill="#000000" font-family="sans-serif" font-size="14" lengthAdjust="spacing" textLength="171" x="548" y="311.292">override void Interact();</text></g><!--class PlayerView--><g id="elem_PlayerView"><rect codeLine="23" fill="#F1F1F1" height="80.5938" id="PlayerView" rx="2.5" ry="2.5" style="stroke:#181818;stroke-width:0.5;" width="205" x="181.5" y="387"/><ellipse cx="240.75" cy="403" fill="#ADD1B2" rx="11" ry="11" style="stroke:#181818;stroke-width:1.0;"/><path d="M243.0938,398.6719 C242.1563,398.2344 241.5625,398.0938 240.6875,398.0938 C238.0625,398.0938 236.0625,400.1719 236.0625,402.8906 L236.0625,404.0156 C236.0625,406.5938 238.1719,408.4844 241.0625,408.4844 C242.2813,408.4844 243.4375,408.1875 244.1875,407.6406 C244.7656,407.2344 245.0938,406.7813 245.0938,406.3906 C245.0938,405.9375 244.7031,405.5469 244.2344,405.5469 C244.0156,405.5469 243.8125,405.625 243.625,405.8125 C243.1719,406.2969 243.1719,406.2969 242.9844,406.3906 C242.5625,406.6563 241.875,406.7813 241.1094,406.7813 C239.0625,406.7813 237.7656,405.6875 237.7656,403.9844 L237.7656,402.8906 C237.7656,401.1094 239.0156,399.7969 240.75,399.7969 C241.3281,399.7969 241.9375,399.9531 242.4063,400.2031 C242.8906,400.4844 243.0625,400.7031 243.1563,401.1094 C243.2188,401.5156 243.25,401.6406 243.3906,401.7656 C243.5313,401.9063 243.7656,402.0156 243.9844,402.0156 C244.25,402.0156 244.5156,401.875 244.6875,401.6563 C244.7969,401.5 244.8281,401.3125 244.8281,400.8906 L244.8281,399.4688 C244.8281,399.0313 244.8125,398.9063 244.7188,398.75 C244.5625,398.4844 244.2813,398.3438 243.9844,398.3438 C243.6875,398.3438 243.4844,398.4375 243.2656,398.75 L243.0938,398.6719 Z " fill="#000000"/><text fill="#000000" font-family="sans-serif" font-size="14" lengthAdjust="spacing" textLength="78" x="261.25" y="407.8467">PlayerView</text><line style="stroke:#181818;stroke-width:0.5;" x1="182.5" x2="385.5" y1="419" y2="419"/><line style="stroke:#181818;stroke-width:0.5;" x1="182.5" x2="385.5" y1="427" y2="427"/><ellipse cx="192.5" cy="440.6484" fill="#84BE84" rx="3" ry="3" style="stroke:#038048;stroke-width:1.0;"/><text fill="#000000" font-family="sans-serif" font-size="14" lengthAdjust="spacing" textLength="179" x="201.5" y="443.9951">PlayerView(Game game);</text><ellipse cx="192.5" cy="456.9453" fill="#84BE84" rx="3" ry="3" style="stroke:#038048;stroke-width:1.0;"/><text fill="#000000" font-family="sans-serif" font-size="14" lengthAdjust="spacing" textLength="171" x="201.5" y="460.292">override void Interact();</text></g><!--class InsertTokenView--><g id="elem_InsertTokenView"><rect codeLine="27" fill="#F1F1F1" height="113.1875" id="InsertTokenView" rx="2.5" ry="2.5" style="stroke:#181818;stroke-width:0.5;" width="362" x="189" y="528"/><ellipse cx="305.25" cy="544" fill="#ADD1B2" rx="11" ry="11" style="stroke:#181818;stroke-width:1.0;"/><path d="M307.5938,539.6719 C306.6563,539.2344 306.0625,539.0938 305.1875,539.0938 C302.5625,539.0938 300.5625,541.1719 300.5625,543.8906 L300.5625,545.0156 C300.5625,547.5938 302.6719,549.4844 305.5625,549.4844 C306.7813,549.4844 307.9375,549.1875 308.6875,548.6406 C309.2656,548.2344 309.5938,547.7813 309.5938,547.3906 C309.5938,546.9375 309.2031,546.5469 308.7344,546.5469 C308.5156,546.5469 308.3125,546.625 308.125,546.8125 C307.6719,547.2969 307.6719,547.2969 307.4844,547.3906 C307.0625,547.6563 306.375,547.7813 305.6094,547.7813 C303.5625,547.7813 302.2656,546.6875 302.2656,544.9844 L302.2656,543.8906 C302.2656,542.1094 303.5156,540.7969 305.25,540.7969 C305.8281,540.7969 306.4375,540.9531 306.9063,541.2031 C307.3906,541.4844 307.5625,541.7031 307.6563,542.1094 C307.7188,542.5156 307.75,542.6406 307.8906,542.7656 C308.0313,542.9063 308.2656,543.0156 308.4844,543.0156 C308.75,543.0156 309.0156,542.875 309.1875,542.6563 C309.2969,542.5 309.3281,542.3125 309.3281,541.8906 L309.3281,540.4688 C309.3281,540.0313 309.3125,539.9063 309.2188,539.75 C309.0625,539.4844 308.7813,539.3438 308.4844,539.3438 C308.1875,539.3438 307.9844,539.4375 307.7656,539.75 L307.5938,539.6719 Z " fill="#000000"/><text fill="#000000" font-family="sans-serif" font-size="14" lengthAdjust="spacing" textLength="121" x="325.75" y="548.8467">InsertTokenView</text><line style="stroke:#181818;stroke-width:0.5;" x1="190" x2="550" y1="560" y2="560"/><rect fill="none" height="6" style="stroke:#C82930;stroke-width:1.0;" width="6" x="197" y="570.6484"/><text fill="#000000" font-family="sans-serif" font-size="14" lengthAdjust="spacing" textLength="157" x="209" y="576.9951">readonly Game game;</text><line style="stroke:#181818;stroke-width:0.5;" x1="190" x2="550" y1="584.2969" y2="584.2969"/><ellipse cx="200" cy="597.9453" fill="#84BE84" rx="3" ry="3" style="stroke:#038048;stroke-width:1.0;"/><text fill="#000000" font-family="sans-serif" font-size="14" lengthAdjust="spacing" textLength="222" x="209" y="601.292">InsertTokenView(Game game);</text><ellipse cx="200" cy="614.2422" fill="#84BE84" rx="3" ry="3" style="stroke:#038048;stroke-width:1.0;"/><text fill="#000000" font-family="sans-serif" font-size="14" lengthAdjust="spacing" textLength="186" x="209" y="617.5889">int ReadColumnNumber();</text><ellipse cx="200" cy="630.5391" fill="#84BE84" rx="3" ry="3" style="stroke:#038048;stroke-width:1.0;"/><text fill="#000000" font-family="sans-serif" font-size="14" lengthAdjust="spacing" textLength="336" x="209" y="633.8857">bool CanInsertIntoColumn(int columnNumber);</text></g><!--class BoardView--><g id="elem_BoardView"><rect codeLine="33" fill="#F1F1F1" height="64.2969" id="BoardView" rx="2.5" ry="2.5" style="stroke:#181818;stroke-width:0.5;" width="201" x="487.5" y="395.5"/><ellipse cx="545.75" cy="411.5" fill="#ADD1B2" rx="11" ry="11" style="stroke:#181818;stroke-width:1.0;"/><path d="M548.0938,407.1719 C547.1563,406.7344 546.5625,406.5938 545.6875,406.5938 C543.0625,406.5938 541.0625,408.6719 541.0625,411.3906 L541.0625,412.5156 C541.0625,415.0938 543.1719,416.9844 546.0625,416.9844 C547.2813,416.9844 548.4375,416.6875 549.1875,416.1406 C549.7656,415.7344 550.0938,415.2813 550.0938,414.8906 C550.0938,414.4375 549.7031,414.0469 549.2344,414.0469 C549.0156,414.0469 548.8125,414.125 548.625,414.3125 C548.1719,414.7969 548.1719,414.7969 547.9844,414.8906 C547.5625,415.1563 546.875,415.2813 546.1094,415.2813 C544.0625,415.2813 542.7656,414.1875 542.7656,412.4844 L542.7656,411.3906 C542.7656,409.6094 544.0156,408.2969 545.75,408.2969 C546.3281,408.2969 546.9375,408.4531 547.4063,408.7031 C547.8906,408.9844 548.0625,409.2031 548.1563,409.6094 C548.2188,410.0156 548.25,410.1406 548.3906,410.2656 C548.5313,410.4063 548.7656,410.5156 548.9844,410.5156 C549.25,410.5156 549.5156,410.375 549.6875,410.1563 C549.7969,410 549.8281,409.8125 549.8281,409.3906 L549.8281,407.9688 C549.8281,407.5313 549.8125,407.4063 549.7188,407.25 C549.5625,406.9844 549.2813,406.8438 548.9844,406.8438 C548.6875,406.8438 548.4844,406.9375 548.2656,407.25 L548.0938,407.1719 Z " fill="#000000"/><text fill="#000000" font-family="sans-serif" font-size="14" lengthAdjust="spacing" textLength="76" x="566.25" y="416.3467">BoardView</text><line style="stroke:#181818;stroke-width:0.5;" x1="488.5" x2="687.5" y1="427.5" y2="427.5"/><line style="stroke:#181818;stroke-width:0.5;" x1="488.5" x2="687.5" y1="435.5" y2="435.5"/><ellipse cx="498.5" cy="449.1484" fill="#84BE84" rx="3" ry="3" style="stroke:#038048;stroke-width:1.0;"/><text fill="#000000" font-family="sans-serif" font-size="14" lengthAdjust="spacing" textLength="175" x="507.5" y="452.4951">void Write(Game game);</text></g><!--class Message--><g id="elem_Message"><rect codeLine="36" fill="#F1F1F1" height="210.9688" id="Message" rx="2.5" ry="2.5" style="stroke:#181818;stroke-width:0.5;" width="566" x="160" y="701"/><ellipse cx="408.25" cy="717" fill="#ADD1B2" rx="11" ry="11" style="stroke:#181818;stroke-width:1.0;"/><path d="M410.5938,712.6719 C409.6563,712.2344 409.0625,712.0938 408.1875,712.0938 C405.5625,712.0938 403.5625,714.1719 403.5625,716.8906 L403.5625,718.0156 C403.5625,720.5938 405.6719,722.4844 408.5625,722.4844 C409.7813,722.4844 410.9375,722.1875 411.6875,721.6406 C412.2656,721.2344 412.5938,720.7813 412.5938,720.3906 C412.5938,719.9375 412.2031,719.5469 411.7344,719.5469 C411.5156,719.5469 411.3125,719.625 411.125,719.8125 C410.6719,720.2969 410.6719,720.2969 410.4844,720.3906 C410.0625,720.6563 409.375,720.7813 408.6094,720.7813 C406.5625,720.7813 405.2656,719.6875 405.2656,717.9844 L405.2656,716.8906 C405.2656,715.1094 406.5156,713.7969 408.25,713.7969 C408.8281,713.7969 409.4375,713.9531 409.9063,714.2031 C410.3906,714.4844 410.5625,714.7031 410.6563,715.1094 C410.7188,715.5156 410.75,715.6406 410.8906,715.7656 C411.0313,715.9063 411.2656,716.0156 411.4844,716.0156 C411.75,716.0156 412.0156,715.875 412.1875,715.6563 C412.2969,715.5 412.3281,715.3125 412.3281,714.8906 L412.3281,713.4688 C412.3281,713.0313 412.3125,712.9063 412.2188,712.75 C412.0625,712.4844 411.7813,712.3438 411.4844,712.3438 C411.1875,712.3438 410.9844,712.4375 410.7656,712.75 L410.5938,712.6719 Z " fill="#000000"/><text fill="#000000" font-family="sans-serif" font-size="14" lengthAdjust="spacing" textLength="61" x="428.75" y="721.8467">Message</text><line style="stroke:#181818;stroke-width:0.5;" x1="161" x2="725" y1="733" y2="733"/><line style="stroke:#181818;stroke-width:0.5;" x1="161" x2="725" y1="741" y2="741"/><rect fill="#F24D5C" height="6" style="stroke:#C82930;stroke-width:1.0;" width="6" x="168" y="751.6484"/><text fill="#000000" font-family="sans-serif" font-size="14" lengthAdjust="spacing" textLength="230" x="180" y="757.9951">static void WriteLine(string str);</text><ellipse cx="171" cy="770.9453" fill="#84BE84" rx="3" ry="3" style="stroke:#038048;stroke-width:1.0;"/><text fill="#000000" font-family="sans-serif" font-size="14" lengthAdjust="spacing" textLength="231" x="180" y="774.292">static void WriteGameStarted();</text><ellipse cx="171" cy="787.2422" fill="#84BE84" rx="3" ry="3" style="stroke:#038048;stroke-width:1.0;"/><text fill="#000000" font-family="sans-serif" font-size="14" lengthAdjust="spacing" textLength="218" x="180" y="790.5889">static void WriteWinnerTitle();</text><ellipse cx="171" cy="803.5391" fill="#84BE84" rx="3" ry="3" style="stroke:#038048;stroke-width:1.0;"/><text fill="#000000" font-family="sans-serif" font-size="14" lengthAdjust="spacing" textLength="198" x="180" y="806.8857">static void WriteGameTie();</text><ellipse cx="171" cy="819.8359" fill="#84BE84" rx="3" ry="3" style="stroke:#038048;stroke-width:1.0;"/><text fill="#000000" font-family="sans-serif" font-size="14" lengthAdjust="spacing" textLength="287" x="180" y="823.1826">static void WriteInsertColumnNumber();</text><ellipse cx="171" cy="836.1328" fill="#84BE84" rx="3" ry="3" style="stroke:#038048;stroke-width:1.0;"/><text fill="#000000" font-family="sans-serif" font-size="14" lengthAdjust="spacing" textLength="322" x="180" y="839.4795">static void WriteInsertValidColumnNumber();</text><ellipse cx="171" cy="852.4297" fill="#84BE84" rx="3" ry="3" style="stroke:#038048;stroke-width:1.0;"/><text fill="#000000" font-family="sans-serif" font-size="14" lengthAdjust="spacing" textLength="509" x="180" y="855.7764">static void WriteCanNotInsertIntoSelectedColumn(int columnNumber);</text><ellipse cx="171" cy="868.7266" fill="#84BE84" rx="3" ry="3" style="stroke:#038048;stroke-width:1.0;"/><text fill="#000000" font-family="sans-serif" font-size="14" lengthAdjust="spacing" textLength="350" x="180" y="872.0732">static void WritePlayerWithToken(Player player);</text><rect fill="#F24D5C" height="6" style="stroke:#C82930;stroke-width:1.0;" width="6" x="168" y="882.0234"/><text fill="#000000" font-family="sans-serif" font-size="14" lengthAdjust="spacing" textLength="540" x="180" y="888.3701">static void WriteStringWithParams(string str, params object[] parameters);</text><ellipse cx="171" cy="901.3203" fill="#84BE84" rx="3" ry="3" style="stroke:#038048;stroke-width:1.0;"/><text fill="#000000" font-family="sans-serif" font-size="14" lengthAdjust="spacing" textLength="201" x="180" y="904.667">static void PrintSeparator();</text></g><!--class Game--><g id="elem_Game"><rect codeLine="66" fill="#F1F1F1" height="48" id="Game" rx="2.5" ry="2.5" style="stroke:#181818;stroke-width:0.5;" width="74" x="22" y="81.5"/><ellipse cx="37" cy="97.5" fill="#ADD1B2" rx="11" ry="11" style="stroke:#181818;stroke-width:1.0;"/><path d="M39.3438,93.1719 C38.4063,92.7344 37.8125,92.5938 36.9375,92.5938 C34.3125,92.5938 32.3125,94.6719 32.3125,97.3906 L32.3125,98.5156 C32.3125,101.0938 34.4219,102.9844 37.3125,102.9844 C38.5313,102.9844 39.6875,102.6875 40.4375,102.1406 C41.0156,101.7344 41.3438,101.2813 41.3438,100.8906 C41.3438,100.4375 40.9531,100.0469 40.4844,100.0469 C40.2656,100.0469 40.0625,100.125 39.875,100.3125 C39.4219,100.7969 39.4219,100.7969 39.2344,100.8906 C38.8125,101.1563 38.125,101.2813 37.3594,101.2813 C35.3125,101.2813 34.0156,100.1875 34.0156,98.4844 L34.0156,97.3906 C34.0156,95.6094 35.2656,94.2969 37,94.2969 C37.5781,94.2969 38.1875,94.4531 38.6563,94.7031 C39.1406,94.9844 39.3125,95.2031 39.4063,95.6094 C39.4688,96.0156 39.5,96.1406 39.6406,96.2656 C39.7813,96.4063 40.0156,96.5156 40.2344,96.5156 C40.5,96.5156 40.7656,96.375 40.9375,96.1563 C41.0469,96 41.0781,95.8125 41.0781,95.3906 L41.0781,93.9688 C41.0781,93.5313 41.0625,93.4063 40.9688,93.25 C40.8125,92.9844 40.5313,92.8438 40.2344,92.8438 C39.9375,92.8438 39.7344,92.9375 39.5156,93.25 L39.3438,93.1719 Z " fill="#000000"/><text fill="#000000" font-family="sans-serif" font-size="14" lengthAdjust="spacing" textLength="42" x="51" y="102.3467">Game</text><line style="stroke:#181818;stroke-width:0.5;" x1="23" x2="95" y1="113.5" y2="113.5"/><line style="stroke:#181818;stroke-width:0.5;" x1="23" x2="95" y1="121.5" y2="121.5"/></g><!--class Token--><g id="elem_Token"><rect codeLine="69" fill="#F1F1F1" height="48" id="Token" rx="2.5" ry="2.5" style="stroke:#181818;stroke-width:0.5;" width="77" x="782.5" y="560.5"/><ellipse cx="797.5" cy="576.5" fill="#EB937F" rx="11" ry="11" style="stroke:#181818;stroke-width:1.0;"/><path d="M796.2969,577.375 L797.75,577.375 L797.75,577.4844 C797.75,577.8906 797.7813,578.0469 797.8594,578.2031 C798.0156,578.4531 798.2969,578.6094 798.5938,578.6094 C798.8438,578.6094 799.1094,578.4688 799.2656,578.25 C799.3906,578.0938 799.4219,577.9375 799.4219,577.4844 L799.4219,575.5625 C799.4219,575.4063 799.4219,575.3594 799.4063,575.2031 C799.3438,574.7344 799.0313,574.4219 798.5781,574.4219 C798.3281,574.4219 798.0625,574.5625 797.8906,574.7813 C797.7813,574.9531 797.75,575.1094 797.75,575.5625 L797.75,575.6875 L796.2969,575.6875 L796.2969,573.2813 L800.2813,573.2813 L800.2813,574.1406 C800.2813,574.5469 800.3125,574.7188 800.3906,574.875 C800.5625,575.125 800.8438,575.2813 801.125,575.2813 C801.3906,575.2813 801.6563,575.1406 801.8281,574.9219 C801.9375,574.75 801.9688,574.6094 801.9688,574.1406 L801.9688,571.5938 L794.3438,571.5938 C793.9063,571.5938 793.7813,571.6094 793.625,571.7031 C793.375,571.8594 793.2188,572.1563 793.2188,572.4375 C793.2188,572.7188 793.3594,572.9688 793.5781,573.1406 C793.7344,573.25 793.9219,573.2813 794.3438,573.2813 L794.5938,573.2813 L794.5938,579.7969 L794.3438,579.7969 C793.9375,579.7969 793.7813,579.8125 793.625,579.9219 C793.375,580.0938 793.2188,580.3594 793.2188,580.6563 C793.2188,580.9219 793.3594,581.1719 793.5781,581.3281 C793.7188,581.4531 793.9531,581.5 794.3438,581.5 L802.3438,581.5 L802.3438,578.9219 C802.3438,578.4844 802.3125,578.3438 802.2344,578.1875 C802.0625,577.9375 801.7813,577.7813 801.5,577.7813 C801.2344,577.7813 800.9688,577.8906 800.7969,578.1406 C800.6875,578.2969 800.6563,578.4375 800.6563,578.9219 L800.6563,579.7969 L796.2969,579.7969 L796.2969,577.375 Z " fill="#000000"/><text fill="#000000" font-family="sans-serif" font-size="14" lengthAdjust="spacing" textLength="45" x="811.5" y="581.3467">Token</text><line style="stroke:#181818;stroke-width:0.5;" x1="783.5" x2="858.5" y1="592.5" y2="592.5"/><line style="stroke:#181818;stroke-width:0.5;" x1="783.5" x2="858.5" y1="600.5" y2="600.5"/></g><!--reverse link WithGameView to StartView--><g id="link_WithGameView_StartView"><path codeLine="49" d="M407.7492,162.4943 C458.0522,188.8803 503.91,212.934 551.534,237.915 " fill="none" id="WithGameView-backto-StartView" style="stroke:#181818;stroke-width:1.0;"/><polygon fill="none" points="391.809,154.133,404.9621,167.8077,410.5363,157.1809,391.809,154.133" style="stroke:#181818;stroke-width:1.0;"/></g><!--reverse link WithGameView to PlayerView--><g id="link_WithGameView_PlayerView"><path codeLine="50" d="M217.4239,165.9507 C193.7199,186.2457 183.711,200.393 171,230 C153.993,269.615 153.247,287.714 171,327 C181.71,350.701 201.165,371.009 220.95,386.982 " fill="none" id="WithGameView-backto-PlayerView" style="stroke:#181818;stroke-width:1.0;"/><polygon fill="none" points="231.097,154.244,213.5217,161.393,221.3261,170.5084,231.097,154.244" style="stroke:#181818;stroke-width:1.0;"/></g><!--reverse link WithGameView to PlayView--><g id="link_WithGameView_PlayView"><path codeLine="51" d="M316.2419,171.6599 C321.7669,195.2789 324.322,206.202 329.848,229.826 " fill="none" id="WithGameView-backto-PlayView" style="stroke:#181818;stroke-width:1.0;"/><polygon fill="none" points="312.142,154.133,310.3996,173.0265,322.0842,170.2932,312.142,154.133" style="stroke:#181818;stroke-width:1.0;"/></g><!--link View to StartView--><g id="link_View_StartView"><path codeLine="52" d="M606.315,181.9025 C611.226,204.5975 612.8051,211.8977 617.1531,231.9917 " fill="none" id="View-StartView" style="stroke:#181818;stroke-width:1.0;"/><polygon fill="#181818" points="603.777,170.174,601.1365,176.8843,606.315,181.9025,608.9555,175.1923,603.777,170.174" style="stroke:#181818;stroke-width:1.0;"/><polygon fill="#181818" points="618.422,237.856,620.4281,228.2136,617.3646,232.9691,612.6091,229.9055,618.422,237.856" style="stroke:#181818;stroke-width:1.0;"/></g><!--link View to PlayView--><g id="link_View_PlayView"><path codeLine="53" d="M487.3899,176.9672 C458.6289,196.7182 442.282,207.9443 415.389,226.4133 " fill="none" id="View-PlayView" style="stroke:#181818;stroke-width:1.0;"/><polygon fill="#181818" points="497.282,170.174,490.0716,170.2732,487.3899,176.9672,494.6004,176.8679,497.282,170.174" style="stroke:#181818;stroke-width:1.0;"/><polygon fill="#181818" points="410.443,229.81,420.1264,228.0123,414.5646,226.9794,415.5975,221.4177,410.443,229.81" style="stroke:#181818;stroke-width:1.0;"/></g><!--link PlayView to PlayerView--><g id="link_PlayView_PlayerView"><path codeLine="54" d="M322.494,327.227 C315.017,346.509 308.6591,362.9058 301.5341,381.2818 " fill="none" id="PlayView-to-PlayerView" style="stroke:#181818;stroke-width:1.0;stroke-dasharray:7.0,7.0;"/><polygon fill="#181818" points="299.365,386.876,306.3481,379.9307,301.1726,382.2142,298.8891,377.0386,299.365,386.876" style="stroke:#181818;stroke-width:1.0;"/></g><!--link PlayView to BoardView--><g id="link_PlayView_BoardView"><path codeLine="55" d="M420.853,327.024 C458.485,349.42 497.167,372.4414 530.505,392.2824 " fill="none" id="PlayView-to-BoardView" style="stroke:#181818;stroke-width:1.0;stroke-dasharray:7.0,7.0;"/><polygon fill="#181818" points="535.661,395.351,529.9728,387.3109,531.3644,392.7939,525.8813,394.1855,535.661,395.351" style="stroke:#181818;stroke-width:1.0;"/></g><!--link StartView to BoardView--><g id="link_StartView_BoardView"><path codeLine="56" d="M616.446,319.28 C610.13,343.088 603.7525,367.1236 597.8765,389.2726 " fill="none" id="StartView-to-BoardView" style="stroke:#181818;stroke-width:1.0;stroke-dasharray:7.0,7.0;"/><polygon fill="#181818" points="596.338,395.072,602.5121,387.3986,597.6201,390.2392,594.7796,385.3472,596.338,395.072" style="stroke:#181818;stroke-width:1.0;"/></g><!--link PlayerView to InsertTokenView--><g id="link_PlayerView_InsertTokenView"><path codeLine="57" d="M305.924,468.014 C316.026,486.222 325.2788,502.8996 336.2828,522.7306 " fill="none" id="PlayerView-to-InsertTokenView" style="stroke:#181818;stroke-width:1.0;stroke-dasharray:7.0,7.0;"/><polygon fill="#181818" points="339.194,527.977,338.3248,518.1666,336.768,523.605,331.3296,522.0481,339.194,527.977" style="stroke:#181818;stroke-width:1.0;"/></g><!--link PlayerView to Message--><g id="link_PlayerView_Message"><path codeLine="58" d="M213.684,468.095 C196.575,481.415 180.486,497.954 171,517.5 C147.035,566.881 144.04,593.188 171,641 C183.74,663.593 196.472,679.4641 216.114,696.8041 " fill="none" id="PlayerView-to-Message" style="stroke:#181818;stroke-width:1.0;stroke-dasharray:7.0,7.0;"/><polygon fill="#181818" points="220.612,700.775,216.5122,691.82,216.8636,697.4659,211.2177,697.8174,220.612,700.775" style="stroke:#181818;stroke-width:1.0;"/></g><!--link PlayView to Message--><g id="link_PlayView_Message"><path codeLine="59" d="M369.802,327.181 C399.755,375.677 445.61,446.644 470,468 C506.712,500.146 542.431,475.939 568,517.5 C603.416,575.066 578.5857,639.4849 540.0677,695.7169 " fill="none" id="PlayView-to-Message" style="stroke:#181818;stroke-width:1.0;stroke-dasharray:7.0,7.0;"/><polygon fill="#181818" points="536.677,700.667,545.0631,695.5024,539.5026,696.542,538.463,690.9814,536.677,700.667" style="stroke:#181818;stroke-width:1.0;"/></g><!--link StartView to Message--><g id="link_StartView_Message"><path codeLine="60" d="M665.569,319.125 C681.352,338.061 697.809,362.021 706,387 C717.218,421.208 714.867,433.109 706,468 C683.221,557.634 624.5537,635.5841 566.0197,696.4571 " fill="none" id="StartView-to-Message" style="stroke:#181818;stroke-width:1.0;stroke-dasharray:7.0,7.0;"/><polygon fill="#181818" points="561.861,700.782,570.9824,697.0671,565.3266,697.1779,565.2158,691.5221,561.861,700.782" style="stroke:#181818;stroke-width:1.0;"/></g><!--link InsertTokenView to Message--><g id="link_InsertTokenView_Message"><path codeLine="61" d="M388.421,641.015 C394.461,659.218 399.4955,674.3893 406.3375,695.0103 " fill="none" id="InsertTokenView-to-Message" style="stroke:#181818;stroke-width:1.0;stroke-dasharray:7.0,7.0;"/><polygon fill="#181818" points="408.227,700.705,409.1892,690.9033,406.6524,695.9594,401.5963,693.4226,408.227,700.705" style="stroke:#181818;stroke-width:1.0;"/></g><!--link BoardView to Message--><g id="link_BoardView_Message"><path codeLine="62" d="M596.733,459.707 C607.006,502.324 619.842,580.357 596,641 C587.652,662.234 578.8187,677.6226 564.4657,696.0276 " fill="none" id="BoardView-to-Message" style="stroke:#181818;stroke-width:1.0;stroke-dasharray:7.0,7.0;"/><polygon fill="#181818" points="560.776,700.759,569.4648,696.1218,563.8508,696.8162,563.1563,691.2021,560.776,700.759" style="stroke:#181818;stroke-width:1.0;"/></g><!--link Game to WithGameView--><g id="link_Game_WithGameView"><path codeLine="71" d="M102.34,105.5 C130.987,105.5 141.634,105.5 170.281,105.5 " fill="none" id="Game-WithGameView" style="stroke:#181818;stroke-width:1.0;"/><polygon fill="#181818" points="96.34,105.5,105.34,109.5,101.34,105.5,105.34,101.5,96.34,105.5" style="stroke:#181818;stroke-width:1.0;"/><polygon fill="#181818" points="182.281,105.5,176.281,101.5,170.281,105.5,176.281,109.5,182.281,105.5" style="stroke:#181818;stroke-width:1.0;"/></g><!--link BoardView to Token--><g id="link_BoardView_Token"><path codeLine="72" d="M647.23,459.599 C676.486,475.737 711.88,496.449 742,517.5 C760.75,530.605 775.9911,543.1465 791.0541,556.3705 " fill="none" id="BoardView-to-Token" style="stroke:#181818;stroke-width:1.0;stroke-dasharray:7.0,7.0;"/><polygon fill="#181818" points="795.563,560.329,791.4386,551.3853,791.8055,557.0303,786.1606,557.3973,795.563,560.329" style="stroke:#181818;stroke-width:1.0;"/></g><!--SRC=[ZLNDRjim3BxxANJqcjaFi0qzh1Y60cjNB45p67QGRIxJAak1f7GeikpP9r4_jcmdwCKGoOyVVqJAUze-qHsGHmP_zB4WBQTQesG5GYgYW7PIy1UoDbGPPo0wdjvF80-SlY1Y7mu8M25T-PdsG7RsyoPedoNhF6kPgHmBQau5eOqsYhOcvBLbvfVZIVdz6u8d_i0rniw39s8CUIiCE2c6zT5YEKVl4iKHsJlIK0qbdidHUJgWV0QbM0SBtAvTlaZ5XDao8K1zLHi6UUJKwn0woVD2BWJB2W4L-LOZUSBtEhfReK6PZNm24JchC_Umce9d0MqRo3VhUoFveHVtXxu1LGPR8oKdDrHu3fkCzAZIERKZXoozZvAgRYWM2zagPY2FdV1teBLT0L-6dMt3sf7J5oQWjBF2nCuQLSXi1dFKU4lGbUSm_hetp70eB_74SLYo-rOiDUiCz95orhqARnjzBytGwpLmQ6qz5tg-HEE7osqVNdhfPNmIWjD2bzVOOEVqG1NjzQZZRyaULKGslsq-ttzu6UnaweKSSB7Mu316gZYuHVOSa0z_gsfOgYNZi2BdhDw6kgkgkXxJ3Se1cDx6khxEs3D3cjrYzDvE38CpMYOBDhE7yPu4IjeyJ59FM7DZIYPJdufY7_ucTx83xdudOSLSzuudYuY0J-BGentiWM0OjEDlgCuQVbLn-6biBprfxGm1b-U1d3Lo_GS0]--></g></svg>